#N canvas 375 42 1266 720 10;
#X declare -path . -path .. -path data -path ../data -path ev-in -path
../ev-in -path ev-main -path ../ev-main -path ev-pano -path ../ev-pano
-path ev-pro -path ../ev-pro -path libs/gil -path ../libs/gil -path
libs/kollabs -path ../libs/kollabs -path media -path ../media -path
ev-glsl -path ../ev-glsl;
#X obj 13 109 gemwin 20;
#X msg 49 85 0 \, destroy;
#X msg 13 59 dimen 800 600 \, color 0.5 0.5 0.5 \, create \, 1;
#X obj 339 85 ../ev-main/ev_declare;
#X obj 166 413 bng 15 250 50 0 empty empty bang_to_reload_shaders 17
7 0 10 -262144 -1 -1;
#X msg 735 574 \$1;
#X floatatom 735 596 10 0 0 0 - - -;
#X obj 1018 219 loadbang;
#X obj 996 220 bng 15 250 50 0 empty empty empty 17 7 0 10 -262144
-1 -1;
#X obj 968 283 pix_image;
#X msg 1031 397 \$1;
#X floatatom 1031 419 5 0 0 0 - - -;
#X obj 890 309 loadbang;
#X obj 660 342 pix_image;
#X obj 715 275 loadbang;
#X obj 693 276 bng 15 250 50 0 empty empty empty 17 7 0 10 -262144
-1 -1;
#X obj 968 370 pix_texture;
#X obj 1032 525 loadbang;
#X obj 1010 526 bng 15 250 50 0 empty empty empty 17 7 0 10 -262144
-1 -1;
#X obj 979 586 pix_image;
#X msg 1045 703 \$1;
#X floatatom 1045 725 5 0 0 0 - - -;
#X obj 951 643 pix_texture;
#X obj 949 103 gemhead 11;
#X obj 938 451 gemhead 22;
#X msg 1011 553 open ../media/cam3.jpg;
#X obj 114 205 gemhead;
#X obj 156 684 rectangle 4 3;
#X msg 997 247 open ../media/container.jpg;
#X obj 968 305 pix_resize;
#N canvas 1 54 450 300 pack4 0;
#X obj 70 69 inlet;
#X obj 70 211 pack 0 0 0 0;
#X obj 70 233 outlet;
#X obj 116 73 inlet;
#X obj 116 95 t b f;
#X obj 161 77 inlet;
#X obj 161 99 t b f;
#X obj 214 86 inlet;
#X obj 214 108 t b f;
#X connect 0 0 1 0;
#X connect 1 0 2 0;
#X connect 3 0 4 0;
#X connect 4 0 1 0;
#X connect 4 1 1 1;
#X connect 5 0 6 0;
#X connect 6 0 1 0;
#X connect 6 1 1 2;
#X connect 7 0 8 0;
#X connect 8 0 1 0;
#X connect 8 1 1 3;
#X restore 357 302 pd pack4;
#X floatatom 362 249 5 0 0 0 - - -;
#X floatatom 404 259 5 0 0 0 - - -;
#X obj 655 147 gemhead 99;
#X obj 657 230 translateXYZ 0 0 -4;
#X obj 655 169 gemframebuffer;
#X obj 979 611 pix_resize;
#X msg 832 338 rectangle 0;
#X obj 658 521 pix_texture;
#X obj 545 45 loadbang;
#X msg 737 1200 \$1;
#X floatatom 737 1222 10 0 0 0 - - -;
#X obj 662 968 pix_image;
#X obj 717 901 loadbang;
#X obj 695 902 bng 15 250 50 0 empty empty empty 17 7 0 10 -262144
-1 -1;
#X obj 657 773 gemhead 99;
#X obj 659 856 translateXYZ 0 0 -4;
#X obj 657 795 gemframebuffer;
#X obj 660 1147 pix_texture;
#X msg 537 711 type FLOAT \, color 0 0 0 0 \, dimen 512 512 \, mode
0 \, format RGBA;
#X obj 663 1258 rectangle 4 -4;
#X obj 547 671 loadbang;
#X msg 696 929 open ../media/cam1.jpg;
#X msg 535 85 type BYTE \, color 0 0 0 0 \, dimen 512 512 \, mode 0
\, rectangle 0 \, format RGBA;
#X obj 661 632 rectangle 4 -4;
#X obj 364 108 vsl 15 128 0 1 0 0 empty empty empty 0 -9 0 10 -262144
-1 -1 0 1;
#X msg 694 303 open ../media/cam3.jpg;
#X obj 168 623 ev_glsl_mix2 v001.mix2/lumablend;
#X msg 357 324 amount \$1 \$2 \$3 \$4;
#X connect 1 0 0 0;
#X connect 2 0 0 0;
#X connect 4 0 57 0;
#X connect 5 0 6 0;
#X connect 7 0 28 0;
#X connect 8 0 28 0;
#X connect 9 0 29 0;
#X connect 10 0 11 0;
#X connect 12 0 37 0;
#X connect 13 0 38 0;
#X connect 14 0 56 0;
#X connect 15 0 56 0;
#X connect 16 1 10 0;
#X connect 16 1 57 2;
#X connect 17 0 25 0;
#X connect 18 0 25 0;
#X connect 19 0 36 0;
#X connect 20 0 21 0;
#X connect 22 1 20 0;
#X connect 23 0 9 0;
#X connect 24 0 19 0;
#X connect 25 0 19 0;
#X connect 26 0 57 0;
#X connect 28 0 9 0;
#X connect 29 0 16 0;
#X connect 30 0 58 0;
#X connect 31 0 30 0;
#X connect 31 0 30 1;
#X connect 31 0 30 2;
#X connect 32 0 30 3;
#X connect 33 0 35 0;
#X connect 34 0 13 0;
#X connect 35 0 34 0;
#X connect 35 1 57 1;
#X connect 36 0 22 0;
#X connect 37 0 16 0;
#X connect 37 0 22 0;
#X connect 37 0 38 0;
#X connect 38 0 54 0;
#X connect 38 1 5 0;
#X connect 39 0 53 0;
#X connect 40 0 41 0;
#X connect 42 0 48 0;
#X connect 43 0 52 0;
#X connect 44 0 52 0;
#X connect 45 0 47 0;
#X connect 46 0 42 0;
#X connect 47 0 46 0;
#X connect 48 0 50 0;
#X connect 48 1 40 0;
#X connect 49 0 47 0;
#X connect 51 0 49 0;
#X connect 52 0 42 0;
#X connect 53 0 35 0;
#X connect 55 0 31 0;
#X connect 56 0 13 0;
#X connect 57 0 27 0;
#X connect 58 0 57 3;
#X coords 0 720 1 719 85 60 0;
