#N canvas 77 123 694 524 10;
#X obj 101 101 cnv 15 268 54 empty empty empty 20 12 0 14 -228856 -66577
0;
#X obj 310 118 nbx 5 14 -1e+37 1e+37 0 0 /ev/buf/\$1/dimen/x /ev/buf/\$1/dimen/x
x -8 8 0 10 -204800 -1 -1 1024 256;
#X obj 310 136 nbx 5 14 -1e+37 1e+37 0 0 /ev/buf/\$1/dimen/y /ev/buf/\$1/dimen/y
y -8 8 0 10 -204800 -1 -1 1024 256;
#X obj 104 102 tgl 15 0 /ev/buf/\$1/state /ev/buf/\$1/state on/off
17 7 0 10 -4034 -1 -1 1 1;
#X text 308 101 dimen;
#X obj 100 10 cnv 15 850 16 empty empty EXTENDED_VIEW_FRAMEBUFFER 20
8 0 14 -233017 -66577 0;
#X obj 99 318 cnv 15 360 60 empty empty creation_arguments: 5 12 0
12 -162280 -1 0;
#X obj 102 200 cnv 15 200 100 empty empty gui_controls 5 8 0 12 -204800
-66577 0;
#X obj 104 120 tgl 15 0 /ev/glsl/\$1/state /ev/glsl/\$1/state shader_on/off
17 7 0 10 -257985 -1 -1 1 1;
#X obj 224 123 tgl 15 0 /ev/glsl/\$1/rectangle /ev/glsl/\$1/rectangle
tex_rect 17 7 0 10 -232576 -1 -1 1 1;
#X obj 224 104 tgl 15 0 /ev/buf/\$1/rectangle /ev/buf/\$1/rectangle
buf_rect 17 7 0 10 -232576 -1 -1 1 1;
#X text 111 424 (c)2013 Marian Weger /part of EXTENDED VIEW toolkit/
gpl v3;
#X obj 104 138 bng 15 250 50 0 /ev/glsl/\$1/gui/vis /ev/glsl/\$1/gui/vis
show_shader_settings 17 7 0 10 -4032 -1 -1;
#X obj 482 108 r /ev/glsl/\$1/gui/vis;
#X obj 482 130 b;
#X msg 482 152 vis 1;
#X obj 482 174 s pd-\$0-shader-gui;
#N canvas 776 130 281 216 \$0-shader-gui 0;
#X obj 1 1 glsl/\$3.gui \$1 \$2 \$3;
#X restore 482 213 pd \$0-shader-gui;
#X connect 13 0 14 0;
#X connect 14 0 15 0;
#X connect 15 0 16 0;
#X coords 0 -1 1 1 270 56 2 100 100;
