#N canvas 207 22 1055 651 10;
#X text 642 538 outlet 1: gemlist outlet;
#X text 812 515 outlet 2: texture id;
#X obj 550 538 outlet gemlist;
#X obj 811 543 outlet texture_id;
#X obj 538 60 cnv 15 200 40 empty empty inlets 1 8 0 12 -260097 -66577
0;
#X obj 549 78 inlet gemlist;
#X obj 755 71 inlet texture_id;
#X text 103 492 (c)2013 Marian Weger \; /part of EXTENDED VIEW toolkit/
gpl v3;
#X obj 543 204 ev_glsl_buf_dsp \$1 \$2 \$3.v;
#X obj 543 182 ev_glsl_buf_dsp \$1 \$2 \$3.h;
#X obj 784 282 glsl/\$3.2-pass.reg \$1 \$2 \$3;
#X connect 5 0 9 0;
#X connect 6 0 9 1;
#X connect 8 0 2 0;
#X connect 8 1 3 0;
#X connect 9 0 8 0;
#X connect 9 1 8 1;
#X coords 0 651 1 650 270 75 0;
