#N canvas 175 22 944 756 10;
#X declare -path . -path .. -path data -path ../data -path ev-in -path
../ev-in -path ev-main -path ../ev-main -path ev-pano -path ../ev-pano
-path ev-pro -path ../ev-pro -path libs/gil -path ../libs/gil -path
libs/kollabs -path ../libs/kollabs -path media -path ../media -path
ev-glsl -path ../ev-glsl;
#X obj 14 -26 cnv 15 700 30 empty empty Example:_scene_transitions
20 12 0 14 -233017 -66577 0;
#X obj 13 281 cnv 15 910 30 empty empty INITIALIZE 20 12 0 14 -261234
-66577 0;
#N canvas 579 25 509 161 init 0;
#X obj 44 27 cnv 15 400 100 empty empty IMPORTANT 20 12 0 14 -261234
-66577 0;
#X text 49 47 Such a declare object should always be in the main patch
of your project \, to set the pathes to the abstractions.;
#X obj 158 93 ev-main/ev_declare;
#X restore 752 -22 pd init;
#X text 477 -26 (c)2012 Peter Venus & Marian Weger \; /part of EXTENDED
VIEW toolkit/ gpl v3;
#X obj 13 84 cnv 15 450 190 empty empty Patch_domain_"main" 280 12
0 14 -262130 -66577 0;
#X obj 23 92 gemhead 50;
#X obj 473 84 cnv 15 450 190 empty empty Patch_domain_"special" 20
12 0 14 -262130 -66577 0;
#X obj 14 318 cnv 15 450 210 empty empty Storage_domain_"main" 20 12
0 14 -204800 -66577 0;
#X obj 27 377 ev_storage main;
#X obj 474 318 cnv 15 450 210 empty empty Storage_domain_"special"
20 12 0 14 -204800 -66577 0;
#X obj 490 378 ev_storage special;
#X text 488 344 Here \, domain "special" is specified by first creation
argument.;
#X obj 611 145 gemhead 51;
#X text 26 351 Here \, domain "main" is specified by first creation
argument.;
#X msg 247 430 0;
#X msg 277 430 1;
#X msg 307 430 2;
#X text 187 403 Change scene by clicking these message boxes;
#X obj 247 472 s /main/ds/scene;
#X msg 711 429 0;
#X msg 741 429 1;
#X msg 771 429 2;
#X text 651 402 Change scene by clicking these message boxes;
#X obj 711 471 s /special/ds/scene;
#X obj 23 121 ev_pro_22easy projection_a main;
#X obj 611 174 ev_pro_22easy projection_b special;
#N canvas 0 22 493 355 load_preset_files 0;
#X obj 57 41 loadbang;
#X obj 37 41 bng 15 250 50 0 empty empty empty 17 7 0 10 -262144 -1
-1;
#X obj 57 65 del 1000;
#X obj 57 87 t b b;
#X obj 57 221 del 2000;
#X msg 57 244 \; /main/ds/scene 0 \; /special/ds/scene 0 \;;
#X text 145 43 Both domains must be initialized to get automatically
loaded on startup.;
#X msg 84 115 \; /main/ds/loadfile ../../data/ev_example_scene_transitions_main.txt
\; /special/ds/loadfile ../../data/ev_example_scene_transitions_special.txt
\;;
#X text 130 188 (pathes relative to "./libs/kollabs");
#X connect 0 0 2 0;
#X connect 1 0 2 0;
#X connect 2 0 3 0;
#X connect 3 0 4 0;
#X connect 3 1 7 0;
#X connect 4 0 5 0;
#X coords 0 355 1 354 85 60 0;
#X restore 163 287 pd load_preset_files;
#X obj 14 537 cnv 15 910 60 empty empty the_ADVANCED_window 20 12 0
14 -261682 -66577 0;
#X text 183 560 Click on "advanced" to get to the advanced settings.
;
#X obj 34 570 bng 15 250 50 0 /special/ds/advanced/vis /special/ds/advanced/vis
advanced 17 7 0 10 -262144 -1 -1;
#X text 183 575 A dialog will open \, that gives you some cryptic options:
;
#X obj 14 597 cnv 15 910 230 empty empty empty 20 12 0 14 -228856 -66577
0;
#X obj 33 644 tgl 15 1 /special/ds/settings/state /special/ds/settings/state
recall_settings 17 7 0 10 -262144 -1 -1 1 1;
#X obj 33 604 tgl 15 1 /special/ds/data/state /special/ds/data/state
recall_data 17 7 0 10 -262144 -1 -1 1 1;
#X obj 33 726 bng 15 250 50 0 /special/ds/reg/dialog /special/ds/reg/dialog
register_settings 17 7 0 10 -4032 -1 -1;
#X obj 33 690 tgl 15 1 /special/ds/global/state /special/ds/global/state
recall_global 17 7 0 10 -262144 -1 -1 0 1;
#X text 183 602 "recall_data" must be enabled to load the saved data
on a recall.;
#X text 183 642 "recall_settings" must be enabled to recall the scene
transition settings for the saved data.;
#X text 183 688 "recall_global" must be enabled to recall the global
parameters for this storage domain with each recall.;
#X text 543 602 (All variables are saved within the "data" section)
;
#X text 543 642 (The scene transition settings for the variables are
saved within the "settings" section);
#X text 543 688 ("recall_data" and "recall_settings" are saved in the
"GLOBAL" section);
#X obj 14 837 cnv 15 910 70 empty empty REGISTER_SETTINGS 20 12 0 14
-261682 -66577 0;
#X obj 33 878 bng 15 250 50 0 /ev/pro/projection_b/vertex/top/left/x/ds/dialog
/ev/pro/projection_b/vertex/top/left/x/ds/dialog /ev/pro/projection_b/vertex/top/left/x
20 7 0 10 -262144 -1 -1;
#X text 213 841 Click on a variable to get to its scene transition
dialog.;
#X obj 14 908 cnv 15 910 820 empty empty empty 20 12 0 14 -228856 -66577
0;
#X obj 33 1040 nbx 4 14 -1e+37 1e+37 0 0 /ev/pro/projection_b/vertex/top/left/x/ds/morph/time
/ev/pro/projection_b/vertex/top/left/x/ds/morph/time time/s 47 7 0
10 -4034 -1 -1 3 256;
#X obj 33 1000 tgl 15 0 /ev/pro/projection_b/vertex/top/left/x/ds/morph
/ev/pro/projection_b/vertex/top/left/x/ds/morph morph 17 7 0 10 -4034
-1 -1 1 1;
#X obj 33 1363 bng 15 250 50 0 /ev/pro/projection_b/vertex/top/left/x/ds/print
/ev/pro/projection_b/vertex/top/left/x/ds/print print_current_value
17 7 0 10 -262144 -1 -1;
#X obj 33 1160 nbx 4 14 -1e+37 1e+37 0 0 /ev/pro/projection_b/vertex/top/left/x/ds/morph/curve/shape
/ev/pro/projection_b/vertex/top/left/x/ds/morph/curve/shape shape 47
7 0 10 -204786 -1 -1 0 256;
#X obj 33 1180 nbx 4 14 0 1 0 0 /ev/pro/projection_b/vertex/top/left/x/ds/morph/curve/weight
/ev/pro/projection_b/vertex/top/left/x/ds/morph/curve/weight weight
47 7 0 10 -204786 -1 -1 0 256;
#X obj 33 1210 nbx 4 14 10 10000 0 0 /ev/pro/projection_b/vertex/top/left/x/ds/morph/curve/resolution
/ev/pro/projection_b/vertex/top/left/x/ds/morph/curve/resolution resolution
47 7 0 10 -204786 -1 -1 100 256;
#X obj 33 1250 hradio 15 1 0 4 /ev/pro/projection_b/vertex/top/left/x/ds/morph/curve/quality
/ev/pro/projection_b/vertex/top/left/x/ds/morph/curve/quality quality
0 -8 0 10 -204786 -1 -1 0;
#X obj 33 1116 bng 15 250 50 0 /ev/pro/projection_b/vertex/top/left/x/ds/morph/curve/vis
/ev/pro/projection_b/vertex/top/left/x/ds/morph/curve/vis show_curve
17 7 0 10 -204786 -1 -1;
#X obj 33 1060 nbx 4 14 -1e+37 1e+37 0 0 /ev/pro/projection_b/vertex/top/left/x/ds/morph/timegrain
/ev/pro/projection_b/vertex/top/left/x/ds/morph/timegrain time-grain/ms
47 7 0 10 -4034 -1 -1 20 256;
#X obj 33 960 nbx 4 14 -1e+37 1e+37 0 0 /ev/pro/projection_b/vertex/top/left/x/ds/delay
/ev/pro/projection_b/vertex/top/left/x/ds/delay delay 47 7 0 10 -204800
-1 -1 0 256;
#X obj 33 1323 tgl 15 0 /ev/pro/projection_b/vertex/top/left/x/ds/occupy
/ev/pro/projection_b/vertex/top/left/x/ds/occupy occupy 17 7 0 10 -262130
-1 -1 0 1;
#X text 183 957 To delay the recall of one variable \, a delay (in
seconds) can be set.;
#X text 183 997 Turn on "morph" to get a smooth fade from the last
value to the value that is saved in the current scene.;
#X text 183 1037 Set the fade time in seconds.;
#X text 183 1061 Set the data-rate of the fade in ms (default = 20
ms);
#X text 183 1100 If no curve is specified \, a linear fade will be
applied.;
#X text 183 912 The values are saved separately for each parameter
in every scene. They are saved in the "settings" section.;
#X text 183 1117 Show the current appearance of the fade curve.;
#X text 183 1158 Shape lets you chose a shape for the curve.;
#X text 183 1178 Weight is a mix factor between a linear fade and the
chosen shape.;
#X text 183 1211 This lets you specify the resolution of the fade curve.
;
#X text 548 1280 2: linear interpolation;
#X text 548 1294 3: tabread4 4-point polynomianl interpolation;
#X text 548 1266 1: no interpolation;
#X text 548 1252 0: bypass --> output=input (default);
#X text 183 1251 Choose the quality in which the fade curve will be
applied:;
#X obj 549 1140 cnv 15 370 90 empty empty fadecurve 20 12 0 14 -249661
-66577 0;
#X obj 667 1201 fadecurve-help;
#X text 559 1172 See [fadecurve-help] for more information on these
values.;
#X text 183 1324 If "occupy" is set \, the variable will not respond
to another scene recall while it is fading.;
#X text 183 1364 For debug reasons \, you can print the current value
of the variable to the console.;
#X obj 14 8 cnv 15 910 70 empty empty General 20 12 0 14 -232576 -66577
0;
#X text 129 13 In this example \, a scene transition is introduced
for domain "special".;
#X text 183 725 This button opens a list of all variables that are
registered with this domain. Click one of these to get to its settings
dialog.;
#X obj 25 1419 cnv 15 130 60 empty empty empty 20 12 0 14 -191407 -66577
0;
#X obj 33 1429 bng 15 250 50 0 \$2/ds/settings/copy \$2/ds/settings/copy
COPY_to_buffer 17 7 0 10 -4160 -1 -1;
#X obj 33 1449 bng 15 250 50 0 \$2/ds/settings/paste \$2/ds/settings/paste
PASTE_from_buffer 17 7 0 10 -260097 -1 -1;
#X obj 33 803 bng 15 250 50 0 /special/ds/edit/dialog /special/ds/edit/dialog
edit 17 7 0 10 -258113 -1 -1;
#X obj 33 783 bng 15 250 50 0 /special/ds/reg/settings/buffer /special/ds/reg/settings/buffer
register_settings_buffer 17 7 0 10 -257985 -1 -1;
#X text 214 796 These two buttons will get explained later :-(;
#X text 183 1425 There is also a buffer for scene transition settings
\, which can be edited independently. Settings can be copied to that
buffer and pasted from it.;
#X text 183 1585 The Register Settings Buffer has the same controls
\, as the scene transition dialog for the individual variables.;
#X obj 270 1544 bng 15 250 50 0 /special/ds/reg/settings/buffer /special/ds/reg/settings/buffer
register_settings_buffer 17 7 0 10 -257985 -1 -1;
#X obj 271 1689 bng 15 250 50 0 /special/ds/reg/settings/buffer/paste/all
/special/ds/reg/settings/buffer/paste/all send_to_all_registers 17
7 0 10 -258113 -1 -1;
#X text 183 1653 The buffer contents can be sent to all registered
variables in this domain by pressing the red button:;
#X text 183 1625 The buffer can be edited and then pasted into variables.
;
#X text 181 1484 Remember the unexplained yellow button from the "advanced"
settings window above?;
#X text 181 1518 Click it to open the buffer:;
#X obj 14 1734 cnv 15 910 25 empty empty More_information_can_be_found_in_"ev_storage-help"
20 12 0 14 -261234 -258113 0;
#X obj 23 188 ev_gemwin main;
#X text 129 45 The following steps show \, how scene transitions work
and how to get them.;
#X text 323 874 This opens the settings for the x-coordinate of the
upper-left corner.;
#X text 519 9 IMPORTANT NOTE \; A transition is saved with the DESTINATION
value. So \, if a fade between scene 3 and 4 is desired \, it needs
to be set in scene 4 \; Transitions only have influence on variables
of type float.;
#X connect 5 0 24 0;
#X connect 12 0 25 0;
#X connect 14 0 18 0;
#X connect 15 0 18 0;
#X connect 16 0 18 0;
#X connect 19 0 23 0;
#X connect 20 0 23 0;
#X connect 21 0 23 0;
#X coords 0 0 1 1 85 60 0;
