#N canvas 228 189 999 557 10;
#X obj 101 132 cnv 15 198 31 empty empty empty 20 12 0 14 -233017 -66577
0;
#X obj 195 136 bng 15 250 50 0 empty empty settings 17 7 0 10 -159808
-1 -1;
#X obj 105 135 tgl 15 1 /ev/pro/\$1/state /ev/pro/\$1/state on/off
17 7 0 10 -4034 -1 -1 1 1;
#N canvas 0 22 560 493 soft_edging 0;
#X obj 335 366 outlet;
#X obj 48 112 inlet;
#X msg 125 315 Sl \$1;
#X obj 48 135 t b b b b;
#X obj 125 135 r /ev/pro/\$1/shade/left;
#X obj 195 155 r /ev/pro/\$1/shade/right;
#X obj 265 175 r /ev/pro/\$1/shade/top;
#X obj 335 195 r /ev/pro/\$1/shade/bottom;
#X msg 195 315 Sr \$1;
#X msg 265 315 St \$1;
#X msg 335 315 Sb \$1;
#X obj 125 262 f 0;
#X obj 195 262 f 0;
#X obj 265 262 f 0;
#X obj 335 262 f 0;
#X obj 125 284 max 0.0001;
#X obj 195 284 max 0.0001;
#X obj 265 284 max 0.0001;
#X obj 335 284 max 0.0001;
#X connect 1 0 3 0;
#X connect 2 0 0 0;
#X connect 3 0 11 0;
#X connect 3 1 12 0;
#X connect 3 2 13 0;
#X connect 3 3 14 0;
#X connect 4 0 11 0;
#X connect 5 0 12 0;
#X connect 6 0 13 0;
#X connect 7 0 14 0;
#X connect 8 0 0 0;
#X connect 9 0 0 0;
#X connect 10 0 0 0;
#X connect 11 0 15 0;
#X connect 12 0 16 0;
#X connect 13 0 17 0;
#X connect 14 0 18 0;
#X connect 15 0 2 0;
#X connect 16 0 8 0;
#X connect 17 0 9 0;
#X connect 18 0 10 0;
#X restore 699 437 pd soft_edging;
#N canvas 323 254 956 756 texture_position 0;
#X obj 177 168 pack f f;
#X obj 205 103 t b f;
#X obj 177 821 outlet;
#X obj 90 -40 inlet;
#X obj 327 168 pack f f;
#X obj 355 103 t b f;
#X obj 307 558 pack f f;
#X obj 335 493 t b f;
#X obj 457 558 pack f f;
#X obj 485 493 t b f;
#X obj 90 543 t b b;
#X obj 117 11 t b b;
#X obj 177 -9 r /ev/pro/\$1/texture/top/left/x;
#X obj 205 11 r /ev/pro/\$1/texture/top/left/y;
#X obj 327 34 r /ev/pro/\$1/texture/top/right/x;
#X obj 355 54 r /ev/pro/\$1/texture/top/right/y;
#X obj 307 349 r /ev/pro/\$1/texture/bottom/left/x;
#X obj 335 369 r /ev/pro/\$1/texture/bottom/left/y;
#X obj 457 393 r /ev/pro/\$1/texture/bottom/right/x;
#X obj 485 413 r /ev/pro/\$1/texture/bottom/right/y;
#X obj 90 -18 t b b;
#X obj 586 31 t l l l l;
#X msg 586 73 0 \$2;
#X msg 603 93 \$1 \$2;
#X msg 620 216 0 0;
#X msg 637 236 \$1 0;
#X obj 758 31 t f f;
#X obj 758 93 sel 0;
#X obj 327 188 spigot 1;
#X obj 177 188 spigot 1;
#X obj 117 243 list;
#X obj 117 265 list trim;
#X obj 267 243 list;
#X obj 267 265 list trim;
#X obj 758 435 t b;
#X obj 237 188 spigot 0;
#X obj 387 188 spigot 0;
#X obj 815 61 * -1;
#X obj 815 83 + 1;
#X obj 815 435 t f;
#X obj 785 435 t f;
#X obj 457 583 spigot 1;
#X obj 307 583 spigot 1;
#X obj 247 638 list;
#X obj 247 660 list trim;
#X obj 397 638 list;
#X obj 397 660 list trim;
#X obj 367 583 spigot 0;
#X obj 517 583 spigot 0;
#X msg 177 305 Ttl \$1 \$2;
#X msg 327 305 Ttr \$1 \$2;
#X msg 307 700 Tbl \$1 \$2;
#X msg 457 700 Tbr \$1 \$2;
#X obj 758 9 r /ev/pro/\$1/grid/tex/state;
#X obj 586 -13 r /ev/pro/\$1/grid/tex/texture_id;
#X msg 586 9 \$2 \$3;
#X connect 0 0 29 0;
#X connect 1 0 0 0;
#X connect 1 1 0 1;
#X connect 3 0 20 0;
#X connect 4 0 28 0;
#X connect 5 0 4 0;
#X connect 5 1 4 1;
#X connect 6 0 42 0;
#X connect 7 0 6 0;
#X connect 7 1 6 1;
#X connect 8 0 41 0;
#X connect 9 0 8 0;
#X connect 9 1 8 1;
#X connect 10 0 43 0;
#X connect 10 1 45 0;
#X connect 11 0 30 0;
#X connect 11 1 32 0;
#X connect 12 0 0 0;
#X connect 13 0 1 0;
#X connect 14 0 4 0;
#X connect 15 0 5 0;
#X connect 16 0 6 0;
#X connect 17 0 7 0;
#X connect 18 0 8 0;
#X connect 19 0 9 0;
#X connect 20 0 10 0;
#X connect 20 1 11 0;
#X connect 21 0 22 0;
#X connect 21 1 23 0;
#X connect 21 2 24 0;
#X connect 21 3 25 0;
#X connect 22 0 35 0;
#X connect 23 0 36 0;
#X connect 24 0 47 0;
#X connect 25 0 48 0;
#X connect 26 0 27 0;
#X connect 26 1 36 1;
#X connect 26 1 35 1;
#X connect 26 1 37 0;
#X connect 26 1 40 0;
#X connect 27 0 0 0;
#X connect 27 0 4 0;
#X connect 27 0 34 0;
#X connect 28 0 50 0;
#X connect 28 0 32 1;
#X connect 29 0 49 0;
#X connect 29 0 30 1;
#X connect 30 0 31 0;
#X connect 31 0 49 0;
#X connect 32 0 33 0;
#X connect 33 0 50 0;
#X connect 34 0 8 0;
#X connect 34 0 6 0;
#X connect 35 0 30 1;
#X connect 35 0 49 0;
#X connect 36 0 32 1;
#X connect 36 0 50 0;
#X connect 37 0 38 0;
#X connect 38 0 29 1;
#X connect 38 0 28 1;
#X connect 38 0 39 0;
#X connect 39 0 42 1;
#X connect 39 0 41 1;
#X connect 40 0 47 1;
#X connect 40 0 48 1;
#X connect 41 0 52 0;
#X connect 41 0 45 1;
#X connect 42 0 51 0;
#X connect 42 0 43 1;
#X connect 43 0 44 0;
#X connect 44 0 51 0;
#X connect 45 0 46 0;
#X connect 46 0 52 0;
#X connect 47 0 43 1;
#X connect 47 0 51 0;
#X connect 48 0 45 1;
#X connect 48 0 52 0;
#X connect 49 0 2 0;
#X connect 50 0 2 0;
#X connect 51 0 2 0;
#X connect 52 0 2 0;
#X connect 53 0 26 0;
#X connect 54 0 55 0;
#X connect 55 0 21 0;
#X coords 0 0 1 1 200 70 0;
#X restore 575 437 pd texture_position;
#N canvas 136 22 720 756 vertex_position 0;
#X obj 184 12 t b f;
#X obj 595 791 outlet;
#X obj 68 -50 inlet;
#X msg 160 144 Vtl \$1 \$2;
#X msg 160 695 Vbl \$1 \$2;
#X obj 160 -28 r /ev/pro/\$1/vertex/top/left/x;
#X obj 184 -8 r /ev/pro/\$1/vertex/top/left/y;
#X obj 340 52 r /ev/pro/\$1/vertex/top/right/x;
#X obj 358 72 r /ev/pro/\$1/vertex/top/right/y;
#X obj 358 92 t b f;
#X msg 340 144 Vtr \$1 \$2;
#X obj 160 519 r /ev/pro/\$1/vertex/bottom/left/x;
#X obj 188 539 r /ev/pro/\$1/vertex/bottom/left/y;
#X obj 188 559 t b f;
#X obj 268 599 t b f;
#X obj 268 52 t b f;
#X obj 107 12 t b b b;
#X msg 250 144 Vtc \$1 \$2;
#X obj 250 12 r /ev/pro/\$1/vertex/top/center/x;
#X obj 268 32 r /ev/pro/\$1/vertex/top/center/y;
#X obj 68 559 t b b b;
#X msg 320 695 Vbr \$1 \$2;
#X obj 320 599 r /ev/pro/\$1/vertex/bottom/right/x;
#X obj 348 619 r /ev/pro/\$1/vertex/bottom/right/y;
#X obj 348 639 t b f;
#X msg 240 695 Vbc \$1 \$2;
#X obj 240 559 r /ev/pro/\$1/vertex/bottom/center/x;
#X obj 268 579 r /ev/pro/\$1/vertex/bottom/center/y;
#X obj 188 281 t b f;
#X obj 368 361 t b f;
#X obj 278 321 t b f;
#X obj 87 281 t b b b;
#X msg 340 413 Vcr \$1 \$2;
#X msg 250 413 Vcc \$1 \$2;
#X msg 160 413 Vcl \$1 \$2;
#X obj 68 -28 t b b b;
#X obj 160 241 r /ev/pro/\$1/vertex/center/left/x;
#X obj 188 261 r /ev/pro/\$1/vertex/center/left/y;
#X obj 250 281 r /ev/pro/\$1/vertex/center/center/x;
#X obj 278 301 r /ev/pro/\$1/vertex/center/center/y;
#X obj 340 321 r /ev/pro/\$1/vertex/center/right/x;
#X obj 368 341 r /ev/pro/\$1/vertex/center/right/y;
#X obj 160 119 pack -1 1;
#X obj 250 119 pack 0 1;
#X obj 340 119 pack 1 1;
#X obj 160 388 pack -1 0;
#X obj 250 388 pack 0 0;
#X obj 340 388 pack 1 0;
#X obj 160 668 pack -1 -1;
#X obj 240 668 pack 0 -1;
#X obj 320 668 pack 1 -1;
#X obj 595 246 t a;
#X obj 595 516 t a;
#X connect 0 0 42 0;
#X connect 0 1 42 1;
#X connect 2 0 35 0;
#X connect 3 0 51 0;
#X connect 4 0 1 0;
#X connect 5 0 42 0;
#X connect 6 0 0 0;
#X connect 7 0 44 0;
#X connect 8 0 9 0;
#X connect 9 0 44 0;
#X connect 9 1 44 1;
#X connect 10 0 51 0;
#X connect 11 0 48 0;
#X connect 12 0 13 0;
#X connect 13 0 48 0;
#X connect 13 1 48 1;
#X connect 14 0 49 0;
#X connect 14 1 49 1;
#X connect 15 0 43 0;
#X connect 15 1 43 1;
#X connect 16 0 42 0;
#X connect 16 1 43 0;
#X connect 16 2 44 0;
#X connect 17 0 51 0;
#X connect 18 0 43 0;
#X connect 19 0 15 0;
#X connect 20 0 48 0;
#X connect 20 1 49 0;
#X connect 20 2 50 0;
#X connect 21 0 1 0;
#X connect 22 0 50 0;
#X connect 23 0 24 0;
#X connect 24 0 50 0;
#X connect 24 1 50 1;
#X connect 25 0 1 0;
#X connect 26 0 49 0;
#X connect 27 0 14 0;
#X connect 28 0 45 0;
#X connect 28 1 45 1;
#X connect 29 0 47 0;
#X connect 29 1 47 1;
#X connect 30 0 46 0;
#X connect 30 1 46 1;
#X connect 31 0 45 0;
#X connect 31 1 46 0;
#X connect 31 2 47 0;
#X connect 32 0 52 0;
#X connect 33 0 52 0;
#X connect 34 0 52 0;
#X connect 35 0 20 0;
#X connect 35 1 31 0;
#X connect 35 2 16 0;
#X connect 36 0 45 0;
#X connect 37 0 28 0;
#X connect 38 0 46 0;
#X connect 39 0 30 0;
#X connect 40 0 47 0;
#X connect 41 0 29 0;
#X connect 42 0 3 0;
#X connect 43 0 17 0;
#X connect 44 0 10 0;
#X connect 45 0 34 0;
#X connect 46 0 33 0;
#X connect 47 0 32 0;
#X connect 48 0 4 0;
#X connect 49 0 25 0;
#X connect 50 0 21 0;
#X connect 51 0 52 0;
#X connect 52 0 1 0;
#X coords 0 0 1 1 200 70 0;
#X restore 456 437 pd vertex_position;
#X obj 504 257 s /ev/pro/\$1/wall_init;
#X obj 609 208 r /ev/pro/\$1/wall_data;
#X obj 456 494 s /ev/pro/\$1/wall_data;
#X obj 455 355 r /ev/pro/\$1/wall_init;
#N canvas 234 112 556 451 nfp_curved_wall 0;
#X obj 64 311 pix_texture;
#X obj 64 27 alpha;
#X obj 64 339 mesh_square 50 50;
#N canvas 382 76 792 790 glsl 0;
#X obj 88 189 glsl_vertex;
#X msg 42 188 print;
#X obj 88 476 glsl_program;
#X obj 173 405 pack 0 0;
#X msg 40 326 print;
#X obj 173 361 change;
#X obj 160 208 change;
#X msg 173 429 link \$1 \$2;
#X msg 42 470 print;
#X obj 87 340 glsl_fragment;
#X floatatom 173 385 2 0 0 0 ID - -;
#X floatatom 160 231 2 0 0 0 ID - -;
#X obj 191 450 print linking;
#X obj 25 31 inlet;
#X obj 88 512 outlet;
#X obj 428 31 inlet;
#X obj 25 54 route bang;
#X obj 265 21 gemhead 1;
#X msg 265 43 1;
#X obj 265 67 change;
#X obj 265 91 t b;
#X obj 167 497 change;
#X obj 167 518 t b;
#X obj 168 540 outlet;
#X obj 100 276 symbol;
#X obj 100 251 t b;
#X msg 297 448 0;
#X obj 25 75 t b b b;
#X msg 128 157 open ev_pro_33.vert;
#X msg 100 303 open ev_pro_33.frag;
#X connect 0 0 9 0;
#X connect 0 1 6 0;
#X connect 1 0 0 0;
#X connect 2 0 14 0;
#X connect 2 1 21 0;
#X connect 3 0 7 0;
#X connect 4 0 9 0;
#X connect 5 0 10 0;
#X connect 6 0 11 0;
#X connect 6 0 25 0;
#X connect 7 0 2 0;
#X connect 7 0 12 0;
#X connect 8 0 2 0;
#X connect 9 0 2 0;
#X connect 9 1 5 0;
#X connect 10 0 3 0;
#X connect 11 0 3 1;
#X connect 13 0 16 0;
#X connect 15 0 2 0;
#X connect 16 0 27 0;
#X connect 16 1 0 0;
#X connect 17 0 18 0;
#X connect 18 0 19 0;
#X connect 19 0 20 0;
#X connect 20 0 28 0;
#X connect 21 0 22 0;
#X connect 22 0 23 0;
#X connect 24 0 29 0;
#X connect 25 0 24 0;
#X connect 26 0 21 0;
#X connect 27 0 26 0;
#X connect 27 1 10 0;
#X connect 27 2 28 0;
#X connect 28 0 0 0;
#X connect 29 0 9 0;
#X restore 64 79 pd glsl;
#X obj 360 20 inlet;
#X obj 359 146 outlet;
#X obj 127 179 r /ev/pro/\$1/texture_id;
#X obj 172 223 * -1;
#X obj 172 245 + 1;
#X obj 127 269 spigot 1;
#X obj 316 229 spigot 0;
#X obj 64 -36 inlet;
#X obj 361 201 r /ev/pro/\$1/grid/tex/state;
#X obj 316 179 r /ev/pro/\$1/grid/tex/texture_id;
#X obj 172 201 r /ev/pro/\$1/grid/tex/state;
#X connect 0 0 2 0;
#X connect 1 0 3 0;
#X connect 3 0 0 0;
#X connect 3 1 5 0;
#X connect 4 0 3 1;
#X connect 6 0 9 0;
#X connect 7 0 8 0;
#X connect 8 0 9 1;
#X connect 9 0 0 1;
#X connect 10 0 0 1;
#X connect 11 0 1 0;
#X connect 12 0 10 1;
#X connect 13 0 10 0;
#X connect 14 0 7 0;
#X restore 504 232 pd nfp_curved_wall;
#X msg 195 180 vis 1;
#X obj 50 85 cnv 15 750 16 empty empty EXTENDED_VIEW_3x3_PROJECTION_MODULE
20 8 0 14 -233017 -66577 0;
#N canvas 661 98 385 575 init 0;
#X obj 81 -256 loadbang;
#X obj 81 -234 del 1000;
#X msg 81 -175 \; /ev/pro/\$1/vertex/top/left/x -1 \; /ev/pro/\$1/vertex/top/left/y
1 \; /ev/pro/\$1/vertex/top/center/x 0 \; /ev/pro/\$1/vertex/top/center/y
1 \; /ev/pro/\$1/vertex/top/right/x 1 \; /ev/pro/\$1/vertex/top/right/y
1 \; /ev/pro/\$1/vertex/center/left/x -1 \; /ev/pro/\$1/vertex/center/left/y
0 \; /ev/pro/\$1/vertex/center/center/x 0 \; /ev/pro/\$1/vertex/center/center/y
0 \; /ev/pro/\$1/vertex/center/right/x 1 \; /ev/pro/\$1/vertex/center/right/y
0 \; /ev/pro/\$1/vertex/bottom/left/x -1 \; /ev/pro/\$1/vertex/bottom/left/y
-1 \; /ev/pro/\$1/vertex/bottom/center/x 0 \; /ev/pro/\$1/vertex/bottom/center/y
-1 \; /ev/pro/\$1/vertex/bottom/right/x 1 \; /ev/pro/\$1/vertex/bottom/right/y
-1 \; /ev/pro/\$1/texture/top/left/x 0 \; /ev/pro/\$1/texture/top/left/y
480 \; /ev/pro/\$1/texture/top/right/x 640 \; /ev/pro/\$1/texture/top/right/y
480 \; /ev/pro/\$1/texture/bottom/left/x 0 \; /ev/pro/\$1/texture/bottom/left/y
0 \; /ev/pro/\$1/texture/bottom/right/x 640 \; /ev/pro/\$1/texture/bottom/right/y
0 \; /ev/pro/\$1/shade/top 0 \; /ev/pro/\$1/shade/right 0 \; /ev/pro/\$1/shade/bottom
0 \; /ev/pro/\$1/shade/left 0 \; /ev/pro/\$1/state 1 \; /ev/pro/\$1/cursor/mode
2 \; /ev/pro/\$1/set_alpha 1 \; /ev/pro/\$1/texture/weight/x 0 \; /ev/pro/\$1/texture/weight/y
0 \;;
#X obj 81 -202 list append \$1;
#X connect 0 0 1 0;
#X connect 1 0 3 0;
#X connect 3 0 2 0;
#X restore 108 231 pd init;
#X obj 699 136 s /ev/pro/\$1/texture_id;
#N canvas 280 187 438 470 mouseover 0;
#X obj 34 37 abs/ev_mouseover_vertex /ev/pro/\$1 /top/left;
#X obj 34 57 abs/ev_mouseover_vertex /ev/pro/\$1 /top/center;
#X obj 34 77 abs/ev_mouseover_vertex /ev/pro/\$1 /top/right;
#X obj 34 97 abs/ev_mouseover_vertex /ev/pro/\$1 /center/left;
#X obj 34 117 abs/ev_mouseover_vertex /ev/pro/\$1 /center/center;
#X obj 34 137 abs/ev_mouseover_vertex /ev/pro/\$1 /center/right;
#X obj 34 157 abs/ev_mouseover_vertex /ev/pro/\$1 /bottom/left;
#X obj 34 177 abs/ev_mouseover_vertex /ev/pro/\$1 /bottom/center;
#X obj 34 197 abs/ev_mouseover_vertex /ev/pro/\$1 /bottom/right;
#X obj 34 247 abs/ev_mouseover_texture /ev/pro/\$1 /top/left;
#X obj 34 267 abs/ev_mouseover_texture /ev/pro/\$1 /top/right;
#X obj 34 287 abs/ev_mouseover_texture /ev/pro/\$1 /bottom/left;
#X obj 34 307 abs/ev_mouseover_texture /ev/pro/\$1 /bottom/right;
#X restore 78 184 pd mouseover;
#N canvas 418 22 663 729 storage_&_osc 0;
#X obj 40 11 ds_reg \$1 /ev/pro/\$1/vertex/top/left/x;
#X obj 40 31 ds_reg \$1 /ev/pro/\$1/vertex/top/left/y;
#X obj 40 51 ds_reg \$1 /ev/pro/\$1/vertex/top/right/x;
#X obj 40 71 ds_reg \$1 /ev/pro/\$1/vertex/top/right/y;
#X obj 40 91 ds_reg \$1 /ev/pro/\$1/vertex/bottom/left/x;
#X obj 40 111 ds_reg \$1 /ev/pro/\$1/vertex/bottom/left/y;
#X obj 40 131 ds_reg \$1 /ev/pro/\$1/vertex/bottom/right/x;
#X obj 40 151 ds_reg \$1 /ev/pro/\$1/vertex/bottom/right/y;
#X obj 40 171 ds_reg \$1 /ev/pro/\$1/vertex/top/center/x;
#X obj 40 191 ds_reg \$1 /ev/pro/\$1/vertex/top/center/y;
#X obj 40 211 ds_reg \$1 /ev/pro/\$1/vertex/center/left/x;
#X obj 40 231 ds_reg \$1 /ev/pro/\$1/vertex/center/left/y;
#X obj 40 251 ds_reg \$1 /ev/pro/\$1/vertex/center/center/x;
#X obj 40 271 ds_reg \$1 /ev/pro/\$1/vertex/center/center/y;
#X obj 40 291 ds_reg \$1 /ev/pro/\$1/vertex/center/right/x;
#X obj 40 311 ds_reg \$1 /ev/pro/\$1/vertex/center/right/y;
#X obj 40 331 ds_reg \$1 /ev/pro/\$1/vertex/bottom/center/x;
#X obj 40 351 ds_reg \$1 /ev/pro/\$1/vertex/bottom/center/y;
#X obj 40 371 ds_reg \$1 /ev/pro/\$1/texture/top/left/x;
#X obj 40 391 ds_reg \$1 /ev/pro/\$1/texture/top/left/y;
#X obj 40 411 ds_reg \$1 /ev/pro/\$1/texture/top/right/x;
#X obj 40 431 ds_reg \$1 /ev/pro/\$1/texture/top/right/y;
#X obj 40 451 ds_reg \$1 /ev/pro/\$1/texture/bottom/left/x;
#X obj 40 471 ds_reg \$1 /ev/pro/\$1/texture/bottom/left/y;
#X obj 40 491 ds_reg \$1 /ev/pro/\$1/texture/bottom/right/x;
#X obj 40 511 ds_reg \$1 /ev/pro/\$1/texture/bottom/right/y;
#X obj 40 531 ds_reg \$1 /ev/pro/\$1/shade/top;
#X obj 40 551 ds_reg \$1 /ev/pro/\$1/shade/right;
#X obj 40 571 ds_reg \$1 /ev/pro/\$1/shade/bottom;
#X obj 40 591 ds_reg \$1 /ev/pro/\$1/shade/left;
#X obj 310 11 osc_bi \$1 /ev/pro/\$1/vertex/top/left/x;
#X obj 310 31 osc_bi \$1 /ev/pro/\$1/vertex/top/left/y;
#X obj 309 51 osc_bi \$1 /ev/pro/\$1/vertex/top/right/x;
#X obj 310 71 osc_bi \$1 /ev/pro/\$1/vertex/top/right/y;
#X obj 310 91 osc_bi \$1 /ev/pro/\$1/vertex/bottom/left/x;
#X obj 310 111 osc_bi \$1 /ev/pro/\$1/vertex/bottom/left/y;
#X obj 310 131 osc_bi \$1 /ev/pro/\$1/vertex/bottom/right/x;
#X obj 310 151 osc_bi \$1 /ev/pro/\$1/vertex/bottom/right/y;
#X obj 310 171 osc_bi \$1 /ev/pro/\$1/vertex/top/center/x;
#X obj 310 191 osc_bi \$1 /ev/pro/\$1/vertex/top/center/y;
#X obj 310 211 osc_bi \$1 /ev/pro/\$1/vertex/center/left/x;
#X obj 310 231 osc_bi \$1 /ev/pro/\$1/vertex/center/left/y;
#X obj 310 251 osc_bi \$1 /ev/pro/\$1/vertex/center/center/x;
#X obj 310 271 osc_bi \$1 /ev/pro/\$1/vertex/center/center/y;
#X obj 310 291 osc_bi \$1 /ev/pro/\$1/vertex/center/right/x;
#X obj 310 311 osc_bi \$1 /ev/pro/\$1/vertex/center/right/y;
#X obj 310 331 osc_bi \$1 /ev/pro/\$1/vertex/bottom/center/x;
#X obj 310 351 osc_bi \$1 /ev/pro/\$1/vertex/bottom/center/y;
#X obj 310 371 osc_bi \$1 /ev/pro/\$1/texture/top/left/x;
#X obj 310 391 osc_bi \$1 /ev/pro/\$1/texture/top/left/y;
#X obj 310 411 osc_bi \$1 /ev/pro/\$1/texture/top/right/x;
#X obj 310 431 osc_bi \$1 /ev/pro/\$1/texture/top/right/y;
#X obj 310 451 osc_bi \$1 /ev/pro/\$1/texture/bottom/left/x;
#X obj 310 471 osc_bi \$1 /ev/pro/\$1/texture/bottom/left/y;
#X obj 310 491 osc_bi \$1 /ev/pro/\$1/texture/bottom/right/x;
#X obj 310 511 osc_bi \$1 /ev/pro/\$1/texture/bottom/right/y;
#X obj 310 531 osc_bi \$1 /ev/pro/\$1/shade/top;
#X obj 310 551 osc_bi \$1 /ev/pro/\$1/shade/right;
#X obj 310 571 osc_bi \$1 /ev/pro/\$1/shade/bottom;
#X obj 310 591 osc_bi \$1 /ev/pro/\$1/shade/left;
#X obj 310 611 osc_bi \$1 /ev/pro/\$1/state;
#X obj 310 631 osc_bi \$1 /ev/pro/\$1/cursor/mode;
#X obj 310 651 osc_bi \$1 /ev/pro/\$1/set_alpha;
#X obj 40 671 ds_reg \$1 /ev/pro/\$1/texture/weight/x;
#X obj 40 691 ds_reg \$1 /ev/pro/\$1/texture/weight/y;
#X obj 310 671 osc_bi \$1 /ev/pro/\$1/texture/weight/x;
#X obj 310 691 osc_bi \$1 /ev/pro/\$1/texture/weight/y;
#X obj 40 611 ds_reg \$1 /ev/pro/\$1/state nomorph;
#X obj 40 631 ds_reg \$1 /ev/pro/\$1/cursor/mode nomorph;
#X obj 40 651 ds_reg \$1 /ev/pro/\$1/set_alpha nomorph;
#X restore 54 209 pd storage_&_osc;
#X obj 699 109 inlet texture_id;
#X obj 465 111 inlet gemlist;
#X obj 504 209 separator;
#X obj 465 307 s /ev/pro/\$1/mouse/gemlist;
#X obj 465 183 t a a a;
#N canvas 213 97 560 493 alpha 0;
#X obj 125 366 outlet;
#X obj 48 112 inlet;
#X obj 48 135 t b;
#X msg 125 285 set_alpha \$1;
#X obj 125 262 f 1;
#X obj 125 135 r /ev/pro/\$1/set_alpha;
#X connect 1 0 2 0;
#X connect 2 0 4 0;
#X connect 3 0 0 0;
#X connect 4 0 3 0;
#X connect 5 0 4 0;
#X restore 699 407 pd alpha;
#N canvas 528 52 398 441 weight 0;
#X obj 148 243 t b f;
#X obj 120 331 outlet;
#X obj 67 70 inlet;
#X obj 67 101 t b;
#X msg 120 293 weight \$1 \$2;
#X obj 120 101 r /ev/pro/\$1/texture/weight/x;
#X obj 148 121 r /ev/pro/\$1/texture/weight/y;
#X obj 120 219 f 0;
#X obj 120 268 pack 0 0;
#X connect 0 0 8 0;
#X connect 0 1 8 1;
#X connect 2 0 3 0;
#X connect 3 0 7 0;
#X connect 4 0 1 0;
#X connect 5 0 7 0;
#X connect 6 0 0 0;
#X connect 7 0 8 0;
#X connect 8 0 4 0;
#X coords 0 0 1 1 200 70 0;
#X restore 699 467 pd weight;
#X obj 195 204 s pd-pro_\$1;
#N canvas 644 82 404 469 pro_\$1 1;
#X obj -8 0 cnv 15 215 450 empty empty settings 20 12 0 14 -228856
-66577 0;
#X obj 52 276 vsl 15 50 0.15 0 0 0 /ev/pro/\$1/shade/top /ev/pro/\$1/shade/top
top 18 6 0 10 -262130 -1 -1 4900 1;
#X obj 52 346 vsl 15 50 0 0.15 0 0 /ev/pro/\$1/shade/bottom /ev/pro/\$1/shade/bottom
bottom 18 47 0 10 -262130 -1 -1 0 1;
#X obj 70 329 hsl 50 15 0.15 0 0 0 /ev/pro/\$1/shade/right /ev/pro/\$1/shade/right
right 20 -8 0 10 -262130 -1 -1 4900 1;
#X obj 0 329 hsl 50 15 0 0.15 0 0 /ev/pro/\$1/shade/left /ev/pro/\$1/shade/left
left 2 -8 0 10 -262130 -1 -1 0 1;
#X obj 7 47 nbx 5 14 -10000 10000 0 0 /ev/pro/\$1/vertex/top/left/x
/ev/pro/\$1/vertex/top/left/x x -10 7 0 10 -261234 -1 -1 -1 256;
#X obj 7 63 nbx 5 14 -10000 10000 0 0 /ev/pro/\$1/vertex/top/left/y
/ev/pro/\$1/vertex/top/left/y y -10 7 0 10 -261234 -1 -1 1 256;
#X obj 147 47 nbx 5 14 -10000 10000 0 0 /ev/pro/\$1/vertex/top/right/x
/ev/pro/\$1/vertex/top/right/x x -10 7 0 10 -261234 -1 -1 1 256;
#X obj 147 63 nbx 5 14 -10000 10000 0 0 /ev/pro/\$1/vertex/top/right/y
/ev/pro/\$1/vertex/top/right/y y -10 7 0 10 -261234 -1 -1 1 256;
#X obj 7 119 nbx 5 14 -10000 10000 0 0 /ev/pro/\$1/vertex/bottom/left/x
/ev/pro/\$1/vertex/bottom/left/x x -10 7 0 10 -261234 -1 -1 -1 256
;
#X obj 7 135 nbx 5 14 -10000 10000 0 0 /ev/pro/\$1/vertex/bottom/left/y
/ev/pro/\$1/vertex/bottom/left/y y -10 7 0 10 -261234 -1 -1 -1 256
;
#X obj 147 119 nbx 5 14 -10000 10000 0 0 /ev/pro/\$1/vertex/bottom/right/x
/ev/pro/\$1/vertex/bottom/right/x x -10 7 0 10 -261234 -1 -1 1 256
;
#X obj 147 135 nbx 5 14 -10000 10000 0 0 /ev/pro/\$1/vertex/bottom/right/y
/ev/pro/\$1/vertex/bottom/right/y y -10 7 0 10 -261234 -1 -1 -1 256
;
#X obj 77 47 nbx 5 14 -10000 10000 0 0 /ev/pro/\$1/vertex/top/center/x
/ev/pro/\$1/vertex/top/center/x x -10 7 0 10 -261234 -1 -1 0 256;
#X obj 77 63 nbx 5 14 -10000 10000 0 0 /ev/pro/\$1/vertex/top/center/y
/ev/pro/\$1/vertex/top/center/y y -10 7 0 10 -261234 -1 -1 1 256;
#X obj 77 119 nbx 5 14 -10000 10000 0 0 /ev/pro/\$1/vertex/bottom/center/x
/ev/pro/\$1/vertex/bottom/center/x x -10 7 0 10 -261234 -1 -1 0 256
;
#X obj 77 135 nbx 5 14 -10000 10000 0 0 /ev/pro/\$1/vertex/bottom/center/y
/ev/pro/\$1/vertex/bottom/center/y y -10 7 0 10 -261234 -1 -1 -1 256
;
#X obj 7 83 nbx 5 14 -10000 10000 0 0 /ev/pro/\$1/vertex/center/left/x
/ev/pro/\$1/vertex/center/left/x x -10 7 0 10 -261234 -1 -1 -1 256
;
#X obj 7 99 nbx 5 14 -10000 10000 0 0 /ev/pro/\$1/vertex/center/left/y
/ev/pro/\$1/vertex/center/left/y y -10 7 0 10 -261234 -1 -1 0 256;
#X obj 77 83 nbx 5 14 -10000 10000 0 0 /ev/pro/\$1/vertex/center/center/x
/ev/pro/\$1/vertex/center/center/x x -10 7 0 10 -261234 -1 -1 0 256
;
#X obj 77 99 nbx 5 14 -10000 10000 0 0 /ev/pro/\$1/vertex/center/center/y
/ev/pro/\$1/vertex/center/center/y y -10 7 0 10 -261234 -1 -1 0 256
;
#X obj 147 83 nbx 5 14 -10000 10000 0 0 /ev/pro/\$1/vertex/center/right/x
/ev/pro/\$1/vertex/center/right/x x -10 7 0 10 -261234 -1 -1 1 256
;
#X obj 147 99 nbx 5 14 -10000 10000 0 0 /ev/pro/\$1/vertex/center/right/y
/ev/pro/\$1/vertex/center/right/y y -10 7 0 10 -261234 -1 -1 0 256
;
#X text -3 25 vertex position;
#X text -5 153 texture position (px);
#X text -4 249 shade size;
#X obj 212 0 cnv 15 170 145 empty empty rendered_grid 20 12 0 14 -233017
-66577 0;
#X obj 251 66 nbx 3 14 1 360 0 0 /ev/pro/\$1/grid/res/x /ev/pro/\$1/grid/res/x
x -8 8 0 10 -203904 -1 -1 16 256;
#X obj 251 82 nbx 3 14 1 360 0 0 /ev/pro/\$1/grid/res/y /ev/pro/\$1/grid/res/y
y -8 8 0 10 -203904 -1 -1 16 256;
#X obj 226 28 tgl 15 1 /ev/pro/\$1/grid/state /ev/pro/\$1/grid/state
state 17 7 0 10 -4034 -1 -1 0 1;
#X text 219 48 Resolution:;
#X obj 224 123 hsl 64 15 1 7 0 0 /ev/pro/\$1/grid/width /ev/pro/\$1/grid/width
line_width -2 -8 0 10 -261682 -1 -1 1050 1;
#X obj 300 48 vsl 15 64 0 1 0 0 /ev/pro/\$1/grid/color/h /ev/pro/\$1/grid/color/h
H 5 74 0 10 -262144 -1 -1 5855 1;
#X obj 320 48 vsl 15 64 0 1 0 0 /ev/pro/\$1/grid/color/s /ev/pro/\$1/grid/color/s
S 5 74 0 10 -262144 -1 -1 3780 1;
#X obj 340 48 vsl 15 64 0 1 0 0 /ev/pro/\$1/grid/color/v /ev/pro/\$1/grid/color/v
V 5 74 0 10 -262144 -1 -1 6300 1;
#X obj 360 48 vsl 15 64 0 1 0 0 /ev/pro/\$1/grid/color/a /ev/pro/\$1/grid/color/a
A 5 74 0 10 -262144 -1 -1 3780 1;
#X obj 212 150 cnv 15 170 120 empty empty grid_texture 20 12 0 14 -233017
-66577 0;
#X obj 225 178 tgl 15 1 /ev/pro/\$1/grid/tex/state /ev/pro/\$1/grid/tex/state
state 17 7 0 10 -4034 -1 -1 0 1;
#X obj 225 200 bng 15 250 50 0 /ev/pro/\$1/grid/tex/open /ev/pro/\$1/grid/tex/open
open_new_file 17 7 0 10 -262130 -1 -1;
#X obj 225 218 bng 15 250 50 0 /ev/pro/\$1/grid/tex/load /ev/pro/\$1/grid/tex/load
reload 17 7 0 10 -204800 -1 -1;
#X obj 272 247 tgl 15 0 /ev/pro/\$1/grid/tex/flip/horizontal /ev/pro/\$1/grid/tex/flip/horizontal
<-> 17 7 0 10 -204786 -1 -1 0 1;
#X obj 308 247 tgl 15 0 /ev/pro/\$1/grid/tex/flip/vertical /ev/pro/\$1/grid/tex/flip/vertical
^v 17 7 0 10 -204786 -1 -1 0 1;
#X text 239 247 flip:;
#X text 320 29 COLOR;
#X obj 212 276 cnv 15 170 125 empty empty cursor_interaction 20 12
0 14 -233017 -66577 0;
#X obj 228 317 vradio 15 1 0 5 /ev/pro/\$1/cursor/mode /ev/pro/\$1/cursor/mode
cursor_mode 0 -8 0 10 -262144 -1 -1 2;
#X text 245 316 off;
#X text 245 332 vertex mouseover;
#X text 245 347 vertex permanent;
#X text 245 362 texture mouseover;
#X text 245 377 texture permanent;
#X text 88 248 perspective weight;
#X obj 176 287 vsl 15 128 -0.9 0.9 0 0 /ev/pro/\$1/texture/weight/y
/ev/pro/\$1/texture/weight/y y -18 6 0 10 -232576 -1 -1 3150 1;
#X obj 61 422 hsl 128 15 -0.9 0.9 0 0 /ev/pro/\$1/texture/weight/x
/ev/pro/\$1/texture/weight/x x 20 -8 0 10 -232576 -1 -1 3150 1;
#X obj -1 422 nbx 5 14 -1e+37 1e+37 0 0 /ev/pro/\$1/texture/weight/x
/ev/pro/\$1/texture/weight/x empty 0 -8 0 10 -232576 -1 -1 0 256;
#X obj 138 267 nbx 5 14 -1e+37 1e+37 0 0 /ev/pro/\$1/texture/weight/y
/ev/pro/\$1/texture/weight/y empty 0 -8 0 10 -232576 -1 -1 0 256;
#X obj 7 173 nbx 5 14 -1e+37 1e+37 0 0 /ev/pro/\$1/texture/top/left/x
/ev/pro/\$1/texture/top/left/x x -10 7 0 10 -204800 -1 -1 0 256;
#X obj 7 189 nbx 5 14 -1e+37 1e+37 0 0 /ev/pro/\$1/texture/top/left/y
/ev/pro/\$1/texture/top/left/y y -10 7 0 10 -204800 -1 -1 480 256;
#X obj 77 173 nbx 5 14 -1e+37 1e+37 0 0 /ev/pro/\$1/texture/top/right/x
/ev/pro/\$1/texture/top/right/x x -10 7 0 10 -204800 -1 -1 640 256
;
#X obj 77 189 nbx 5 14 -1e+37 1e+37 0 0 /ev/pro/\$1/texture/top/right/y
/ev/pro/\$1/texture/top/right/y y -10 7 0 10 -204800 -1 -1 480 256
;
#X obj 7 209 nbx 5 14 -1e+37 1e+37 0 0 /ev/pro/\$1/texture/bottom/left/x
/ev/pro/\$1/texture/bottom/left/x x -10 7 0 10 -204800 -1 -1 0 256
;
#X obj 7 225 nbx 5 14 -1e+37 1e+37 0 0 /ev/pro/\$1/texture/bottom/left/y
/ev/pro/\$1/texture/bottom/left/y y -10 7 0 10 -204800 -1 -1 0 256
;
#X obj 77 209 nbx 5 14 -1e+37 1e+37 0 0 /ev/pro/\$1/texture/bottom/right/x
/ev/pro/\$1/texture/bottom/right/x x -10 7 0 10 -204800 -1 -1 640 256
;
#X obj 77 225 nbx 5 14 -1e+37 1e+37 0 0 /ev/pro/\$1/texture/bottom/right/y
/ev/pro/\$1/texture/bottom/right/y y -10 7 0 10 -204800 -1 -1 0 256
;
#X obj 212 406 cnv 15 170 44 empty empty alpha 20 12 0 14 -233017 -66577
0;
#X obj 218 430 tgl 15 0 /ev/pro/\$1/set_alpha /ev/pro/\$1/set_alpha
set_alpha_to_'1' 17 7 0 10 -262144 -1 -1 0 1;
#X coords 0 0 1 1 155 300 0;
#X restore 195 229 pd pro_\$1;
#X obj 54 360 cnv 15 360 60 empty empty inlets/outlets 5 8 0 12 -233017
-66577 0;
#X text 58 396 Inlet 2: texture ID;
#X text 58 380 Inlet 1: gemlist;
#X obj 54 292 cnv 15 360 60 empty empty creation_arguments: 3 8 0 12
-191407 -1 0;
#X text 59 311 1st: module ID \, needs to be unique \; 2nd: storage
domain \, see [ev_storage-help] for details;
#X obj 498 133 r /ev/pro/\$1/state;
#X obj 465 161 spigot;
#X obj 48 254 abs/ev_pro_grid \$1 \$2;
#X obj 484 284 abs/ev_pro_grid33 \$1 \$2;
#X obj 59 437 loadbang;
#X msg 59 459 (c)2011 Cyrille Henry | Peter Venus | Marian Weger \,
part of EXTENDED VIEW toolkit | gpl v3;
#X obj 59 494 print ev_pro_33;
#X connect 1 0 11 0;
#X connect 3 0 8 0;
#X connect 4 0 8 0;
#X connect 5 0 8 0;
#X connect 7 0 10 1;
#X connect 9 0 3 0;
#X connect 9 0 5 0;
#X connect 9 0 4 0;
#X connect 9 0 22 0;
#X connect 9 0 23 0;
#X connect 10 0 6 0;
#X connect 11 0 24 0;
#X connect 17 0 14 0;
#X connect 18 0 32 0;
#X connect 19 0 10 0;
#X connect 21 0 20 0;
#X connect 21 1 34 0;
#X connect 21 2 19 0;
#X connect 22 0 8 0;
#X connect 23 0 8 0;
#X connect 31 0 32 1;
#X connect 32 0 21 0;
#X connect 35 0 36 0;
#X connect 36 0 37 0;
#X coords 0 -1 1 1 200 50 1 100 117;
