#N canvas 87 170 841 695 10;
#N canvas 209 22 785 752 vert2tex 0;
#X obj 24 402 s /ev/pro/\$1/texture/top/left/x;
#X obj 79 382 s /ev/pro/\$1/texture/top/left/y;
#X obj 79 81 change;
#X obj 24 81 change;
#X obj 24 39 r /ev/texhelper/\$1/vertex/top/left/x;
#X obj 79 59 r /ev/texhelper/\$1/vertex/top/left/y;
#X obj 137 81 r \$0-dimen;
#X obj 24 233 + 4;
#X obj 24 255 / 8;
#X obj 24 297 * 640;
#X obj 79 233 + 4;
#X obj 79 255 / 8;
#X obj 79 297 * 640;
#X msg 94 137 \$2 \$1;
#X obj 94 159 /;
#X obj 419 81 change;
#X obj 364 81 change;
#X obj 477 81 r \$0-dimen;
#X obj 364 233 + 4;
#X obj 364 255 / 8;
#X obj 364 297 * 640;
#X obj 419 233 + 4;
#X obj 419 255 / 8;
#X obj 419 297 * 640;
#X msg 434 137 \$2 \$1;
#X obj 434 159 /;
#X obj 364 39 r /ev/texhelper/\$1/vertex/top/right/x;
#X obj 419 59 r /ev/texhelper/\$1/vertex/top/right/y;
#X obj 419 382 s /ev/pro/\$1/texture/top/right/y;
#X obj 364 402 s /ev/pro/\$1/texture/top/right/x;
#X obj 79 501 change;
#X obj 24 501 change;
#X obj 137 501 r \$0-dimen;
#X obj 24 653 + 4;
#X obj 24 675 / 8;
#X obj 24 717 * 640;
#X obj 79 653 + 4;
#X obj 79 675 / 8;
#X obj 79 717 * 640;
#X msg 94 557 \$2 \$1;
#X obj 94 579 /;
#X obj 419 501 change;
#X obj 364 501 change;
#X obj 477 501 r \$0-dimen;
#X obj 364 653 + 4;
#X obj 364 675 / 8;
#X obj 364 717 * 640;
#X obj 419 653 + 4;
#X obj 419 675 / 8;
#X obj 419 717 * 640;
#X msg 434 557 \$2 \$1;
#X obj 434 579 /;
#X obj 24 459 r /ev/texhelper/\$1/vertex/bottom/left/x;
#X obj 79 479 r /ev/texhelper/\$1/vertex/bottom/left/y;
#X obj 79 802 s /ev/pro/\$1/texture/bottom/left/y;
#X obj 24 822 s /ev/pro/\$1/texture/bottom/left/x;
#X obj 364 459 r /ev/texhelper/\$1/vertex/bottom/right/x;
#X obj 419 479 r /ev/texhelper/\$1/vertex/bottom/right/y;
#X obj 419 802 s /ev/pro/\$1/texture/bottom/right/y;
#X obj 364 822 s /ev/pro/\$1/texture/bottom/right/x;
#X obj 94 181 * 4;
#X obj 434 181 * 4;
#X obj 94 601 * 4;
#X obj 434 601 * 4;
#X obj 24 319 max 0;
#X obj 24 361 min 640;
#X obj 164 265 unpack f f;
#X obj 164 319 t f;
#X obj 79 319 max 0;
#X obj 221 319 t f;
#X obj 79 361 min 480;
#X obj 364 319 max 0;
#X obj 364 361 min 640;
#X obj 504 319 t f;
#X obj 419 319 max 0;
#X obj 561 319 t f;
#X obj 419 361 min 480;
#X obj 504 265 unpack f f;
#X obj 24 739 max 0;
#X obj 24 781 min 640;
#X obj 164 739 t f;
#X obj 79 739 max 0;
#X obj 221 739 t f;
#X obj 79 781 min 480;
#X obj 364 739 max 0;
#X obj 364 781 min 640;
#X obj 504 739 t f;
#X obj 419 739 max 0;
#X obj 561 739 t f;
#X obj 419 781 min 480;
#X obj 164 685 unpack f f;
#X obj 504 685 unpack f f;
#X obj 137 103 t a a;
#X obj 477 103 t a a;
#X obj 137 523 t a a;
#X obj 477 523 t a a;
#X connect 2 0 10 0;
#X connect 3 0 7 0;
#X connect 4 0 3 0;
#X connect 5 0 2 0;
#X connect 6 0 92 0;
#X connect 7 0 8 0;
#X connect 8 0 9 0;
#X connect 9 0 64 0;
#X connect 10 0 11 0;
#X connect 11 0 12 0;
#X connect 12 0 68 0;
#X connect 13 0 14 0;
#X connect 14 0 60 0;
#X connect 15 0 21 0;
#X connect 16 0 18 0;
#X connect 17 0 93 0;
#X connect 18 0 19 0;
#X connect 19 0 20 0;
#X connect 20 0 71 0;
#X connect 21 0 22 0;
#X connect 22 0 23 0;
#X connect 23 0 74 0;
#X connect 24 0 25 0;
#X connect 25 0 61 0;
#X connect 26 0 16 0;
#X connect 27 0 15 0;
#X connect 30 0 36 0;
#X connect 31 0 33 0;
#X connect 32 0 94 0;
#X connect 33 0 34 0;
#X connect 34 0 35 0;
#X connect 35 0 78 0;
#X connect 36 0 37 0;
#X connect 37 0 38 0;
#X connect 38 0 81 0;
#X connect 39 0 40 0;
#X connect 40 0 62 0;
#X connect 41 0 47 0;
#X connect 42 0 44 0;
#X connect 43 0 95 0;
#X connect 44 0 45 0;
#X connect 45 0 46 0;
#X connect 46 0 84 0;
#X connect 47 0 48 0;
#X connect 48 0 49 0;
#X connect 49 0 87 0;
#X connect 50 0 51 0;
#X connect 51 0 63 0;
#X connect 52 0 31 0;
#X connect 53 0 30 0;
#X connect 56 0 42 0;
#X connect 57 0 41 0;
#X connect 60 0 10 1;
#X connect 61 0 21 1;
#X connect 62 0 36 1;
#X connect 63 0 47 1;
#X connect 64 0 65 0;
#X connect 65 0 0 0;
#X connect 66 0 9 1;
#X connect 66 0 12 1;
#X connect 66 0 67 0;
#X connect 66 1 69 0;
#X connect 67 0 65 1;
#X connect 68 0 70 0;
#X connect 69 0 70 1;
#X connect 70 0 1 0;
#X connect 71 0 72 0;
#X connect 72 0 29 0;
#X connect 73 0 72 1;
#X connect 74 0 76 0;
#X connect 75 0 76 1;
#X connect 76 0 28 0;
#X connect 77 0 23 1;
#X connect 77 0 20 1;
#X connect 77 0 73 0;
#X connect 77 1 75 0;
#X connect 78 0 79 0;
#X connect 79 0 55 0;
#X connect 80 0 79 1;
#X connect 81 0 83 0;
#X connect 82 0 83 1;
#X connect 83 0 54 0;
#X connect 84 0 85 0;
#X connect 85 0 59 0;
#X connect 86 0 85 1;
#X connect 87 0 89 0;
#X connect 88 0 89 1;
#X connect 89 0 58 0;
#X connect 90 0 38 1;
#X connect 90 0 35 1;
#X connect 90 0 80 0;
#X connect 90 1 82 0;
#X connect 91 0 49 1;
#X connect 91 0 46 1;
#X connect 91 0 86 0;
#X connect 91 1 88 0;
#X connect 92 0 13 0;
#X connect 92 1 66 0;
#X connect 93 0 24 0;
#X connect 93 1 77 0;
#X connect 94 0 39 0;
#X connect 94 1 90 0;
#X connect 95 0 50 0;
#X connect 95 1 91 0;
#X restore 305 231 pd vert2tex;
#X obj 101 115 cnv 15 198 22 empty empty empty 20 12 0 14 -233017 -66577
0;
#X msg 105 152 vis 1;
#X obj 105 119 bng 15 250 50 0 empty empty settings 17 7 0 10 -159808
-1 -1;
#N canvas 208 249 532 366 init 0;
#X obj 51 -166 loadbang;
#X obj 51 18 list append \$1;
#X obj 24 -2 bng 15 250 50 0 empty empty empty 17 7 0 10 -262144 -1
-1;
#X obj 51 -24 del 3000;
#X obj 145 -32 gemhead;
#X obj 145 -8 t b b;
#X msg 196 -5 0;
#X msg 51 45 \; /ev/pro/\$1/texture/top/left/x/resend bang \; /ev/pro/\$1/texture/top/left/y/resend
bang \; /ev/pro/\$1/texture/top/right/x/resend bang \; /ev/pro/\$1/texture/top/right/y/resend
bang \; /ev/pro/\$1/texture/bottom/left/x/resend bang \; /ev/pro/\$1/texture/bottom/left/y/resend
bang \; /ev/pro/\$1/texture/bottom/right/x/resend bang \; /ev/pro/\$1/texture/bottom/right/y/resend
bang \;;
#X msg 102 -102 \; /ev/texhelper/\$1/state 1 \;;
#X text 199 -29 get coordinates again \, when rendering has started
;
#X obj 102 -127 list append \$1;
#X connect 0 0 3 0;
#X connect 0 0 10 0;
#X connect 1 0 7 0;
#X connect 2 0 1 0;
#X connect 3 0 1 0;
#X connect 4 0 5 0;
#X connect 5 0 3 0;
#X connect 5 1 6 0;
#X connect 6 0 4 0;
#X connect 10 0 8 0;
#X restore 305 207 pd init;
#N canvas 383 54 386 203 mouseover 0;
#X obj 48 42 abs/ev_mouseover_texhelper /ev/texhelper/\$1 /top/left
;
#X obj 48 62 abs/ev_mouseover_texhelper /ev/texhelper/\$1 /top/right
;
#X obj 48 82 abs/ev_mouseover_texhelper /ev/texhelper/\$1 /bottom/left
;
#X obj 48 102 abs/ev_mouseover_texhelper /ev/texhelper/\$1 /bottom/right
;
#X restore 305 184 pd mouseover;
#X obj 183 119 tgl 15 1 /ev/texhelper/\$1/state /ev/texhelper/\$1/state
on/off 17 7 0 10 -4034 -1 -1 1 1;
#X obj 105 176 s pd-tex_\$1;
#N canvas 487 82 184 118 tex_\$1 0;
#X obj -7 -3 cnv 15 170 100 empty empty empty 20 12 0 14 -228856 -262144
0;
#X obj 8 20 nbx 5 14 0 100000 0 0 /ev/pro/\$1/texture/top/left/x /ev/pro/\$1/texture/top/left/x
x -10 7 0 10 -204800 -1 -1 0 256;
#X obj 8 36 nbx 5 14 0 100000 0 0 /ev/pro/\$1/texture/top/left/y /ev/pro/\$1/texture/top/left/y
y -10 7 0 10 -204800 -1 -1 480 256;
#X obj 78 20 nbx 5 14 0 100000 0 0 /ev/pro/\$1/texture/top/right/x
/ev/pro/\$1/texture/top/right/x x -10 7 0 10 -204800 -1 -1 640 256
;
#X obj 78 36 nbx 5 14 0 100000 0 0 /ev/pro/\$1/texture/top/right/y
/ev/pro/\$1/texture/top/right/y y -10 7 0 10 -204800 -1 -1 480 256
;
#X obj 8 56 nbx 5 14 0 100000 0 0 /ev/pro/\$1/texture/bottom/left/x
/ev/pro/\$1/texture/bottom/left/x x -10 7 0 10 -204800 -1 -1 0 256
;
#X obj 8 72 nbx 5 14 0 100000 0 0 /ev/pro/\$1/texture/bottom/left/y
/ev/pro/\$1/texture/bottom/left/y y -10 7 0 10 -204800 -1 -1 0 256
;
#X obj 78 56 nbx 5 14 0 100000 0 0 /ev/pro/\$1/texture/bottom/right/x
/ev/pro/\$1/texture/bottom/right/x x -10 7 0 10 -204800 -1 -1 640 256
;
#X obj 78 72 nbx 5 14 0 100000 0 0 /ev/pro/\$1/texture/bottom/right/y
/ev/pro/\$1/texture/bottom/right/y y -10 7 0 10 -204800 -1 -1 0 256
;
#X text -4 2 texture position (Pixel);
#X coords 0 0 1 1 155 300 0;
#X restore 105 198 pd tex_\$1;
#N canvas 521 112 808 616 tex2vert 0;
#X obj 24 39 r /ev/pro/\$1/texture/top/left/x;
#X obj 69 59 r /ev/pro/\$1/texture/top/left/y;
#X obj 69 250 s /ev/texhelper/\$1/vertex/top/left/y;
#X obj 24 270 s /ev/texhelper/\$1/vertex/top/left/x;
#X obj 96 81 r \$0-dimen;
#X obj 24 171 / 640;
#X obj 24 193 * 8;
#X obj 69 193 * 8;
#X obj 69 171 / 640;
#X obj 24 223 - 4;
#X obj 69 223 - 4;
#X obj 154 171 /;
#X msg 154 143 \$2 \$1;
#X obj 426 81 r \$0-dimen;
#X obj 354 171 / 640;
#X obj 354 193 * 8;
#X obj 399 193 * 8;
#X obj 399 171 / 640;
#X obj 354 223 - 4;
#X obj 399 223 - 4;
#X obj 484 171 /;
#X msg 484 143 \$2 \$1;
#X obj 354 39 r /ev/pro/\$1/texture/top/right/x;
#X obj 399 59 r /ev/pro/\$1/texture/top/right/y;
#X obj 399 250 s /ev/texhelper/\$1/vertex/top/right/y;
#X obj 354 270 s /ev/texhelper/\$1/vertex/top/right/x;
#X obj 96 381 r \$0-dimen;
#X obj 24 471 / 640;
#X obj 24 493 * 8;
#X obj 69 493 * 8;
#X obj 69 471 / 640;
#X obj 24 523 - 4;
#X obj 69 523 - 4;
#X obj 154 471 /;
#X msg 154 443 \$2 \$1;
#X obj 426 381 r \$0-dimen;
#X obj 354 471 / 640;
#X obj 354 493 * 8;
#X obj 399 493 * 8;
#X obj 399 471 / 640;
#X obj 354 523 - 4;
#X obj 399 523 - 4;
#X obj 484 471 /;
#X msg 484 443 \$2 \$1;
#X obj 24 339 r /ev/pro/\$1/texture/bottom/left/x;
#X obj 69 359 r /ev/pro/\$1/texture/bottom/left/y;
#X obj 69 550 s /ev/texhelper/\$1/vertex/bottom/left/y;
#X obj 24 570 s /ev/texhelper/\$1/vertex/bottom/left/x;
#X obj 354 339 r /ev/pro/\$1/texture/bottom/right/x;
#X obj 399 359 r /ev/pro/\$1/texture/bottom/right/y;
#X obj 399 550 s /ev/texhelper/\$1/vertex/bottom/right/y;
#X obj 354 570 s /ev/texhelper/\$1/vertex/bottom/right/x;
#X obj 96 143 unpack f;
#X obj 426 143 unpack f;
#X obj 96 443 unpack f;
#X obj 426 443 unpack f;
#X obj 154 193 * 4;
#X obj 484 193 * 4;
#X obj 154 493 * 4;
#X obj 484 493 * 4;
#X obj 96 103 t b a a;
#X obj 426 103 t b a a;
#X obj 426 403 t b a a;
#X obj 96 403 t b a a;
#X connect 0 0 5 0;
#X connect 1 0 8 0;
#X connect 4 0 60 0;
#X connect 5 0 6 0;
#X connect 6 0 9 0;
#X connect 7 0 10 0;
#X connect 8 0 7 0;
#X connect 9 0 3 0;
#X connect 10 0 2 0;
#X connect 11 0 56 0;
#X connect 12 0 11 0;
#X connect 13 0 61 0;
#X connect 14 0 15 0;
#X connect 15 0 18 0;
#X connect 16 0 19 0;
#X connect 17 0 16 0;
#X connect 18 0 25 0;
#X connect 19 0 24 0;
#X connect 20 0 57 0;
#X connect 21 0 20 0;
#X connect 22 0 14 0;
#X connect 23 0 17 0;
#X connect 26 0 63 0;
#X connect 27 0 28 0;
#X connect 28 0 31 0;
#X connect 29 0 32 0;
#X connect 30 0 29 0;
#X connect 31 0 47 0;
#X connect 32 0 46 0;
#X connect 33 0 58 0;
#X connect 34 0 33 0;
#X connect 35 0 62 0;
#X connect 36 0 37 0;
#X connect 37 0 40 0;
#X connect 38 0 41 0;
#X connect 39 0 38 0;
#X connect 40 0 51 0;
#X connect 41 0 50 0;
#X connect 42 0 59 0;
#X connect 43 0 42 0;
#X connect 44 0 27 0;
#X connect 45 0 30 0;
#X connect 48 0 36 0;
#X connect 49 0 39 0;
#X connect 52 0 5 1;
#X connect 52 0 8 1;
#X connect 53 0 14 1;
#X connect 53 0 17 1;
#X connect 54 0 27 1;
#X connect 54 0 30 1;
#X connect 55 0 36 1;
#X connect 55 0 39 1;
#X connect 56 0 10 1;
#X connect 57 0 19 1;
#X connect 58 0 32 1;
#X connect 59 0 41 1;
#X connect 60 1 52 0;
#X connect 60 2 12 0;
#X connect 61 1 53 0;
#X connect 61 2 21 0;
#X connect 62 1 55 0;
#X connect 62 2 43 0;
#X connect 63 1 54 0;
#X connect 63 2 34 0;
#X restore 305 251 pd tex2vert;
#N canvas 123 218 545 323 coordinates 0;
#X obj 176 301 outlet;
#N canvas 1 111 173 130 pak 0;
#X obj 73 39 t b f;
#X obj 38 19 inlet;
#X obj 38 90 outlet;
#X obj 73 19 inlet;
#X obj 38 69 pack f f 0;
#X connect 0 0 4 0;
#X connect 0 1 4 1;
#X connect 1 0 4 0;
#X connect 3 0 0 0;
#X connect 4 0 2 0;
#X restore 11 72 pd pak f f f;
#N canvas 0 22 173 130 pak 0;
#X obj 73 39 t b f;
#X obj 38 19 inlet;
#X obj 38 90 outlet;
#X obj 73 19 inlet;
#X obj 38 69 pack f f 0;
#X connect 0 0 4 0;
#X connect 0 1 4 1;
#X connect 1 0 4 0;
#X connect 3 0 0 0;
#X connect 4 0 2 0;
#X restore 11 172 pd pak f f f;
#N canvas 0 22 173 130 pak 0;
#X obj 73 39 t b f;
#X obj 38 19 inlet;
#X obj 38 90 outlet;
#X obj 73 19 inlet;
#X obj 38 69 pack f f 0;
#X connect 0 0 4 0;
#X connect 0 1 4 1;
#X connect 1 0 4 0;
#X connect 3 0 0 0;
#X connect 4 0 2 0;
#X restore 271 72 pd pak f f f;
#N canvas 0 22 173 130 pak 0;
#X obj 73 39 t b f;
#X obj 38 19 inlet;
#X obj 38 90 outlet;
#X obj 73 19 inlet;
#X obj 38 69 pack f f 0;
#X connect 0 0 4 0;
#X connect 0 1 4 1;
#X connect 1 0 4 0;
#X connect 3 0 0 0;
#X connect 4 0 2 0;
#X restore 271 172 pd pak f f f;
#X obj 11 13 r /ev/texhelper/\$1/vertex/top/left/x;
#X obj 11 123 r /ev/texhelper/\$1/vertex/bottom/left/x;
#X obj 22 145 r /ev/texhelper/\$1/vertex/bottom/left/y;
#X obj 22 35 r /ev/texhelper/\$1/vertex/top/left/y;
#X obj 271 13 r /ev/texhelper/\$1/vertex/top/right/x;
#X obj 282 35 r /ev/texhelper/\$1/vertex/top/right/y;
#X obj 271 123 r /ev/texhelper/\$1/vertex/bottom/right/x;
#X obj 282 145 r /ev/texhelper/\$1/vertex/bottom/right/y;
#X msg 11 93 0 0 \$1 \$2 0;
#X msg 292 93 0 1 \$1 \$2 0;
#X msg 19 235 1 0 \$1 \$2 0;
#X msg 272 237 1 1 \$1 \$2 0;
#X connect 1 0 13 0;
#X connect 2 0 15 0;
#X connect 3 0 14 0;
#X connect 4 0 16 0;
#X connect 5 0 1 0;
#X connect 6 0 2 0;
#X connect 7 0 2 1;
#X connect 8 0 1 1;
#X connect 9 0 3 0;
#X connect 10 0 3 1;
#X connect 11 0 4 0;
#X connect 12 0 4 1;
#X connect 13 0 0 0;
#X connect 14 0 0 0;
#X connect 15 0 0 0;
#X connect 16 0 0 0;
#X restore 704 393 pd coordinates;
#X obj 475 139 r /ev/texhelper/\$1/state;
#X obj 54 45 cnv 15 650 16 empty empty EXTENDED_VIEW_TEXTURE_HELPER_MODULE
20 8 0 14 -233017 -66577 0;
#X obj 54 322 cnv 15 270 30 empty empty creation_arguments 5 8 0 12
-128992 -1 0;
#X obj 54 358 cnv 15 270 60 empty empty inlets/outlets 5 8 0 12 -233017
-66577 0;
#X text 60 432 (c)2011 Marian Weger /part of EXTENDED VIEW toolkit/
gpl v3;
#X text 57 334 1st: ID of corresponding projection module;
#X obj 54 65 cnv 15 650 16 empty empty empty 20 8 0 14 -262130 -66577
0;
#X text 56 64 Gui tool to select texture positions of projection modules
;
#X text 411 64 graphically and intuitive.;
#X obj 442 100 inlet gemlist;
#X obj 469 232 separator;
#X obj 442 492 s /ev/texhelper/\$1/mouse/gemlist;
#X obj 442 172 spigot;
#X obj 442 202 t a a;
#X obj 469 439 outlet gemlist;
#X obj 618 198 r /ev/pro/\$1/texture_id;
#X obj 618 220 unpack f f f;
#X obj 642 333 s \$0-dimen;
#X obj 642 307 pack f f;
#X obj 687 279 t b f;
#X obj 642 252 change;
#X obj 687 252 change;
#N canvas 218 86 272 275 ctl 0;
#X obj 83 198 s \$0-curve3d;
#X obj 83 100 loadbang;
#X msg 83 126 draw line \, grid 8 8;
#X connect 1 0 2 0;
#X connect 2 0 0 0;
#X restore 546 372 pd ctl;
#X obj 704 415 list prepend set;
#X obj 704 437 list trim;
#X obj 704 459 s \$0-curve3d;
#X obj 469 372 curve3d 2 2;
#X obj 488 342 r \$0-curve3d;
#X obj 469 299 color 1 1 1 1;
#N canvas 1 55 450 389 color 0;
#X obj 165 254 unpack 0 0 0;
#X obj 165 316 pack 0 0 0 1;
#N canvas 0 22 450 300 hsv2rgb 0;
#X obj 187 84 route 0;
#X msg 187 56 \$2 \$3 \$1;
#X obj 187 409 f;
#X obj 231 111 unpack 0 0 0;
#X text 250 71 svh;
#X obj 187 28 inlet hsv;
#X obj 187 520 outlet rgb;
#X obj 401 149 * 6;
#X obj 380 196 % 6;
#X obj 350 173 t f f;
#X msg 350 149 0;
#X text 406 196 i;
#X obj 350 219 -;
#X obj 231 217 *;
#X obj 231 178 - 1;
#X obj 231 198 * -1;
#X obj 263 330 *;
#X obj 263 291 - 1;
#X obj 263 311 * -1;
#X obj 263 269 *;
#X obj 350 240 t f f;
#X obj 380 262 - 1;
#X obj 380 283 * -1;
#X obj 302 356 *;
#X obj 302 317 - 1;
#X obj 302 337 * -1;
#X obj 302 295 *;
#X obj 231 151 t f f f;
#X obj 241 392 pack 0 0 0 0;
#N canvas 387 255 646 315 select 0;
#X obj 290 37 inlet;
#X obj 16 247 outlet;
#X obj 92 104 t b l;
#X obj 125 128 unpack 0 0 0 0;
#X obj 89 43 inlet p q t v;
#X obj 92 128 i;
#X obj 92 151 select 0 1 2 3 4 5;
#X obj 16 223 pack 0 0 0;
#X obj 16 203 f;
#X obj 96 223 pack 0 0 0;
#X obj 96 203 f;
#X obj 176 223 pack 0 0 0;
#X obj 176 203 f;
#X obj 256 223 pack 0 0 0;
#X obj 256 203 f;
#X obj 336 223 pack 0 0 0;
#X obj 336 203 f;
#X obj 416 223 pack 0 0 0;
#X obj 416 203 f;
#X connect 0 0 5 1;
#X connect 2 0 5 0;
#X connect 2 1 3 0;
#X connect 3 0 7 2;
#X connect 3 0 9 2;
#X connect 3 0 12 1;
#X connect 3 0 14 1;
#X connect 3 0 15 1;
#X connect 3 0 17 1;
#X connect 3 1 10 1;
#X connect 3 1 13 1;
#X connect 3 1 17 2;
#X connect 3 2 7 1;
#X connect 3 2 11 2;
#X connect 3 2 16 1;
#X connect 3 3 8 1;
#X connect 3 3 9 1;
#X connect 3 3 11 1;
#X connect 3 3 13 2;
#X connect 3 3 15 2;
#X connect 3 3 18 1;
#X connect 4 0 2 0;
#X connect 5 0 6 0;
#X connect 6 0 8 0;
#X connect 6 1 10 0;
#X connect 6 2 12 0;
#X connect 6 3 14 0;
#X connect 6 4 16 0;
#X connect 6 5 18 0;
#X connect 7 0 1 0;
#X connect 8 0 7 0;
#X connect 9 0 1 0;
#X connect 10 0 9 0;
#X connect 11 0 1 0;
#X connect 12 0 11 0;
#X connect 13 0 1 0;
#X connect 14 0 13 0;
#X connect 15 0 1 0;
#X connect 16 0 15 0;
#X connect 17 0 1 0;
#X connect 18 0 17 0;
#X restore 241 416 pd select;
#X msg 187 478 \$1 \$1 \$1;
#X obj 187 450 clip 0 1;
#X obj 231 131 clip 0 1;
#X obj 270 173 clip 0 1;
#X obj 350 109 clip 0 1;
#X obj 350 129 select 1;
#X connect 0 0 2 0;
#X connect 0 1 3 0;
#X connect 1 0 0 0;
#X connect 2 0 31 0;
#X connect 3 0 32 0;
#X connect 3 1 33 0;
#X connect 3 2 34 0;
#X connect 5 0 1 0;
#X connect 7 0 9 0;
#X connect 8 0 12 1;
#X connect 8 0 29 1;
#X connect 9 0 12 0;
#X connect 9 1 8 0;
#X connect 10 0 9 0;
#X connect 12 0 20 0;
#X connect 13 0 28 0;
#X connect 14 0 15 0;
#X connect 15 0 13 0;
#X connect 16 0 28 1;
#X connect 17 0 18 0;
#X connect 18 0 16 0;
#X connect 19 0 17 0;
#X connect 20 0 19 1;
#X connect 20 1 21 0;
#X connect 21 0 22 0;
#X connect 22 0 26 1;
#X connect 23 0 28 2;
#X connect 24 0 25 0;
#X connect 25 0 23 0;
#X connect 26 0 24 0;
#X connect 27 0 14 0;
#X connect 27 1 19 0;
#X connect 27 2 26 0;
#X connect 28 0 29 0;
#X connect 29 0 6 0;
#X connect 30 0 6 0;
#X connect 31 0 30 0;
#X connect 32 0 27 0;
#X connect 33 0 13 1;
#X connect 33 0 28 3;
#X connect 33 0 16 1;
#X connect 33 0 23 1;
#X connect 34 0 35 0;
#X connect 35 0 10 0;
#X connect 35 1 7 0;
#X restore 165 232 pd hsv2rgb;
#X obj 165 338 outlet;
#X obj 165 205 pack 0 0 1;
#X obj 166 73 loadbang;
#X obj 166 95 t b b;
#X obj 166 137 random 256;
#X obj 236 137 random 256;
#X obj 166 159 / 255;
#X obj 236 159 / 255;
#X connect 0 0 1 0;
#X connect 0 1 1 1;
#X connect 0 2 1 2;
#X connect 1 0 3 0;
#X connect 2 0 0 0;
#X connect 4 0 2 0;
#X connect 5 0 6 0;
#X connect 6 0 7 0;
#X connect 6 1 8 0;
#X connect 7 0 9 0;
#X connect 8 0 10 0;
#X connect 9 0 4 0;
#X connect 10 0 4 1;
#X restore 544 273 pd color;
#X text 58 378 Inlet 1: GEMlist;
#X text 58 391 Outlet 1: GEMlist;
#X connect 2 0 7 0;
#X connect 3 0 2 0;
#X connect 10 0 34 0;
#X connect 11 0 23 1;
#X connect 20 0 23 0;
#X connect 21 0 39 0;
#X connect 23 0 24 0;
#X connect 24 0 22 0;
#X connect 24 1 21 0;
#X connect 26 0 27 0;
#X connect 27 1 31 0;
#X connect 27 2 32 0;
#X connect 29 0 28 0;
#X connect 30 0 29 0;
#X connect 30 1 29 1;
#X connect 31 0 29 0;
#X connect 32 0 30 0;
#X connect 34 0 35 0;
#X connect 35 0 36 0;
#X connect 37 0 25 0;
#X connect 38 0 37 0;
#X connect 39 0 37 0;
#X connect 40 0 39 1;
#X coords 0 -1 1 1 200 41 1 100 100;
