#N canvas 395 50 630 530 10;
#N canvas 458 191 445 318 init 0;
#X obj 81 -186 loadbang;
#X obj 81 -162 list append \$1;
#X obj 60 -184 bng 15 250 50 0 empty empty empty 17 7 0 10 -262144
-1 -1;
#X msg 81 -135 \; /ev/base/\$1/state 1 \; /ev/base/\$1/parameter/1
0 \; /ev/base/\$1/parameter/2 0 \; /ev/base/\$1/parameter/3 0 \; /ev/base/\$1/parameter/4
0 \; /ev/base/\$1/parameter/5 0 \; /ev/base/\$1/parameter/6 0 \; /ev/base/\$1/parameter/7
0 \; /ev/base/\$1/parameter/8 0;
#X text 38 -244 In here \, all parameters get initialised with a starting
value. Add variables and change their init value in this list:;
#X connect 0 0 1 0;
#X connect 1 0 3 0;
#X connect 2 0 1 0;
#X restore 323 27 pd init;
#N canvas 45 192 841 403 storage_&_osc 0;
#X obj 43 118 ds_reg \$2 /ev/base/\$1/parameter/1;
#X obj 463 118 osc_bi \$2 /ev/base/\$1/parameter/1;
#X obj 43 138 ds_reg \$2 /ev/base/\$1/parameter/2;
#X obj 43 158 ds_reg \$2 /ev/base/\$1/parameter/3;
#X obj 43 178 ds_reg \$2 /ev/base/\$1/parameter/4;
#X obj 43 198 ds_reg \$2 /ev/base/\$1/parameter/5;
#X obj 43 218 ds_reg \$2 /ev/base/\$1/parameter/6;
#X obj 43 238 ds_reg \$2 /ev/base/\$1/parameter/7;
#X obj 43 258 ds_reg \$2 /ev/base/\$1/parameter/8;
#X obj 463 138 osc_bi \$2 /ev/base/\$1/parameter/2;
#X obj 463 158 osc_bi \$2 /ev/base/\$1/parameter/3;
#X obj 463 178 osc_bi \$2 /ev/base/\$1/parameter/4;
#X obj 463 198 osc_bi \$2 /ev/base/\$1/parameter/5;
#X obj 463 218 osc_bi \$2 /ev/base/\$1/parameter/6;
#X obj 463 238 osc_bi \$2 /ev/base/\$1/parameter/7;
#X obj 463 258 osc_bi \$2 /ev/base/\$1/parameter/8;
#X obj 463 278 osc_bi \$2 /ev/base/\$1/state;
#X obj 43 358 ds_reg \$2 /ev/base/\$1/state nomorph;
#X text 28 14 In this subpatch \, all parameters are registered to
the preset management system and osc communication.;
#X text 28 64 For every parameter that needs state saving \, a [ds_reg]
abstraction must be created. See [ev_storage-help] for more information.
;
#X text 27 289 As the "state" parameter of is only a toggle \, it makes
no sense to fade it between two values. The "nomorph" argument disables
scene morphing for this specific parameter permanently.;
#X text 445 18 To enable osc comminication for a variable \, there
are three [osc_...] abstractions available:;
#X text 445 48 [osc_in] for receiving OSC messages;
#X text 445 61 [osc_out] for sending OSC messages;
#X text 445 75 [osc_bi] for bidirectional OSC communication without
feedback.;
#X restore 212 27 pd storage_&_osc;
#X obj 11 66 cnv 15 358 65 empty empty empty 20 12 0 14 -13381 -66577
0;
#X obj 45 72 hsl 80 10 0 1 0 0 /ev/base/\$1/parameter/1 /ev/base/\$1/parameter/1
empty -2 -8 0 10 -262144 -258113 -1 7900 1;
#X obj 131 71 nbx 5 12 0 1 0 0 /ev/base/\$1/parameter/1 /ev/base/\$1/parameter/1
1 58 7 0 10 -262144 -1 -4034 1 256;
#X obj 45 87 hsl 80 10 0 1 0 0 /ev/base/\$1/parameter/2 /ev/base/\$1/parameter/2
empty -2 -8 0 10 -262144 -258113 -1 7900 1;
#X obj 131 86 nbx 5 12 0 1 0 0 /ev/base/\$1/parameter/2 /ev/base/\$1/parameter/2
2 58 7 0 10 -262144 -1 -4034 1 256;
#X obj 45 102 hsl 80 10 0 1 0 0 /ev/base/\$1/parameter/3 /ev/base/\$1/parameter/3
empty -2 -8 0 10 -262144 -258113 -1 7900 1;
#X obj 131 101 nbx 5 12 0 1 0 0 /ev/base/\$1/parameter/3 /ev/base/\$1/parameter/3
3 58 7 0 10 -262144 -1 -4034 1 256;
#X obj 45 117 hsl 80 10 0 1 0 0 /ev/base/\$1/parameter/4 /ev/base/\$1/parameter/4
empty -2 -8 0 10 -262144 -258113 -1 7900 1;
#X obj 131 116 nbx 5 12 0 1 0 0 /ev/base/\$1/parameter/4 /ev/base/\$1/parameter/4
4 58 7 0 10 -262144 -1 -4034 1 256;
#X obj 215 72 hsl 80 10 0 1 0 0 /ev/base/\$1/parameter/5 /ev/base/\$1/parameter/5
empty -2 -8 0 10 -262144 -258113 -1 0 1;
#X obj 301 71 nbx 5 12 0 1 0 0 /ev/base/\$1/parameter/5 /ev/base/\$1/parameter/5
5 58 7 0 10 -262144 -1 -4034 0 256;
#X obj 215 87 hsl 80 10 0 1 0 0 /ev/base/\$1/parameter/6 /ev/base/\$1/parameter/6
empty -2 -8 0 10 -262144 -258113 -1 0 1;
#X obj 301 86 nbx 5 12 0 1 0 0 /ev/base/\$1/parameter/6 /ev/base/\$1/parameter/6
6 58 7 0 10 -262144 -1 -4034 0 256;
#X obj 215 102 hsl 80 10 0 1 0 0 /ev/base/\$1/parameter/7 /ev/base/\$1/parameter/7
empty -2 -8 0 10 -262144 -258113 -1 0 1;
#X obj 301 101 nbx 5 12 0 1 0 0 /ev/base/\$1/parameter/7 /ev/base/\$1/parameter/7
7 58 7 0 10 -262144 -1 -4034 0 256;
#X obj 215 117 hsl 80 10 0 1 0 0 /ev/base/\$1/parameter/8 /ev/base/\$1/parameter/8
empty -2 -8 0 10 -262144 -258113 -1 0 1;
#X obj 301 116 nbx 5 12 0 1 0 0 /ev/base/\$1/parameter/8 /ev/base/\$1/parameter/8
8 58 7 0 10 -262144 -1 -4034 0 256;
#X obj 18 72 tgl 15 0 /ev/base/\$1/state /ev/base/\$1/state O/1 0 23
0 10 -4034 -1 -262144 1 1;
#X obj 375 7 cnv 15 235 110 empty empty how_to: 3 8 0 12 -233017 -66577
0;
#X text 375 94 all controls are normalised from 0 to 1;
#X text 375 48 this container \, save it under another \; name and
enjoy instant storage and \; transition-features of EVT :);
#X obj 375 127 cnv 15 235 360 empty empty send_n_recieves_for_controller-values
3 8 0 10 -203904 -66577 0;
#X obj 396 163 r /ev/base/\$1/parameter/2;
#X obj 406 183 r /ev/base/\$1/parameter/3;
#X obj 416 203 r /ev/base/\$1/parameter/4;
#X obj 426 223 r /ev/base/\$1/parameter/5;
#X obj 436 243 r /ev/base/\$1/parameter/6;
#X obj 446 263 r /ev/base/\$1/parameter/7;
#X obj 456 283 r /ev/base/\$1/parameter/8;
#X obj 456 320 s /ev/base/\$1/parameter/1;
#X obj 446 340 s /ev/base/\$1/parameter/2;
#X obj 436 360 s /ev/base/\$1/parameter/3;
#X obj 426 380 s /ev/base/\$1/parameter/4;
#X obj 416 400 s /ev/base/\$1/parameter/5;
#X obj 406 420 s /ev/base/\$1/parameter/6;
#X obj 396 440 s /ev/base/\$1/parameter/7;
#X obj 386 460 s /ev/base/\$1/parameter/8;
#X obj 386 143 r /ev/base/\$1/parameter/1;
#X obj 124 176 r /ev/base/\$1/state;
#X obj 10 -17 cnv 15 600 18 empty empty EXTENDED_VIEW_MODULE-BASE 3
10 0 14 -99865 -262144 0;
#X text 92 453 (c)2012 Peter Venus & Marian Weger \; /part of EXTENDED
VIEW toolkit/ gpl v3;
#X text 11 6 to be used as template for own EVT addons;
#X text 385 297 ____________________________________;
#X obj 91 201 spigot;
#X text 141 201 (bypass);
#X text 376 35 Build new compatible modules around;
#X text 100 302 (put some processing here);
#X obj 91 154 inlet gemlist;
#X obj 91 420 outlet outlet;
#X connect 40 0 45 1;
#X connect 45 0 50 0;
#X connect 49 0 45 0;
#X coords 0 -1 1 1 360 85 1 10 50;
