#N canvas 486 22 763 748 10;
#X obj 469 663 loadbang;
#X msg 469 693 draw line;
#X obj 369 643 + 1;
#X obj 101 115 cnv 15 198 55 empty empty empty 20 12 0 14 -228856 -66577
0;
#X obj 253 132 nbx 3 14 1 360 0 0 /ev/grid/\$1/grid/res/x /ev/grid/\$1/grid/res/x
x -8 8 0 10 -203904 -1 -1 1 256;
#X obj 253 148 nbx 3 14 1 360 0 0 /ev/grid/\$1/grid/res/y /ev/grid/\$1/grid/res/y
y -8 8 0 10 -203904 -1 -1 1 256;
#X obj 349 480 separator;
#X obj 349 554 color 1 1 1;
#X obj 349 583 rotateXYZ 0 0 90;
#X msg 369 668 gridY \$1;
#X obj 105 132 tgl 15 1 /ev/grid/\$1/grid/state /ev/grid/\$1/grid/state
grid 17 7 0 10 -4160 -1 -1 1 1;
#X obj 105 152 tgl 15 0 /ev/grid/\$1/labeling/state /ev/grid/\$1/labeling/state
degree_labeling 17 7 0 10 -4032 -1 -1 0 1;
#X obj 170 132 nbx 3 14 0 1e+07 0 0 /ev/grid/\$1/size /ev/grid/\$1/size
size 0 -7 0 10 -261682 -1 -1 0 256;
#X obj 349 748 mesh_square 3 3;
#X obj 346 343 spigot;
#X obj 569 320 spigot;
#X obj 346 248 t a a;
#X obj 346 157 separator;
#X obj 346 220 scaleXYZ 1 1 1;
#X obj 346 123 inlet;
#X obj 385 186 r /ev/grid/\$1/size;
#X obj 602 294 r /ev/grid/\$1/grid/state;
#X obj 379 319 r /ev/grid/\$1/labeling/state;
#X obj 349 436 t a a;
#X obj 589 643 + 1;
#X obj 569 480 separator;
#X obj 569 554 color 1 1 1;
#X msg 589 668 gridY \$1;
#X obj 569 748 mesh_square 3 3;
#X obj 569 583 rotateXYZ 0 0 0;
#N canvas 66 109 1276 756 labeling 0;
#X obj -211 102 separator;
#X obj -91 102 separator;
#X obj -91 131 translateXYZ 1 0 0;
#X obj 39 102 separator;
#X obj 39 131 translateXYZ -1 0 0;
#X obj -661 402 separator;
#X obj -661 549 color 1 1 0;
#X obj -531 402 separator;
#X obj -531 549 color 1 1 0;
#X obj -661 431 translateXYZ 0.5 0 0;
#X obj -531 431 translateXYZ -0.5 0 0;
#X obj -391 402 separator;
#X obj -251 402 separator;
#X obj -111 402 separator;
#X obj 29 402 separator;
#X obj -391 431 translateXYZ 0.25 0 0;
#X obj -251 431 translateXYZ 0.75 0 0;
#X obj -111 431 translateXYZ -0.25 0 0;
#X obj 29 431 translateXYZ -0.75 0 0;
#X obj -211 179 color 0 0 1;
#X obj -391 549 color 1 1 0;
#X obj -251 549 color 1 1 0;
#X obj -111 549 color 1 1 0;
#X obj 29 549 color 1 1 0;
#X obj -91 249 color 0 1 0;
#X obj 39 249 color 0 1 0;
#X obj -391 575 rectangle 0.0025 1;
#X obj -251 575 rectangle 0.0025 1;
#X obj -111 575 rectangle 0.0025 1;
#X obj 29 575 rectangle 0.0025 1;
#X obj -531 575 rectangle 0.0025 1;
#X obj -661 575 rectangle 0.0025 1;
#X obj 39 275 rectangle 0.0025 1;
#X obj -91 275 rectangle 0.0025 1;
#X obj -368 -70 inlet;
#X obj -368 -41 t a a;
#X obj -368 334 t a a a a a a;
#X obj 306 349 r /ev/grid/\$1/labeling/size;
#X obj 211 189 r /ev/grid/\$1/labeling/border/color;
#X obj 229 486 r /ev/grid/\$1/labeling/mark/color;
#X obj 211 148 r /ev/grid/\$1/labeling/zero/color;
#X obj -169 14 t a a a;
#X obj -211 205 rectangle 0.0025 1;
#X obj -211 235 rectangle 1 0.0025;
#X connect 0 0 19 0;
#X connect 1 0 2 0;
#X connect 2 0 24 0;
#X connect 3 0 4 0;
#X connect 4 0 25 0;
#X connect 5 0 9 0;
#X connect 6 0 31 0;
#X connect 7 0 10 0;
#X connect 8 0 30 0;
#X connect 9 0 6 0;
#X connect 10 0 8 0;
#X connect 11 0 15 0;
#X connect 12 0 16 0;
#X connect 13 0 17 0;
#X connect 14 0 18 0;
#X connect 15 0 20 0;
#X connect 16 0 21 0;
#X connect 17 0 22 0;
#X connect 18 0 23 0;
#X connect 19 0 42 0;
#X connect 20 0 26 0;
#X connect 21 0 27 0;
#X connect 22 0 28 0;
#X connect 23 0 29 0;
#X connect 24 0 33 0;
#X connect 25 0 32 0;
#X connect 34 0 35 0;
#X connect 35 0 36 0;
#X connect 35 1 41 0;
#X connect 36 0 5 0;
#X connect 36 1 7 0;
#X connect 36 2 11 0;
#X connect 36 3 12 0;
#X connect 36 4 13 0;
#X connect 36 5 14 0;
#X connect 37 0 32 1;
#X connect 37 0 33 1;
#X connect 37 0 29 1;
#X connect 37 0 28 1;
#X connect 37 0 27 1;
#X connect 37 0 26 1;
#X connect 37 0 30 1;
#X connect 37 0 31 1;
#X connect 37 0 42 1;
#X connect 37 0 43 2;
#X connect 38 0 25 1;
#X connect 38 0 24 1;
#X connect 39 0 23 1;
#X connect 39 0 22 1;
#X connect 39 0 21 1;
#X connect 39 0 20 1;
#X connect 39 0 8 1;
#X connect 39 0 6 1;
#X connect 40 0 19 1;
#X connect 41 0 0 0;
#X connect 41 1 1 0;
#X connect 41 2 3 0;
#X connect 42 0 43 0;
#X restore 346 379 pd labeling;
#X obj 412 513 r /ev/grid/\$1/grid/color;
#X obj 369 616 r /ev/grid/\$1/grid/res/x;
#X obj 589 616 r /ev/grid/\$1/grid/res/y;
#X text 334 100 inlet 1: gemlist;
#X obj 45 78 cnv 15 700 16 empty empty EXTENDED_VIEW_GRID_MODULE 20
8 0 14 -233017 -66577 0;
#X obj 47 198 cnv 15 164 80 empty empty gui_controls 5 8 0 12 -204800
-66577 0;
#X text 50 213 grid: toggles grid on/off;
#X text 50 225 labeling: toggles colored;
#X text 98 237 orientation lines;
#X text 51 249 segments x/y: determines;
#X text 63 259 the number of segments;
#N canvas 35 194 385 575 init 0;
#X obj 81 -256 loadbang;
#X msg 81 -205 \; /ev/grid/\$1/size 3 \; /ev/grid/\$1/grid/state 1
\; /ev/grid/\$1/grid/res/x 2 \; /ev/grid/\$1/grid/res/y 2 \; /ev/grid/\$1/grid/color
1 1 1 \; /ev/grid/\$1/labeling/state 0 \; /ev/grid/\$1/labeling/zero/color
0 0 1 \; /ev/grid/\$1/labeling/border/color 0 1 0 \; /ev/grid/\$1/labeling/mark/color
1 1 0 \; /ev/grid/\$1/labeling/size 0.0025 \;;
#X obj 81 -232 list append \$1;
#X connect 0 0 2 0;
#X connect 2 0 1 0;
#X restore 509 137 pd init;
#X obj 47 286 cnv 15 200 60 empty empty creation_arguments 5 8 0 14
-162280 -66577 0;
#X text 51 303 1st: module ID;
#X obj 47 363 cnv 15 200 60 empty empty inlets/outlets 5 8 0 14 -233017
-66577 0;
#X text 51 378 Inlet: GEMlist;
#N canvas 339 140 722 278 storage_&_osc 0;
#X obj 375 33 osc_bi \$2 /ev/grid/\$1/size;
#X obj 375 53 osc_bi \$2 /ev/grid/\$1/grid/state;
#X obj 375 73 osc_bi \$2 /ev/grid/\$1/grid/res/x;
#X obj 375 93 osc_bi \$2 /ev/grid/\$1/grid/res/y;
#X obj 375 113 osc_bi \$2 /ev/grid/\$1/grid/color;
#X obj 375 133 osc_bi \$2 /ev/grid/\$1/labeling/state;
#X obj 375 153 osc_bi \$2 /ev/grid/\$1/labeling/zero/color;
#X obj 375 173 osc_bi \$2 /ev/grid/\$1/labeling/border/color;
#X obj 375 193 osc_bi \$2 /ev/grid/\$1/labeling/mark/color;
#X obj 375 213 osc_bi \$2 /ev/grid/\$1/labeling/size;
#X obj 55 53 ds_reg \$2 /ev/grid/\$1/grid/state nomorph;
#X obj 55 33 ds_reg \$2 /ev/grid/\$1/size nomorph;
#X obj 55 73 ds_reg \$2 /ev/grid/\$1/grid/res/x nomorph;
#X obj 55 93 ds_reg \$2 /ev/grid/\$1/grid/res/y nomorph;
#X obj 55 113 ds_reg \$2 /ev/grid/\$1/grid/color nomorph;
#X obj 55 133 ds_reg \$2 /ev/grid/\$1/labeling/state nomorph;
#X obj 55 153 ds_reg \$2 /ev/grid/\$1/labeling/zero/color nomorph;
#X obj 55 173 ds_reg \$2 /ev/grid/\$1/labeling/border/color nomorph
;
#X obj 55 193 ds_reg \$2 /ev/grid/\$1/labeling/mark/color nomorph;
#X obj 55 213 ds_reg \$2 /ev/grid/\$1/labeling/size nomorph;
#X restore 493 105 pd storage_&_osc;
#X text 228 117 resolution;
#X text 51 321 2nd: storage domain;
#X text 534 195 (c)2011 Marian Weger / Peter Venus \; /part of EXTENDED
VIEW toolkit/ gpl v3;
#X connect 0 0 1 0;
#X connect 1 0 13 0;
#X connect 1 0 28 0;
#X connect 2 0 9 0;
#X connect 6 0 7 0;
#X connect 7 0 8 0;
#X connect 8 0 13 0;
#X connect 9 0 13 0;
#X connect 14 0 30 0;
#X connect 15 0 23 0;
#X connect 16 0 14 0;
#X connect 16 1 15 0;
#X connect 17 0 18 0;
#X connect 18 0 16 0;
#X connect 19 0 17 0;
#X connect 20 0 18 2;
#X connect 20 0 18 1;
#X connect 21 0 15 1;
#X connect 22 0 14 1;
#X connect 23 0 6 0;
#X connect 23 1 25 0;
#X connect 24 0 27 0;
#X connect 25 0 26 0;
#X connect 26 0 29 0;
#X connect 27 0 28 0;
#X connect 29 0 28 0;
#X connect 31 0 7 1;
#X connect 31 0 26 1;
#X connect 32 0 2 0;
#X connect 33 0 24 0;
#X coords 0 -1 1 1 200 75 1 100 100;
