#N canvas 108 209 1137 756 10;
#X obj 211 315 cnv 15 358 60 empty empty empty 20 12 0 14 -162280 -66577
0;
#X obj 384 330 tgl 15 0 /ev/gemwin/border /ev/gemwin/border border
0 -7 0 10 -203904 -1 -1 1 1;
#X obj 280 350 nbx 5 14 -1e+037 1e+037 0 0 /ev/gemwin/offset/y /ev/gemwin/offset/y
empty -8 8 0 10 -261682 -1 -1 0 256;
#X obj 221 331 nbx 5 14 -1e+037 1e+037 0 0 /ev/gemwin/dimen/x /ev/gemwin/dimen/x
x -8 8 0 10 -262130 -1 -1 800 256;
#X obj 221 350 nbx 5 14 -1e+037 1e+037 0 0 /ev/gemwin/dimen/y /ev/gemwin/dimen/y
y -8 8 0 10 -262130 -1 -1 600 256;
#X obj 280 331 nbx 5 14 -1e+037 1e+037 0 0 /ev/gemwin/offset/x /ev/gemwin/offset/x
empty -8 8 0 10 -261682 -1 -1 0 256;
#X obj -17 44 cnv 15 800 16 empty empty EXTENDED_VIEW_GEM_WINDOW_MODULE
20 8 0 14 -233017 -66577 0;
#X obj 456 97 cnv 15 360 40 empty empty creation_arguments 5 8 0 12
-128992 -66577 0;
#X obj 456 142 cnv 15 360 60 empty empty inlets/outlets 5 8 0 12 -233017
-66577 0;
#N canvas 918 67 377 353 init 0;
#X obj 91 24 loadbang;
#X msg 91 54 \; /ev/gemwin/dimen/x 800 \; /ev/gemwin/dimen/y 600 \;
/ev/gemwin/offset/x 0 \; /ev/gemwin/offset/y 0 \; /ev/gemwin/frame
25 \; /ev/gemwin/border 1 \; /ev/gemwin/lighting 0 \; /ev/mouse/select_radius
0.15 \; /ev/mouse/texture/sensitivity 50 \;;
#X connect 0 0 1 0;
#X restore 714 320 pd init;
#N canvas 247 136 746 486 storage_&_osc 0;
#X obj 363 229 osc_r \$1 /ev/gemwin/create;
#X obj 363 249 osc_r \$1 /ev/gemwin/destroy;
#X obj 363 39 osc_r \$1 /ev/gemwin/dimen/x;
#X obj 363 59 osc_r \$1 /ev/gemwin/dimen/y;
#X obj 363 79 osc_r \$1 /ev/gemwin/offset/x;
#X obj 363 99 osc_r \$1 /ev/gemwin/offset/y;
#X obj 363 119 osc_r \$1 /ev/gemwin/frame;
#X obj 363 159 osc_r \$1 /ev/gemwin/lighting;
#X obj 363 189 osc_r \$1 /ev/gemwin/border;
#X obj 103 39 ds_reg \$1 /ev/gemwin/dimen/x nomorph;
#X obj 103 59 ds_reg \$1 /ev/gemwin/dimen/y nomorph;
#X obj 103 79 ds_reg \$1 /ev/gemwin/offset/x nomorph;
#X obj 103 99 ds_reg \$1 /ev/gemwin/offset/y nomorph;
#X obj 103 119 ds_reg \$1 /ev/gemwin/frame nomorph;
#X obj 103 159 ds_reg \$1 /ev/gemwin/lighting nomorph;
#X obj 103 189 ds_reg \$1 /ev/gemwin/border nomorph;
#X obj 103 299 ds_reg \$1 /ev/mouse/select_radius nomorph;
#X obj 103 319 ds_reg \$1 /ev/mouse/texture/sensitivity nomorph;
#X restore 709 350 pd storage_&_osc;
#X text 219 314 dimen:;
#X text 278 314 offset:;
#X obj 428 330 tgl 15 0 /ev/gemwin/lighting /ev/gemwin/lighting lighting
0 -7 0 10 -262130 -1 -1 0 30;
#X obj 588 347 gemwin 25;
#X msg 161 439 frame \$1;
#X obj 361 844 unpack f f;
#X obj 361 886 s /ev/gemwin/dimen/x;
#X obj 418 866 s /ev/gemwin/dimen/y;
#X obj 400 779 unpack f f;
#X obj 400 821 s /ev/gemwin/offset/x;
#X obj 457 801 s /ev/gemwin/offset/y;
#X obj 439 755 s /ev/gemwin/rendering;
#X obj 479 735 s /ev/gemwin/border;
#X obj 518 715 s /ev/gemwin/lighting;
#X obj 557 695 s /ev/gemwin/frame;
#X obj 161 418 r /ev/gemwin/frame;
#X obj 161 468 r /ev/gemwin/lighting;
#X obj 161 518 r /ev/gemwin/border;
#X msg 161 539 border \$1;
#X obj 161 621 t b b;
#X msg 161 643 1;
#X msg 188 663 create;
#X obj 161 718 t b b;
#X msg 188 760 0;
#X msg 161 740 destroy;
#X obj 340 331 nbx 3 14 0 999 0 0 /ev/gemwin/frame /ev/gemwin/frame
empty -8 8 0 10 -262144 -1 -1 25 256;
#X text 338 314 fps:;
#X text 461 154 Inlet: additional messages to gemwin;
#X text 461 176 Outlet: gemwin outlet;
#X obj 360 933 r /ev/gemwin/dimen/x;
#X obj 402 953 r /ev/gemwin/dimen/y;
#X msg 140 810 dimen \$1 \$2;
#X obj 570 998 pack 0 0;
#X obj 570 933 r /ev/gemwin/offset/x;
#X obj 588 953 r /ev/gemwin/offset/y;
#X msg 140 864 offset \$1 \$2;
#X obj 360 998 pack 800 600;
#X obj 402 975 t b f;
#X obj 588 975 t b f;
#X obj 140 787 r /ev/gemwin/dimen;
#X obj 140 841 r /ev/gemwin/offset;
#X obj 360 1020 s /ev/gemwin/dimen;
#X obj 570 1020 s /ev/gemwin/offset;
#X obj 36 916 s /ev/gemwin;
#X obj 588 317 r /ev/gemwin;
#X obj 676 596 s /ev/gemwin;
#X obj 168 245 unpack f f;
#X obj 215 200 unpack f f;
#X obj 168 118 r /ev/gemwin;
#X msg 168 267 set \$1;
#X msg 225 267 set \$1;
#X msg 215 223 set \$1;
#X msg 272 223 set \$1;
#X msg 262 172 set \$1;
#X msg 310 172 set \$1;
#X msg 161 489 lighting \$1;
#X obj 168 140 route dimen offset border lighting frame;
#X msg 357 172 set \$1;
#X obj 361 543 route dimen offset float border lighting frame create
destroy;
#X obj 597 675 s /ev/gemwin/create;
#X obj 636 655 s /ev/gemwin/destroy;
#X obj 597 629 t b;
#X obj 636 629 t b;
#X obj 161 598 r /ev/gemwin/create;
#X obj 161 698 r /ev/gemwin/destroy;
#X obj 542 317 bng 25 250 50 0 /ev/gemwin/create /ev/gemwin/create
create -45 12 0 12 -4034 -1 -1;
#X obj 542 347 bng 25 250 50 0 /ev/gemwin/destroy /ev/gemwin/destroy
destroy -52 12 0 12 -258113 -1 -1;
#N canvas 469 287 435 410 mouseover 0;
#X obj 148 92 r /ev/gemwin/dimen;
#X obj 148 114 gil_gemmouse 800 600;
#X obj 148 136 s /ev/mouse/in;
#X obj 148 190 r /ev/mouse/selected;
#X obj 148 214 route 1;
#X obj 148 266 unpack s s;
#X obj 187 238 t b;
#X msg 187 295 symbol ---;
#X obj 148 339 s /ev/mouse/selected/a;
#X obj 148 359 s /ev/mouse/selected/b;
#X connect 0 0 1 0;
#X connect 1 0 2 0;
#X connect 3 0 4 0;
#X connect 4 0 5 0;
#X connect 4 1 6 0;
#X connect 5 0 8 0;
#X connect 5 1 9 0;
#X connect 6 0 7 0;
#X connect 7 0 8 0;
#X connect 7 0 9 0;
#X restore 709 378 pd mouseover;
#X obj 844 327 gemkeyboard;
#X obj 844 381 s /ev/gemwin/destroy;
#X obj 340 350 bng 15 250 50 0 \$0-dummy-1 \$0-dummy-2 cursor_interaction
17 7 0 10 -262144 -1 -1;
#X msg 360 387 vis 1;
#X obj 360 409 s pd-\$0-cursor-interaction;
#N canvas 384 70 173 174 \$0-cursor-interaction 0;
#X obj 3 2 cnv 15 160 160 empty empty empty 20 12 0 14 -228856 -66577
0;
#X obj 18 26 hsl 128 15 0.01 1 1 0 /ev/mouse/select_radius /ev/mouse/select_radius
mouseover_radius -2 -8 0 10 -262130 -1 -1 7468 1;
#X obj 18 62 hsl 128 15 20 5000 1 0 /ev/mouse/texture/sensitivity /ev/mouse/texture/sensitivity
tex_shift_sensitivity -2 -8 0 10 -204800 -1 -1 2108 1;
#X text 14 91 selected:;
#X symbolatom 15 106 22 0 0 0 - /ev/mouse/selected/a #0-dummy;
#X symbolatom 15 126 22 0 0 0 - /ev/mouse/selected/b #0-dummy;
#X restore 360 436 pd \$0-cursor-interaction;
#X obj 361 507 inlet settings;
#X obj 588 379 outlet info;
#X text 460 113 1st: storage domain \, see [ev_storage-help] for details
;
#X obj 161 568 r /ev/gemwin/rendering;
#X text 678 820 (c)2011-2012 Marian Weger /part of EXTENDED VIEW toolkit/
gpl v3;
#X obj 844 349 sel 53 9 27;
#X text 956 429 9 (Linux);
#X text 956 415 53 (OSX);
#X text 956 442 27 (Windows);
#X text 836 415 KeyCodes for "Esc":;
#X connect 14 0 86 0;
#X connect 15 0 54 0;
#X connect 16 0 17 0;
#X connect 16 1 18 0;
#X connect 19 0 20 0;
#X connect 19 1 21 0;
#X connect 26 0 15 0;
#X connect 27 0 66 0;
#X connect 28 0 29 0;
#X connect 29 0 54 0;
#X connect 30 0 31 0;
#X connect 30 1 32 0;
#X connect 31 0 54 0;
#X connect 32 0 54 0;
#X connect 33 0 35 0;
#X connect 33 1 34 0;
#X connect 34 0 54 0;
#X connect 35 0 54 0;
#X connect 40 0 47 0;
#X connect 41 0 48 0;
#X connect 42 0 54 0;
#X connect 43 0 53 0;
#X connect 44 0 43 0;
#X connect 45 0 49 0;
#X connect 46 0 54 0;
#X connect 47 0 52 0;
#X connect 48 0 47 0;
#X connect 48 1 47 1;
#X connect 49 0 43 0;
#X connect 49 1 43 1;
#X connect 50 0 42 0;
#X connect 51 0 46 0;
#X connect 55 0 14 0;
#X connect 57 0 60 0;
#X connect 57 1 61 0;
#X connect 58 0 62 0;
#X connect 58 1 63 0;
#X connect 59 0 67 0;
#X connect 60 0 3 0;
#X connect 61 0 4 0;
#X connect 62 0 5 0;
#X connect 63 0 2 0;
#X connect 64 0 1 0;
#X connect 65 0 13 0;
#X connect 66 0 54 0;
#X connect 67 0 57 0;
#X connect 67 1 58 0;
#X connect 67 2 64 0;
#X connect 67 3 65 0;
#X connect 67 4 68 0;
#X connect 68 0 36 0;
#X connect 69 0 16 0;
#X connect 69 1 19 0;
#X connect 69 2 22 0;
#X connect 69 3 23 0;
#X connect 69 4 24 0;
#X connect 69 5 25 0;
#X connect 69 6 72 0;
#X connect 69 7 73 0;
#X connect 69 8 56 0;
#X connect 72 0 70 0;
#X connect 73 0 71 0;
#X connect 74 0 30 0;
#X connect 75 0 33 0;
#X connect 79 0 90 0;
#X connect 81 0 82 0;
#X connect 82 0 83 0;
#X connect 85 0 69 0;
#X connect 88 0 54 0;
#X connect 90 0 80 0;
#X connect 90 1 80 0;
#X connect 90 2 80 0;
#X coords 0 -1 1 1 360 79 1 210 300;
