#N canvas 100 85 627 578 10;
#X obj 101 115 cnv 15 178 15 empty empty empty 20 12 0 14 -13381 -66577
0;
#X obj 100 39 cnv 15 360 20 empty empty extended_view_rectangular_texture_module
3 12 0 14 -99865 -262144 0;
#X obj 100 115 tgl 15 0 /ev/rect/\$1/state /ev/rect/\$1/state on/off
17 7 0 10 -4034 -1 -4034 1 1;
#N canvas 206 617 341 276 init 0;
#X obj 54 72 loadbang;
#X obj 32 72 bng 15 250 50 0 empty empty empty 17 7 0 10 -262144 -1
-1;
#X obj 54 94 list prepend \$1;
#X msg 54 116 \; /ev/rect/\$1/state 1 \; /ev/rect/\$1/grid 2 \;;
#X connect 0 0 2 0;
#X connect 1 0 2 0;
#X connect 2 0 3 0;
#X restore 141 367 pd init;
#X obj 101 240 cnv 15 180 100 empty empty inlets/outlets 5 8 0 12 -233017
-66577 0;
#X obj 100 163 cnv 15 180 60 empty empty creation_arguments: 3 8 0
12 -191407 -1 0;
#X text 105 259 Inlet 1: gemlist;
#X text 105 309 Outlet 1: gemlist;
#X text 105 279 Inlet 2: Texture ID;
#X obj 338 222 pix_texture;
#X obj 299 450 outlet gemlist;
#X obj 299 100 inlet gemlist;
#X obj 299 181 kdemux2;
#X obj 401 100 inlet texture_id;
#X obj 338 327 scaleXYZ 1 1 1;
#X obj 557 347 loadbang;
#X msg 557 369 4;
#X msg 438 369 grid \$1;
#X obj 438 297 r /ev/rect/\$1/grid;
#X msg 401 255 \$3 \$2;
#X obj 401 277 /;
#X text 121 486 (c)2012 Peter Venus & Marian Weger \; /part of EXTENDED
VIEW toolkit/;
#X obj 299 122 separator;
#X obj 483 169 loadbang;
#X text 106 181 1st: module id;
#X obj 438 319 moses 2;
#X msg 438 341 2;
#N canvas 561 745 473 159 storage&osc 0;
#X obj 43 57 ds_reg \$2 /ev/rect/\$1/state nomorph;
#X obj 43 77 ds_reg \$2 /ev/rect/\$1/grid nomorph;
#X obj 273 57 osc_bi \$2 /ev/rect/\$1/state;
#X obj 273 77 osc_bi \$2 /ev/rect/\$1/grid;
#X restore 121 407 pd storage&osc;
#X obj 338 156 r /ev/rect/\$1/state;
#X text 106 196 2nd: storage domain;
#X obj 338 418 mesh_square 2;
#X msg 483 191 rectangle 1;
#X connect 9 0 14 0;
#X connect 9 1 19 0;
#X connect 11 0 22 0;
#X connect 12 0 10 0;
#X connect 12 1 9 0;
#X connect 13 0 9 1;
#X connect 14 0 30 0;
#X connect 15 0 16 0;
#X connect 16 0 30 1;
#X connect 17 0 30 0;
#X connect 18 0 25 0;
#X connect 19 0 20 0;
#X connect 20 0 14 2;
#X connect 22 0 12 0;
#X connect 23 0 31 0;
#X connect 25 0 26 0;
#X connect 25 1 17 0;
#X connect 26 0 17 0;
#X connect 28 0 12 1;
#X connect 30 0 10 0;
#X connect 31 0 9 0;
#X coords 0 -1 1 1 180 34 1 100 100;
