#N canvas 205 30 790 496 10;
#X obj 20 -86 cnv 15 360 60 empty empty creation_arguments: 5 12 0
12 -162280 -1 0;
#X obj 20 -23 cnv 15 360 45 empty empty inlets/outlets 5 12 0 12 -191407
-66577 0;
#X text 24 -7 Inlet 1: GEMlist;
#N canvas 597 350 394 265 init 0;
#X obj 81 -256 loadbang;
#X obj 45 -256 bng 15 250 50 0 empty empty empty 17 7 0 10 -262144
-1 -1;
#X obj 81 -232 list append \$1;
#X msg 79 -202 \; /ev/rec/\$1/snap/dimen/x 640 \; /ev/rec/\$1/snap/dimen/y
480 \; /ev/rec/\$1/sync 0 \; /ev/rec/\$1/file/quality 80 \; /ev/rec/\$1/snap/offset/x
0 \; /ev/rec/\$1/snap/offset/y 0 \; \;;
#X connect 0 0 2 0;
#X connect 1 0 2 0;
#X connect 2 0 3 0;
#X restore 501 -84 pd init;
#N canvas 543 287 563 208 storage_&_osc 0;
#X obj 63 -22 ds_reg \$2 /ev/rec/\$1/sync nomorph;
#X obj 63 -2 ds_reg \$2 /ev/rec/\$1/file/quality nomorph;
#X obj 63 18 ds_reg \$2 /ev/rec/\$1/snap/offset/x nomorph;
#X obj 63 38 ds_reg \$2 /ev/rec/\$1/snap/offset/y nomorph;
#X obj 323 -22 osc_bi \$2 /ev/rec/\$1/sync;
#X obj 323 -2 osc_bi \$2 /ev/rec/\$1/file/quality;
#X obj 323 18 osc_bi \$2 /ev/rec/\$1/snap/offset/x;
#X obj 323 38 osc_bi \$2 /ev/rec/\$1/snap/offset/y;
#X obj 323 58 osc_bi \$2 /ev/rec/\$1/rec;
#X obj 323 78 osc_bi \$2 /ev/rec/\$1/stop;
#X obj 323 99 osc_bi \$2 /ev/rec/\$1/grab;
#X obj 323 119 osc_bi \$2 /ev/rec/\$1/codec_nbr;
#X obj 63 57 ds_reg \$2 /ev/rec/\$1/codec_nbr nomorph;
#X obj 63 -62 ds_reg \$2 /ev/rec/\$1/snap/dimen/x nomorph;
#X obj 63 -42 ds_reg \$2 /ev/rec/\$1/snap/dimen/y nomorph;
#X obj 323 -62 osc_bi \$2 /ev/rec/\$1/snap/dimen/x;
#X obj 323 -42 osc_bi \$2 /ev/rec/\$1/snap/dimen/y;
#X restore 390 -84 pd storage_&_osc;
#X obj 410 -53 inlet gemlist;
#X obj 21 45 cnv 14 358 127 empty empty 1: 5 10 0 14 -86277 -262144
0;
#X obj 257 73 tgl 15 0 /ev/rec/\$1/sync /ev/rec/\$1/sync SYNC_on/off
17 7 0 10 -228856 -1 -262144 0 1;
#X obj 20 -107 cnv 15 740 18 empty empty EXTENDED_VIEW_RECORD&EXPORT_MODULE
2 8 0 14 -99865 -262144 0;
#X text 26 185 (c)2012 Peter Venus / Marian Weger \, /part of EXTENDED
VIEW toolkit/ gpl v3;
#X obj 463 78 t b a;
#X text 154 -8 Outlet 1: GEMlist;
#X text 154 4 Outlet 2: Texture-ID;
#X obj 298 97 bng 30 250 50 0 /ev/rec/\$1/stop /ev/rec/\$1/stop stop
1 15 0 12 -257985 -162280 -1;
#X obj 257 97 bng 30 250 50 0 /ev/rec/\$1/rec /ev/rec/\$1/rec REC 4
15 0 11 -258113 -99865 -1;
#X obj 53 94 bng 15 250 50 0 /ev/rec/\$1/save_as /ev/rec/\$1/save_as
VIDEO__SAVE_AS 22 7 0 12 -260097 -1 -4034;
#X obj 53 70 bng 15 250 50 0 /ev/rec/\$1/codec_list empty codec_list
17 9 0 10 -262144 -1 -4034;
#X obj 137 71 nbx 3 14 0 300 0 0 /ev/rec/\$1/codec_nbr /ev/rec/\$1/codec_nbr
select_codec 40 9 0 10 -262144 -258113 -4034 0 256;
#X obj 53 47 nbx 4 14 -1e+37 1e+37 0 0 /ev/rec/\$1/snap/dimen/x /ev/rec/\$1/snap/dimen/x
dimX 50 9 0 10 -262144 -1 -260097 640 256;
#X obj 212 47 nbx 4 14 -1e+37 1e+37 0 0 /ev/rec/\$1/snap/offset/x /ev/rec/\$1/snap/offset/x
off_x 50 9 0 10 -262144 -1 -260097 0 256;
#X obj 294 47 nbx 4 14 -1e+37 1e+37 0 0 /ev/rec/\$1/snap/offset/y /ev/rec/\$1/snap/offset/y
off_y 50 9 0 10 -262144 -1 -260097 0 256;
#X obj 25 69 cnv 15 15 15 empty empty 2: 1 9 0 14 -86277 -262144 0
;
#X obj 470 137 pix_snap 0 0 500 500;
#N canvas 392 275 450 300 to-snap 0;
#X obj 99 230 outlet eins;
#X obj 235 231 outlet zwei;
#X text 158 197 offset x/y;
#X text 293 196 dimen x/y;
#X obj 117 109 r /ev/rec/\$1/snap/offset/y;
#X obj 99 87 r /ev/rec/\$1/snap/offset/x;
#X obj 99 197 pack f f;
#X obj 117 129 t b f;
#X obj 235 197 pack f f;
#X obj 235 133 r /ev/rec/\$1/snap/dimen/x;
#X obj 253 175 t b f;
#X obj 253 155 r /ev/rec/\$1/snap/dimen/y;
#X connect 4 0 7 0;
#X connect 5 0 6 0;
#X connect 6 0 0 0;
#X connect 7 0 6 0;
#X connect 7 1 6 1;
#X connect 8 0 1 0;
#X connect 9 0 8 0;
#X connect 10 0 8 0;
#X connect 10 1 8 1;
#X connect 11 0 10 0;
#X restore 528 115 pd to-snap;
#X obj 618 138 r /ev/rec/\$1/codec_list;
#X msg 674 164 codeclist;
#X obj 600 -62 r /ev/rec/\$1/rec;
#X msg 600 -39 1;
#X obj 649 -39 r /ev/rec/\$1/stop;
#X msg 649 -16 0;
#X msg 600 165 record \$1;
#X obj 650 5 t f f;
#X obj 463 58 spigot 1;
#X obj 600 5 t f f b;
#X msg 639 105 vertical;
#X obj 682 45 inlet sync;
#X obj 610 189 spigot 1;
#X obj 423 103 spigot 1;
#N canvas 612 183 482 301 sync 0;
#X obj 84 25 inlet;
#X obj 268 257 outlet tospigot;
#X obj 369 257 outlet recstop;
#X obj 129 25 r /ev/rec/\$1/sync;
#X obj 85 192 t b b;
#X obj 56 255 outlet bang;
#X obj 112 213 s /ev/rec/\$1/bangsnap;
#X obj 85 235 s /ev/rec/\$1/bangrec;
#X obj 240 25 r /ev/rec/\$1/rec;
#X obj 343 25 r /ev/rec/\$1/stop;
#X obj 84 166 spigot 0;
#X obj 129 48 t f f;
#X obj 268 189 - 1;
#X obj 268 210 * -1;
#X msg 369 209 record 0;
#X obj 343 54 t b b;
#X msg 343 74 0;
#X msg 240 49 1;
#X obj 129 142 &&;
#X obj 129 71 t b f;
#X connect 0 0 10 0;
#X connect 3 0 11 0;
#X connect 4 0 7 0;
#X connect 4 0 5 0;
#X connect 4 1 6 0;
#X connect 8 0 17 0;
#X connect 9 0 15 0;
#X connect 10 0 4 0;
#X connect 11 0 19 0;
#X connect 11 1 12 0;
#X connect 12 0 13 0;
#X connect 13 0 1 0;
#X connect 14 0 2 0;
#X connect 15 0 16 0;
#X connect 15 1 14 0;
#X connect 16 0 18 0;
#X connect 17 0 18 0;
#X connect 18 0 10 1;
#X connect 19 0 18 0;
#X connect 19 1 18 1;
#X restore 682 66 pd sync;
#X obj 674 216 t a;
#X obj 54 115 nbx 5 14 -1e+37 1e+37 0 0 empty /ev/rec/\$1/rec/frames
nbr_of_recorded_frames 60 8 0 10 -1 -4034 -260097 0 256;
#X obj 25 94 cnv 15 15 15 empty empty 3a: 1 9 0 14 -86277 -262144 0
;
#X obj 53 136 bng 15 250 50 0 /ev/rec/\$1/file/image /ev/rec/\$1/file/image
IMAGE__SAVE_AS 22 7 0 12 -4032 -1 -4034;
#X obj 25 134 cnv 15 15 15 empty empty 3b: 1 9 0 14 -86277 -262144
0;
#X obj 257 135 bng 30 250 50 0 /ev/rec/\$1/grab /ev/rec/\$1/grab GRAB
1 15 0 11 -4032 -1 -4160;
#N canvas 78 397 472 297 grab_image 0;
#X msg 79 80 file /Users/marian/snapshot 80;
#X obj 79 38 r /ev/rec/\$1/file/image;
#N canvas 1944 517 450 300 savepanel-image 0;
#X obj 115 41 inlet;
#X obj 114 254 outlet;
#X obj 114 199 t b a;
#X obj 115 74 savepanel;
#X obj 182 74 inlet quality;
#X obj 115 141 pack s 80;
#X obj 139 113 t b f;
#X msg 114 162 set file \$1 \$2;
#X connect 0 0 3 0;
#X connect 2 0 1 0;
#X connect 2 1 1 0;
#X connect 3 0 5 0;
#X connect 4 0 6 0;
#X connect 5 0 7 0;
#X connect 6 0 5 0;
#X connect 6 1 5 1;
#X connect 7 0 2 0;
#X restore 79 59 pd savepanel-image;
#X obj 65 13 inlet gemlist;
#N canvas 723 352 450 300 to-snap 0;
#X obj 99 230 outlet eins;
#X text 158 157 offset x/y;
#X obj 117 109 r /ev/rec/\$1/snap/offset/y;
#X obj 99 87 r /ev/rec/\$1/snap/offset/x;
#X obj 99 157 pack f f;
#X obj 117 129 t b f;
#X obj 235 230 outlet zwei;
#X text 293 195 dimen x/y;
#X obj 235 196 pack f f;
#X obj 235 132 r /ev/rec/\$1/snap/dimen/x;
#X obj 253 174 t b f;
#X obj 253 154 r /ev/rec/\$1/snap/dimen/y;
#X connect 2 0 5 0;
#X connect 3 0 4 0;
#X connect 4 0 0 0;
#X connect 5 0 4 0;
#X connect 5 1 4 1;
#X connect 8 0 6 0;
#X connect 9 0 8 0;
#X connect 10 0 8 0;
#X connect 10 1 8 1;
#X connect 11 0 10 0;
#X restore 90 180 pd to-snap;
#X obj 65 205 pix_write;
#X obj 65 231 outlet gemlist;
#X obj 229 38 r /ev/rec/\$1/file/quality;
#X obj 83 135 r /ev/rec/\$1/grab;
#X connect 0 0 5 0;
#X connect 1 0 2 0;
#X connect 2 0 0 0;
#X connect 3 0 5 0;
#X connect 4 0 5 1;
#X connect 4 1 5 2;
#X connect 5 0 6 0;
#X connect 7 0 2 1;
#X connect 8 0 5 0;
#X restore 410 191 pd grab_image;
#N canvas 0 22 450 300 rec_video 0;
#X obj 121 35 inlet gemlist;
#X obj 50 267 outlet gemlist;
#X obj 120 238 pix_record;
#X msg 129 133 file /Users/marian/untitled.mov;
#N canvas 0 22 450 300 savepanel 0;
#X obj 114 62 inlet;
#X obj 114 254 outlet;
#X obj 114 199 t b a;
#X obj 114 125 savepanel;
#X msg 114 162 set file \$1;
#X connect 0 0 3 0;
#X connect 2 0 1 0;
#X connect 2 1 1 0;
#X connect 3 0 4 0;
#X connect 4 0 2 0;
#X restore 129 112 pd savepanel;
#X obj 129 90 r /ev/rec/\$1/save_as;
#X obj 120 68 pix_flip;
#X obj 148 265 s /ev/rec/\$1/rec/frames;
#X obj 211 35 inlet flip;
#X obj 278 195 inlet record;
#X connect 0 0 6 0;
#X connect 2 0 1 0;
#X connect 2 1 7 0;
#X connect 3 0 2 0;
#X connect 4 0 3 0;
#X connect 5 0 4 0;
#X connect 6 0 2 0;
#X connect 8 0 6 0;
#X connect 9 0 2 0;
#X restore 605 251 pd rec_video;
#X obj 410 252 outlet gemlist;
#X obj 53 155 nbx 5 14 -1e+37 1e+37 0 0 /ev/rec/\$1/file/quality /ev/rec/\$1/file/quality
IMG_quality 60 8 0 10 -66577 -260097 -260097 80 256;
#X obj 128 47 nbx 4 14 -1e+37 1e+37 0 0 /ev/rec/\$1/snap/dimen/y /ev/rec/\$1/snap/dimen/y
dimY 50 9 0 10 -262144 -1 -260097 480 256;
#X obj 410 -27 t a a;
#X text 27 -63 1st: module ID \, needs to be unique \; 2nd: storage
domain \, see [ev_storage-help] for details;
#X connect 5 0 50 0;
#X connect 10 0 37 0;
#X connect 10 1 22 0;
#X connect 22 0 46 0;
#X connect 23 0 22 1;
#X connect 23 1 22 2;
#X connect 24 0 25 0;
#X connect 25 0 39 0;
#X connect 26 0 27 0;
#X connect 27 0 33 0;
#X connect 28 0 29 0;
#X connect 29 0 31 0;
#X connect 30 0 36 0;
#X connect 31 0 32 1;
#X connect 31 1 30 0;
#X connect 32 0 10 0;
#X connect 33 0 30 0;
#X connect 33 1 32 1;
#X connect 33 2 34 0;
#X connect 34 0 46 1;
#X connect 35 0 38 0;
#X connect 36 0 39 0;
#X connect 37 0 22 0;
#X connect 38 1 37 1;
#X connect 38 1 36 1;
#X connect 38 2 39 0;
#X connect 39 0 46 2;
#X connect 45 0 47 0;
#X connect 50 0 45 0;
#X connect 50 1 32 0;
#X coords 0 -1 1 1 360 146 1 20 30;
