#N canvas 580 147 762 493 10;
#X obj 147 20 loadbang;
#X obj 147 89 sel 0;
#X obj 147 111 t b b;
#X msg 230 80 1;
#X obj 94 40 bng 15 250 50 0 empty empty empty 17 7 0 10 -262144 -1
-1;
#X obj 61 185 print EVT;
#X obj 246 427 list tosymbol;
#X obj 165 450 list prepend;
#X obj 165 472 list trim;
#X obj 165 377 t a b;
#X obj 147 133 t b b b b b;
#X msg 165 309 http://extendedview.mur.at \, https://github.com/extendedview/extended_view_toolkit
\,;
#X msg 202 240 Cyrille Henry \, Peter Venus \, Marian Weger;
#X msg 246 404 32 32 32 32;
#X msg 184 277 Found a bug? Miss a feature? Please report it:;
#X obj 147 47 v /ev/credits/state;
#X msg 221 159 EXTENDED VIEW toolkit \, Version: 0.5+git \, License:
GNU GPLv3 \, Maintained by Peter Venus & Marian Weger \, Authors:;
#X text 431 472 2016 Marian Weger;
#X connect 0 0 15 0;
#X connect 1 0 2 0;
#X connect 2 0 10 0;
#X connect 2 1 3 0;
#X connect 3 0 15 0;
#X connect 4 0 2 0;
#X connect 6 0 7 1;
#X connect 7 0 8 0;
#X connect 8 0 5 0;
#X connect 9 0 7 0;
#X connect 9 1 13 0;
#X connect 10 1 11 0;
#X connect 10 2 14 0;
#X connect 10 3 12 0;
#X connect 10 4 16 0;
#X connect 11 0 9 0;
#X connect 12 0 9 0;
#X connect 13 0 6 0;
#X connect 14 0 5 0;
#X connect 15 0 1 0;
#X connect 16 0 5 0;
