#N canvas 298 69 972 324 10;
#X text 425 -279 inlet 1: gemlist;
#X obj 427 -211 spigot 1;
#X obj 427 -121 pix_video;
#X obj 42 -299 cnv 15 920 16 empty empty EXTENDED_VIEW_Camera/VideoInput_DSP_MODULE
2 8 0 14 -233017 -66577 0;
#X obj 42 -238 cnv 15 360 60 empty empty creation_arguments: 5 12 0
12 -162280 -1 0;
#X obj 42 -175 cnv 15 360 120 empty empty inlets/outlets 5 12 0 12
-233017 -66577 0;
#X text 47 -155 Inlet 1: GEMlist;
#X text 47 -103 Inlet 2: settings for [pix_video];
#X text 634 -278 inlet 2: pix_video settings;
#N canvas 499 138 387 328 init 0;
#X obj 31 24 loadbang;
#X obj 31 48 list append \$1;
#X msg 31 75 \; /ev/cam/\$1/state 1 \; /ev/cam/\$1/flip/vertical 0
\; /ev/cam/\$1/flip/horizontal 0 \;;
#X connect 0 0 1 0;
#X connect 1 0 2 0;
#X coords 0 328 1 327 85 60 0;
#X restore 120 -259 pd init;
#X obj 472 -233 r /ev/cam/\$1/state;
#X obj 427 -260 inlet gemlist;
#X obj 427 1 outlet gemlist;
#X obj 427 -20 pix_flip;
#X obj 637 -234 loadbang;
#X obj 637 -212 list prepend \$1;
#X obj 637 -190 route float;
#X msg 637 -148 device \$1;
#X obj 636 -260 inlet settings;
#N canvas 46 408 499 288 flip_logic 0;
#X obj 93 109 t b f;
#X msg 73 201 both;
#X obj 244 237 outlet;
#X obj 194 109 t b f;
#X obj 174 131 <;
#X obj 174 153 sel 1;
#X msg 174 175 vertical;
#X obj 264 109 t b f;
#X obj 244 153 sel 1;
#X obj 244 131 >;
#X msg 244 175 horizontal;
#X obj 73 131 +;
#X obj 73 153 sel 2 0;
#X msg 92 176 none;
#X obj 73 47 r /ev/cam/\$1/flip/horizontal;
#X obj 194 73 r /ev/cam/\$1/flip/vertical;
#X connect 0 0 11 0;
#X connect 0 1 11 1;
#X connect 1 0 2 0;
#X connect 3 0 4 0;
#X connect 3 1 4 1;
#X connect 4 0 5 0;
#X connect 5 0 6 0;
#X connect 6 0 2 0;
#X connect 7 0 9 0;
#X connect 7 1 9 1;
#X connect 8 0 10 0;
#X connect 9 0 8 0;
#X connect 10 0 2 0;
#X connect 11 0 12 0;
#X connect 12 0 1 0;
#X connect 12 1 13 0;
#X connect 13 0 2 0;
#X connect 14 0 11 0;
#X connect 14 0 4 0;
#X connect 14 0 9 0;
#X connect 15 0 0 0;
#X connect 15 0 3 0;
#X connect 15 0 7 0;
#X restore 443 -46 pd flip_logic;
#X obj 637 -168 moses 999;
#X obj 478 -98 s /ev/cam/\$1/info;
#X text 177 -155 Outlet 1: GEMlist;
#X obj 427 -74 pix_separator;
#X obj 42 -279 abs/ev_cam_osc \$1 \$2;
#N canvas 288 75 638 358 storage 0;
#X obj 93 158 ds_reg \$2 /ev/cam/\$1/flip/horizontal nomorph;
#X obj 93 178 ds_reg \$2 /ev/cam/\$1/flip/vertical nomorph;
#X obj 93 138 ds_reg \$2 /ev/cam/\$1/state nomorph;
#X restore 42 -260 pd storage;
#X text 45 -222 1st: module ID \; 2nd: storage domain;
#X text 169 -276 (c)2016 Peter Venus & Marian Weger \; /part of EXTENDED
VIEW toolkit/ gpl v3;
#X connect 1 0 2 0;
#X connect 2 0 23 0;
#X connect 2 1 21 0;
#X connect 10 0 1 1;
#X connect 11 0 1 0;
#X connect 13 0 12 0;
#X connect 14 0 15 0;
#X connect 15 0 16 0;
#X connect 16 0 20 0;
#X connect 17 0 2 0;
#X connect 18 0 2 0;
#X connect 19 0 13 0;
#X connect 20 0 17 0;
#X connect 23 0 13 0;
#X coords 0 324 1 323 180 54 0;
