#N canvas 222 92 715 555 10;
#X obj 280 -11 spigot 1;
#X text 36 179 creation argument: id;
#X obj 484 4 openpanel;
#X obj 476 150 list trim;
#X obj 10 -90 cnv 15 700 16 empty empty EXTENDED_VIEW_IMAGE_DSP_MODULE
2 8 0 14 -233017 -66577 0;
#X obj 10 -49 cnv 15 240 60 empty empty creation_arguments: 5 12 0
12 -162280 -1 0;
#X obj 10 164 cnv 15 240 110 empty empty inlets/outlets 5 12 0 12 -233017
-66577 0;
#X text 15 184 Inlet 1: GEMlist;
#X obj 10 15 cnv 15 240 145 empty empty GUI_controls 5 8 0 12 -204800
-66577 0;
#X text 12 91 on/off: toggles state;
#X text 12 119 open / reload:;
#X text 50 129 load/reload image;
#N canvas 187 362 392 196 init 0;
#X obj 81 -236 loadbang;
#X obj 81 -212 list append \$1;
#X msg 81 -185 \; /ev/pic/\$1/filename <no_file_specified> \; /ev/pic/\$1/flip/horizontal
0 \; /ev/pic/\$1/flip/vertical 0 \; /ev/pic/\$1/state 1 \;;
#X connect 0 0 1 0;
#X connect 1 0 2 0;
#X restore 204 -70 pd init;
#X obj 476 128 list prepend set open;
#X text 12 32 flip: flip image;
#X obj 280 429 outlet gemlist;
#X text 49 47 <-> horizontal;
#X text 49 60 ^v vertical;
#X obj 325 -33 r /ev/pic/\$1/state;
#N canvas 46 408 499 288 flip_logic 0;
#X obj 93 109 t b f;
#X msg 73 201 both;
#X obj 244 237 outlet;
#X obj 194 109 t b f;
#X obj 174 131 <;
#X obj 174 153 sel 1;
#X msg 174 175 vertical;
#X obj 264 109 t b f;
#X obj 244 153 sel 1;
#X obj 244 131 >;
#X msg 244 175 horizontal;
#X obj 73 131 +;
#X obj 73 153 sel 2 0;
#X msg 92 176 none;
#X obj 73 47 r /ev/pic/\$1/flip/horizontal;
#X obj 194 73 r /ev/pic/\$1/flip/vertical;
#X connect 0 0 11 0;
#X connect 0 1 11 1;
#X connect 1 0 2 0;
#X connect 3 0 4 0;
#X connect 3 1 4 1;
#X connect 4 0 5 0;
#X connect 5 0 6 0;
#X connect 6 0 2 0;
#X connect 7 0 9 0;
#X connect 7 1 9 1;
#X connect 8 0 10 0;
#X connect 9 0 8 0;
#X connect 10 0 2 0;
#X connect 11 0 12 0;
#X connect 12 0 1 0;
#X connect 12 1 13 0;
#X connect 13 0 2 0;
#X connect 14 0 11 0;
#X connect 14 0 4 0;
#X connect 14 0 9 0;
#X connect 15 0 0 0;
#X connect 15 0 3 0;
#X connect 15 0 7 0;
#X restore 406 316 pd flip_logic;
#X obj 302 52 r /ev/pic/\$1/filename;
#X obj 491 171 r /ev/pic/\$1/load;
#X obj 484 27 s /ev/pic/\$1/filename;
#X obj 484 -18 r /ev/pic/\$1/open;
#X obj 280 -70 inlet gemlist;
#X text 15 198 Outlet 1: GEMlist;
#X text 13 -27 1st: unique module ID;
#X text 13 -11 2nd: save domain;
#X obj 280 262 pix_image;
#X msg 449 227 open ../media/cam1.jpg;
#X obj 280 284 pix_separator;
#X obj 280 11 separator;
#X obj 280 397 pix_flip;
#X obj 280 316 t a b;
#X obj 307 343 list prepend none;
#X text 416 345 Workaround for GEM bug.;
#X obj 307 365 list trim;
#X obj 449 104 t b a;
#X obj 302 74 route <no_file_specified>;
#N canvas 143 69 633 305 storage 0;
#X obj 63 98 ds_reg \$2 /ev/pic/\$1/state nomorph;
#X obj 63 118 ds_reg \$2 /ev/pic/\$1/filename nomorph;
#X obj 63 58 ds_reg \$2 /ev/pic/\$1/flip/horizontal nomorph;
#X obj 63 78 ds_reg \$2 /ev/pic/\$1/flip/vertical nomorph;
#X restore 137 -70 pd storage;
#X obj 10 -70 abs/ev_pic_osc \$1 \$2;
#X text 16 279 (c)2016 Peter Venus & Marian Weger \; /part of EXTENDED
VIEW toolkit/ gpl v3;
#X connect 0 0 31 0;
#X connect 2 0 22 0;
#X connect 3 0 29 0;
#X connect 13 0 3 0;
#X connect 18 0 0 1;
#X connect 19 0 34 1;
#X connect 20 0 38 0;
#X connect 21 0 29 0;
#X connect 23 0 2 0;
#X connect 24 0 0 0;
#X connect 28 0 30 0;
#X connect 29 0 28 0;
#X connect 30 0 33 0;
#X connect 31 0 28 0;
#X connect 32 0 15 0;
#X connect 33 0 32 0;
#X connect 33 1 34 0;
#X connect 34 0 36 0;
#X connect 36 0 32 0;
#X connect 37 0 29 0;
#X connect 37 1 13 0;
#X connect 38 1 37 0;
#X coords 0 555 1 554 180 67 0;
