#N canvas 535 45 767 716 10;
#X obj 435 -26 r /ev/vid/\$1/state;
#X obj 390 8 spigot 1;
#X obj 20 -86 cnv 15 360 60 empty empty creation_arguments: 5 12 0
12 -162280 -1 0;
#X obj 20 -23 cnv 15 360 45 empty empty inlets/outlets 5 12 0 12 -191407
-66577 0;
#X text 24 -7 Inlet 1: GEMlist;
#X obj 417 216 pix_film;
#X obj 417 107 alpha;
#X obj 487 153 list trim;
#X obj 487 109 r /ev/vid/\$1/filename;
#X obj 625 131 openpanel;
#X obj 625 109 r /ev/vid/\$1/open;
#X obj 625 154 s /ev/vid/\$1/filename;
#X text 487 92 open file______________________________;
#X obj 20 142 cnv 15 360 80 empty empty empty 20 12 0 14 -261682 -66577
0;
#N canvas 857 22 394 265 init 0;
#X obj 79 -253 loadbang;
#X obj 45 -256 bng 15 250 50 0 empty empty empty 17 7 0 10 -262144
-1 -1;
#X obj 79 -229 list append \$1;
#X msg 79 -202 \; /ev/vid/\$1/fadeIn_time 0 \; /ev/vid/\$1/fadeOut_time
0 \; /ev/vid/\$1/start_time 0 \; /ev/vid/\$1/timebase 0 \; /ev/vid/\$1/state
1 \; /ev/vid/\$1/form 50 \; /ev/vid/\$1/weight 100 \; /ev/vid/\$1/gain
100 \; /ev/vid/\$1/framerate 25 \; /ev/vid/\$1/loop 0 \; /ev/vid/\$1/flip/horizontal
0 \; /ev/vid/\$1/flip/vertical 0 \;;
#X connect 0 0 2 0;
#X connect 1 0 2 0;
#X connect 2 0 3 0;
#X restore 501 -84 pd init;
#X obj 439 321 s /ev/vid/\$1/dimen;
#X obj 644 291 s /ev/vid/\$1/stop;
#X obj 487 131 list prepend open;
#N canvas 96 296 589 450 storage_&_osc 0;
#X obj 363 278 osc_bi \$1 /ev/vid/\$1/start;
#X obj 363 298 osc_bi \$1 /ev/vid/\$1/stop;
#X obj 363 318 osc_bi \$1 /ev/vid/\$1/open;
#X obj 93 178 ds_reg \$1 /ev/vid/\$1/gain;
#X obj 363 218 osc_bi \$1 /ev/vid/\$1/weight;
#X obj 363 198 osc_bi \$1 /ev/vid/\$1/form;
#X obj 363 178 osc_bi \$1 /ev/vid/\$1/gain;
#X obj 363 138 osc_bi \$1 /ev/vid/\$1/fadeOut_time;
#X obj 363 118 osc_bi \$1 /ev/vid/\$1/fadeIn_time;
#X obj 363 98 osc_bi \$1 /ev/vid/\$1/end_time;
#X obj 363 78 osc_bi \$1 /ev/vid/\$1/start_time;
#X obj 363 58 osc_bi \$1 /ev/vid/\$1/framerate;
#X obj 363 38 osc_bi \$1 /ev/vid/\$1/filename;
#X obj 363 18 osc_bi \$1 /ev/vid/\$1/state;
#X obj 363 238 osc_bi \$1 /ev/vid/\$1/loop;
#X obj 363 158 osc_bi \$1 /ev/vid/\$1/timebase;
#X obj 93 18 ds_reg \$1 /ev/vid/\$1/state nomorph;
#X obj 93 38 ds_reg \$1 /ev/vid/\$1/filename nomorph;
#X obj 93 58 ds_reg \$1 /ev/vid/\$1/framerate nomorph;
#X obj 93 78 ds_reg \$1 /ev/vid/\$1/start_time nomorph;
#X obj 93 98 ds_reg \$1 /ev/vid/\$1/end_time nomorph;
#X obj 93 118 ds_reg \$1 /ev/vid/\$1/fadeIn_time nomorph;
#X obj 93 138 ds_reg \$1 /ev/vid/\$1/fadeOut_time nomorph;
#X obj 93 158 ds_reg \$1 /ev/vid/\$1/timebase nomorph;
#X obj 93 198 ds_reg \$1 /ev/vid/\$1/form nomorph;
#X obj 93 218 ds_reg \$1 /ev/vid/\$1/weight nomorph;
#X obj 93 238 ds_reg \$1 /ev/vid/\$1/loop nomorph;
#X restore 390 -84 pd storage_&_osc;
#X obj 462 194 r /ev/vid/\$1/filmframe;
#N canvas 229 30 1003 672 fadelogic 0;
#X obj 27 33 cnv 15 250 400 empty empty fadeIN_machinery 20 12 0 14
-261234 -66577 0;
#X obj 586 17 cnv 15 400 500 empty empty fadeOut_machinery 20 8 0 14
-233017 -66577 0;
#X obj 280 184 cnv 15 300 230 empty empty communication_between_fader_and_number-boxes
2 12 0 10 -233017 -66577 0;
#X obj 42 639 outlet fade;
#X obj 739 74 r /ev/vid/\$1/fadeOut_time;
#X obj 95 112 r /ev/vid/\$1/fadeIn_time;
#X msg 791 282 set \$1;
#X msg 323 349 set \$1;
#X obj 640 33 r /ev/vid/\$1/lengthNEW;
#X obj 134 135 r /ev/vid/\$1/framerate;
#X obj 42 480 line;
#X msg 729 442 0 \$1;
#X obj 35 341 f;
#X obj 729 422 f;
#X obj 289 206 r /ev/vid/\$1/fadeIn_timeFRr;
#X obj 792 345 r /ev/vid/\$1/fadeOut_timeFRr;
#X obj 122 211 /;
#X msg 122 191 1000 \$1;
#X obj 50 305 *;
#X obj 50 209 *;
#X obj 739 159 *;
#X obj 744 271 *;
#X obj 640 241 -;
#X obj 590 293 r /ev/vid/\$1/elapsed;
#X obj 655 215 t b f;
#X obj 713 272 int;
#X obj 684 53 r /ev/vid/\$1/framerate;
#X obj 684 184 /;
#X msg 684 159 1000 \$1;
#X obj 791 316 s /ev/vid/\$1/fadeOut_timeFRs;
#X obj 368 375 s /ev/vid/\$1/fadeIn_timeFRs;
#X obj 288 327 int;
#X obj 791 263 int;
#X obj 792 415 s /ev/vid/\$1/fadeOut_time;
#X obj 792 393 /;
#X obj 289 256 s /ev/vid/\$1/fadeIn_time;
#X obj 289 235 /;
#X msg 368 349 range 0 \$1;
#X msg 840 283 range 0 \$1;
#X obj 698 493 s /ev/vid/\$1/fOut_start;
#X obj 370 528 s /ev/vid/\$1/fIn_end;
#X obj 119 639 s /ev/vid/\$1/fade_level;
#X obj 42 606 * 1;
#X obj 72 529 r /ev/vid/\$1/gain;
#X text 180 529 set maximum gain level;
#X obj 72 579 t b f;
#X obj 72 552 / 100;
#X text 182 503 fade curves are set inside;
#X text 366 391 sets numberboxes according to fader;
#X obj 370 424 r /ev/vid/\$1/elapsed;
#X obj 122 171 f 25;
#X obj 684 135 f 25;
#X obj 370 478 change;
#X obj 370 456 >= 0;
#X obj 370 502 sel 1;
#X obj 698 375 change;
#X obj 698 395 sel 1;
#X msg 90 375 1;
#X obj 90 338 r /ev/vid/\$1/lengthNEW;
#X obj 50 92 r /ev/vid/\$1/lengthNEW;
#X obj 368 327 r /ev/vid/\$1/lengthNEW;
#X obj 754 97 r /ev/vid/\$1/lengthNEW;
#X obj 840 261 r /ev/vid/\$1/lengthNEW;
#X obj 35 71 r /ev/vid/\$1/start;
#X msg 35 376 0 \, 1 \$1;
#X obj 360 225 r /ev/vid/\$1/lengthNEW;
#X obj 95 134 t f b;
#X obj 122 231 t b f;
#X obj 50 231 t f f;
#X obj 288 423 t f;
#X obj 729 468 s \$0-fade_vid;
#X obj 90 402 s \$0-fade_vid;
#X obj 42 458 r \$0-fade_vid;
#X obj 828 367 r /ev/vid/\$1/lengthNEW;
#X obj 739 183 t f b f f;
#X obj 754 127 t b f;
#X obj 50 134 t b f;
#X obj 698 355 > 1;
#N canvas 0 22 279 174 shapes 0;
#X obj -47 16 r /ev/vid/\$1/form;
#X msg -47 108 shape \$1;
#X obj 63 16 r /ev/vid/\$1/weight;
#X msg 63 64 weight \$1;
#X obj 63 36 / 100;
#X obj 63 146 outlet;
#X obj -47 62 - 1;
#X obj -47 40 / 50;
#X obj -47 85 * 3;
#X connect 0 0 7 0;
#X connect 1 0 5 0;
#X connect 2 0 4 0;
#X connect 3 0 5 0;
#X connect 4 0 3 0;
#X connect 6 0 8 0;
#X connect 7 0 6 0;
#X connect 8 0 1 0;
#X restore 171 480 pd shapes;
#X obj 42 503 fadecurve \$1-vid 100 3;
#X obj 591 319 r /ev/vid/\$1/start;
#X msg 591 339 set 0;
#X text 288 274 if time is changed within the numberboxes \; fader
is set accordingly;
#X connect 4 0 20 0;
#X connect 5 0 66 0;
#X connect 6 0 29 0;
#X connect 7 0 30 0;
#X connect 8 0 22 0;
#X connect 9 0 50 0;
#X connect 10 0 79 0;
#X connect 11 0 70 0;
#X connect 12 0 64 0;
#X connect 13 0 11 0;
#X connect 14 0 36 0;
#X connect 15 0 34 0;
#X connect 16 0 67 0;
#X connect 17 0 16 0;
#X connect 18 0 12 1;
#X connect 19 0 68 0;
#X connect 20 0 74 0;
#X connect 21 0 13 1;
#X connect 22 0 25 0;
#X connect 23 0 77 0;
#X connect 24 0 22 0;
#X connect 24 1 22 1;
#X connect 25 0 77 1;
#X connect 26 0 51 0;
#X connect 27 0 21 0;
#X connect 28 0 27 0;
#X connect 31 0 7 0;
#X connect 31 0 69 0;
#X connect 32 0 6 0;
#X connect 34 0 33 0;
#X connect 36 0 35 0;
#X connect 37 0 30 0;
#X connect 38 0 29 0;
#X connect 42 0 41 0;
#X connect 42 0 3 0;
#X connect 43 0 46 0;
#X connect 45 0 42 0;
#X connect 45 1 42 1;
#X connect 46 0 45 0;
#X connect 49 0 53 0;
#X connect 50 0 17 0;
#X connect 51 0 28 0;
#X connect 52 0 54 0;
#X connect 53 0 52 0;
#X connect 54 0 40 0;
#X connect 55 0 56 0;
#X connect 56 0 13 0;
#X connect 56 0 39 0;
#X connect 57 0 71 0;
#X connect 58 0 57 0;
#X connect 59 0 76 0;
#X connect 60 0 37 0;
#X connect 61 0 75 0;
#X connect 62 0 38 0;
#X connect 63 0 12 0;
#X connect 64 0 71 0;
#X connect 65 0 36 1;
#X connect 66 0 19 0;
#X connect 66 1 50 0;
#X connect 67 0 18 0;
#X connect 67 1 18 1;
#X connect 68 0 18 0;
#X connect 68 1 31 0;
#X connect 69 0 53 1;
#X connect 72 0 10 0;
#X connect 73 0 34 1;
#X connect 74 0 24 0;
#X connect 74 1 21 0;
#X connect 74 2 21 1;
#X connect 74 3 32 0;
#X connect 75 0 20 0;
#X connect 75 1 20 1;
#X connect 76 0 19 0;
#X connect 76 1 19 1;
#X connect 77 0 55 0;
#X connect 78 0 79 1;
#X connect 79 0 42 0;
#X connect 80 0 81 0;
#X connect 81 0 55 0;
#X restore 530 351 pd fadelogic;
#X obj 425 134 loadbang;
#X obj 390 -53 inlet gemlist;
#X obj 21 44 cnv 14 358 82 empty empty empty 20 12 0 14 -33289 -66577
0;
#X obj 29 44 tgl 14 0 /ev/vid/\$1/state /ev/vid/\$1/state on/off 17
7 0 10 -228856 -1 -262144 1 1;
#X obj 29 60 bng 14 250 50 0 /ev/vid/\$1/open /ev/vid/\$1/open open
17 7 0 10 -4034 -1 -4034;
#X obj 342 45 bng 35 250 50 0 /ev/vid/\$1/stop /ev/vid/\$1/stop stop
4 17 0 12 -258113 -162280 -262144;
#X obj 350 84 nbx 2 14 1 99 0 0 /ev/vid/\$1/framerate /ev/vid/\$1/framerate
fps: -25 8 0 9 -262144 -1 -258113 25 256;
#X obj 149 84 nbx 14 14 -1e+37 1e+37 0 0 empty /ev/vid/\$1/lengthNEW
length/NEW 0 -5 0 9 -66577 -4034 -4034 351 256;
#X obj 29 84 nbx 14 14 -1e+37 1e+37 0 0 empty /ev/vid/\$1/elapsed elapsed
0 -5 0 9 -66577 -262144 -262144 351 256;
#N canvas 363 215 530 292 frame-to-seconds_converter 0;
#X obj 130 236 s /ev/vid/\$1/seconds;
#X obj 343 41 r /ev/vid/\$1/fadeOut_time;
#X obj 189 41 r /ev/vid/\$1/fadeIn_time;
#X obj 189 87 t f;
#X obj 34 87 r /ev/vid/\$1/framerate;
#X obj 137 154 f;
#X obj 189 112 t f b;
#X obj 189 194 /;
#X obj 337 108 f;
#X obj 298 81 t f b;
#X obj 298 131 *;
#X floatatom 301 184 5 0 0 0 - - -;
#X obj 337 16 r /ev/vid/\$1/length;
#X obj 40 40 r /ev/vid/\$1/lengthNEW;
#X connect 1 0 9 0;
#X connect 2 0 9 0;
#X connect 3 0 6 0;
#X connect 4 0 5 1;
#X connect 5 0 7 1;
#X connect 6 0 7 0;
#X connect 6 1 5 0;
#X connect 7 0 0 0;
#X connect 8 0 10 1;
#X connect 9 0 10 0;
#X connect 9 1 8 0;
#X connect 10 0 3 0;
#X connect 10 0 11 0;
#X connect 12 0 8 0;
#X connect 13 0 3 0;
#X restore 560 -84 pd frame-to-seconds_converter;
#X obj 269 84 nbx 5 14 -1e+37 1e+37 0 0 empty /ev/vid/\$1/seconds sec
35 8 0 10 -66577 -4034 -191407 14.04 256;
#X obj 186 44 vradio 14 1 0 2 /ev/vid/\$1/timebase /ev/vid/\$1/timebase
empty 0 -8 0 10 -262144 -1 -1 0;
#X obj 417 371 pix_rgba;
#X obj 417 442 pix_alpha;
#X msg 493 414 1;
#X msg 521 414 1 1 1;
#X msg 560 414 0 0 0;
#N canvas 711 216 372 243 vid_\$1 0;
#X obj 1 -31 cnv 15 360 230 empty empty settings_for_ev_vid_\$1 3 8
0 12 -128992 -262144 0;
#X obj 6 154 tgl 15 0 /ev/vid/\$1/state /ev/vid/\$1/state on/off 17
7 0 10 -228856 -1 -1 1 1;
#X obj 6 138 bng 15 250 50 0 /ev/vid/\$1/open /ev/vid/\$1/open open
17 7 0 10 -262130 -1 -1;
#X obj 291 -25 bng 30 250 50 0 /ev/vid/\$1/start /ev/vid/\$1/start
play 4 16 0 10 -4034 -260097 -1;
#X obj 327 -25 bng 30 250 50 0 /ev/vid/\$1/stop /ev/vid/\$1/stop stop
2 14 0 11 -258113 -162280 -262144;
#X obj 88 138 nbx 2 13 1 99 0 0 /ev/vid/\$1/framerate /ev/vid/\$1/framerate
fps: -25 7 0 10 -191407 -1 -262144 25 256;
#X obj 8 100 hsl 276 15 0 351 0 0 /ev/vid/\$1/start_time /ev/vid/\$1/start_time
start_time 15 9 1 12 -66577 -4034 -262144 0 1;
#X obj 8 60 hsl 276 15 0 1 0 0 /ev/vid/\$1/fadeIn_time /ev/vid/\$1/fadeIn_time
fadeIn_time 15 9 1 12 -66577 -4034 -262144 0 1;
#X obj 8 80 hsl 276 15 1 0 0 1 /ev/vid/\$1/fadeOut_time /ev/vid/\$1/fadeOut_time
fadeOut_time 15 9 1 12 -66577 -258113 -262144 27500 1;
#X obj 96 8 nbx 9 14 -1e+37 1e+37 0 0 empty /ev/vid/\$1/length file_length
0 -5 0 10 -1 -262144 -1 351 256;
#X obj 287 60 nbx 8 15 0 351 0 0 /ev/vid/\$1/fadeIn_timeFRr /ev/vid/\$1/fadeIn_timeFRs
empty 0 -8 0 9 -262144 -1 -1 0 256;
#X obj 287 80 nbx 8 15 0 351 0 0 /ev/vid/\$1/fadeOut_timeFRr /ev/vid/\$1/fadeOut_timeFRs
empty 0 -8 0 9 -262144 -1 -1 0 256;
#X obj 287 100 nbx 8 15 0 351 0 0 /ev/vid/\$1/start_time /ev/vid/\$1/start_time
empty 0 -8 0 9 -262144 -1 -1 0 256;
#X obj 186 8 nbx 9 14 -1e+37 1e+37 0 0 empty /ev/vid/\$1/lengthNEW
length/NEW 0 -5 0 10 -1 -4034 -1 351 256;
#X obj 287 120 nbx 8 15 0 351 0 0 /ev/vid/\$1/end_time /ev/vid/\$1/end_time
empty 0 -8 0 9 -262144 -1 -1 351 256;
#X obj 5 8 nbx 9 14 -1e+37 1e+37 0 0 empty /ev/vid/\$1/elapsed elapsed
0 -5 0 10 -1 -4034 -33289 351 256;
#X obj 302 8 nbx 5 14 -1e+37 1e+37 0 0 empty /ev/vid/\$1/seconds sec:
-25 8 0 10 -33289 -4034 -262144 14.04 256;
#X obj 190 139 vradio 14 1 0 2 /ev/vid/\$1/timebase /ev/vid/\$1/timebase
empty 0 -8 0 10 -262144 -1 -1 0;
#X obj 88 153 tgl 14 0 /ev/vid/\$1/loop /ev/vid/\$1/loop loop_on/off
17 7 0 10 -4160 -262144 -262144 0 1;
#X text 205 138 frame acc.;
#X text 205 151 time acc.;
#X obj 8 120 hsl 276 15 0 351 0 0 /ev/vid/\$1/end_time /ev/vid/\$1/end_time
end_time 15 8 0 12 -66577 -258113 -262144 27500 1;
#X obj 281 152 nbx 8 12 0 100 0 0 /ev/vid/\$1/form /ev/vid/\$1/form
form 49 7 0 10 -99865 -262144 -262144 50 256;
#X obj 281 167 nbx 8 12 0 100 0 0 /ev/vid/\$1/weight /ev/vid/\$1/weight
weight 39 7 0 10 -99865 -262144 -262144 100 256;
#X obj 288 30 nbx 5 23 0 100 0 0 /ev/vid/\$1/gain /ev/vid/\$1/gain
LVL 45 12 0 13 -99865 -257985 -262144 100 256;
#X obj 8 30 hsl 276 23 0 100 0 0 /ev/vid/\$1/gain /ev/vid/\$1/gain
Level 15 11 0 13 -99865 -257985 -262144 27500 1;
#X obj 281 136 cnv 15 70 13 empty empty Fadecurve 0 8 0 12 -128992
-66577 0;
#X obj 282 182 bng 15 250 50 0 /ev/vid/\$1/curve/vis /ev/vid/\$1/curve/vis
show_curve 17 7 0 10 -128992 -1 -262144;
#X obj 88 177 tgl 15 0 /ev/vid/\$1/flip/horizontal /ev/vid/\$1/flip/horizontal
<-> 17 7 0 10 -204786 -1 -1 0 1;
#X obj 124 177 tgl 15 0 /ev/vid/\$1/flip/vertical /ev/vid/\$1/flip/vertical
^v 17 7 0 10 -204786 -1 -1 0 1;
#X text 55 177 flip:;
#X restore 290 199 pd vid_\$1;
#X msg 217 178 vis 1;
#X obj 217 199 s pd-vid_\$1;
#N canvas 164 32 351 692 timebase 0;
#X obj 28 256 spigot 1;
#X obj 84 255 spigot 0;
#X msg 84 275 bang;
#X obj 114 296 + 1;
#X obj 84 296 f;
#X text 174 258 Gate-Logic to switch \; between CPU-triggered- \; playback
and frame- \; accurate playback;
#X obj 129 216 - 1;
#X obj 129 235 * -1;
#N canvas 86 303 642 465 realtime 0;
#X msg 380 212 0;
#X obj 119 143 realtime;
#X msg 170 30 1000 \$1;
#X obj 170 50 /;
#X obj 119 302 i;
#X obj 119 115 t b;
#X obj 119 163 / 33.3333;
#X msg 202 253 0;
#X msg 164 253 1;
#X obj 119 323 spigot 1;
#X obj 170 5 r /ev/vid/\$1/framerate;
#X obj 202 71 r /ev/vid/\$1/stop;
#X obj 3 11 r /ev/vid/\$1/start;
#X obj 119 347 outlet spigot;
#X obj 202 347 outlet zero;
#X msg 42 158 0;
#X obj 3 33 t b b b;
#X obj 119 -19 inlet stopbang;
#X obj 379 183 inlet stop;
#X obj 255 97 inlet two;
#X connect 0 0 4 1;
#X connect 1 0 6 0;
#X connect 2 0 3 0;
#X connect 3 0 6 1;
#X connect 4 0 9 0;
#X connect 5 0 1 0;
#X connect 6 0 4 0;
#X connect 7 0 9 1;
#X connect 7 0 14 0;
#X connect 8 0 9 1;
#X connect 9 0 13 0;
#X connect 10 0 2 0;
#X connect 11 0 7 0;
#X connect 11 0 5 0;
#X connect 12 0 16 0;
#X connect 15 0 14 0;
#X connect 16 0 8 0;
#X connect 16 1 5 0;
#X connect 16 2 15 0;
#X connect 17 0 5 0;
#X connect 18 0 0 0;
#X connect 19 0 1 1;
#X restore 28 169 pd realtime;
#X obj 27 86 inlet pix_film_outlet3;
#X obj 28 348 outlet spigot;
#X obj 28 18 cnv 15 300 52 empty empty empty 20 12 0 14 -191407 -66577
0;
#X text 31 19 following part is to adjust the framerate of the;
#X text 32 31 video-file to the system framerate of GEM.;
#X text 32 41 If set wrong \, playback-speed is not right.;
#X text 32 53 set framerate of file with fps-parameter in GUI.;
#X obj 67 490 r /ev/vid/\$1/loop;
#X obj 164 141 r /ev/vid/\$1/timebase;
#X obj 141 561 spigot;
#X obj 141 581 del 1;
#X obj 141 603 s /ev/vid/\$1/start;
#X obj 30 470 change;
#X obj 30 490 sel 1;
#X obj 30 406 r /ev/vid/\$1/elapsed;
#X obj 158 428 r /ev/vid/\$1/start;
#X msg 158 448 set 0;
#X obj 160 406 r /ev/vid/\$1/lengthNEW;
#X obj 30 429 + 1;
#X obj 30 450 >= 1;
#X obj 30 580 spigot;
#X obj 67 539 - 1;
#X obj 67 558 * -1;
#X obj 30 604 s \$0-stoptimebase;
#X obj 163 117 r \$0-stoptimebase;
#X text 94 384 looping&stop mechanism;
#X obj 172 87 inlet two;
#X obj 171 161 r /ev/vid/\$1/dimen;
#X msg 171 234 0;
#X obj 171 181 t b;
#X text 198 180 resets counter on load;
#X connect 0 0 10 0;
#X connect 1 0 2 0;
#X connect 2 0 4 0;
#X connect 3 0 4 1;
#X connect 4 0 3 0;
#X connect 4 0 10 0;
#X connect 6 0 7 0;
#X connect 7 0 1 1;
#X connect 8 0 0 0;
#X connect 8 0 1 0;
#X connect 8 1 4 1;
#X connect 9 0 8 0;
#X connect 16 0 18 1;
#X connect 16 0 30 0;
#X connect 17 0 6 0;
#X connect 17 0 0 1;
#X connect 18 0 19 0;
#X connect 19 0 20 0;
#X connect 21 0 22 0;
#X connect 22 0 18 0;
#X connect 22 0 29 0;
#X connect 23 0 27 0;
#X connect 24 0 25 0;
#X connect 25 0 21 0;
#X connect 26 0 28 1;
#X connect 27 0 28 0;
#X connect 28 0 21 0;
#X connect 29 0 32 0;
#X connect 30 0 31 0;
#X connect 31 0 29 1;
#X connect 33 0 8 2;
#X connect 35 0 8 1;
#X connect 36 0 38 0;
#X connect 37 0 4 1;
#X connect 38 0 37 0;
#X restore 501 244 pd timebase;
#X obj 501 291 s /ev/vid/\$1/filmframe;
#X obj 564 221 r /ev/vid/\$1/stop;
#N canvas 198 263 529 310 for_the_data_outlet 0;
#X msg 398 103 end;
#X msg 242 103 length \$1;
#X msg 320 103 dimen \$2 \$3;
#X msg 168 103 elapsed \$1;
#X obj 166 222 t a;
#X obj 310 57 t a;
#X obj 11 37 r /ev/vid/\$1/fOut_start;
#X msg 11 57 fOut;
#X obj 11 77 r /ev/vid/\$1/fIn_end;
#X msg 11 97 fIn;
#X obj 11 117 r /ev/vid/\$1/fade_level;
#X msg 11 137 fade;
#X obj 168 36 r /ev/vid/\$1/filmframe;
#X obj 311 36 r /ev/vid/\$1/dimen;
#X obj 398 71 r /ev/vid/\$1/stop;
#X obj 167 253 outlet;
#X connect 0 0 4 0;
#X connect 1 0 4 0;
#X connect 2 0 4 0;
#X connect 3 0 4 0;
#X connect 4 0 15 0;
#X connect 5 0 2 0;
#X connect 5 0 1 0;
#X connect 6 0 7 0;
#X connect 7 0 4 0;
#X connect 8 0 9 0;
#X connect 9 0 4 0;
#X connect 10 0 11 0;
#X connect 11 0 4 0;
#X connect 12 0 3 0;
#X connect 13 0 5 0;
#X connect 14 0 0 0;
#X restore 25 157 pd for_the_data_outlet;
#X obj 99 44 tgl 14 0 /ev/vid/\$1/loop /ev/vid/\$1/loop loop_on/off
17 7 0 10 -262144 -1 -262144 0 1;
#X obj 99 60 bng 14 250 50 0 /ev/vid/\$1/settings empty settings 17
7 0 10 -257985 -1 -257985;
#X obj 202 46 cnv 15 100 10 empty empty frame_accurate 0 6 0 10 -1
-262144 0;
#X obj 203 60 cnv 15 100 10 empty empty time_accurate 0 6 0 10 -1 -262144
0;
#X obj 298 45 bng 35 250 50 0 /ev/vid/\$1/start /ev/vid/\$1/start play
5 17 0 11 -4034 -99865 -1;
#X obj 217 156 r /ev/vid/\$1/settings;
#X text 216 138 additional settings-dialog;
#X obj 25 181 s /ev/vid/\$1/info;
#X obj 417 563 outlet gemlist;
#X obj 417 472 pix_flip;
#N canvas 525 302 499 288 flip_logic 0;
#X obj 93 109 t b f;
#X msg 73 201 both;
#X obj 244 237 outlet;
#X obj 194 109 t b f;
#X obj 174 131 <;
#X obj 174 153 sel 1;
#X msg 174 175 vertical;
#X obj 264 109 t b f;
#X obj 244 153 sel 1;
#X obj 244 131 >;
#X msg 244 175 horizontal;
#X obj 73 131 +;
#X obj 73 153 sel 2 0;
#X msg 92 176 none;
#X obj 73 47 r /ev/vid/\$1/flip/horizontal;
#X obj 194 73 r /ev/vid/\$1/flip/vertical;
#X connect 0 0 11 0;
#X connect 0 1 11 1;
#X connect 1 0 2 0;
#X connect 3 0 4 0;
#X connect 3 1 4 1;
#X connect 4 0 5 0;
#X connect 5 0 6 0;
#X connect 6 0 2 0;
#X connect 7 0 9 0;
#X connect 7 1 9 1;
#X connect 8 0 10 0;
#X connect 9 0 8 0;
#X connect 10 0 2 0;
#X connect 11 0 12 0;
#X connect 12 0 1 0;
#X connect 12 1 13 0;
#X connect 13 0 2 0;
#X connect 14 0 11 0;
#X connect 14 0 4 0;
#X connect 14 0 9 0;
#X connect 15 0 0 0;
#X connect 15 0 3 0;
#X connect 15 0 7 0;
#X restore 496 442 pd flip_logic;
#X obj 417 350 pix_separator;
#N canvas 462 151 629 438 length_logic2 0;
#X obj 13 16 inlet from_timebase_frames;
#X obj 186 17 r /ev/vid/\$1/dimen;
#X obj 186 36 unpack f f f;
#X text 218 53 get length of movie;
#X obj 13 376 outlet frame-number;
#X obj 13 240 + 0;
#X text 38 240 setframe offset to change start-time;
#X obj 186 73 s /ev/vid/\$1/length;
#X obj 374 17 cnv 15 200 150 empty empty empty 20 12 0 14 -233017 -66577
0;
#X obj 424 175 s /ev/vid/\$1/start_time;
#X obj 436 156 s /ev/vid/\$1/end_time;
#X msg 424 128 range 0 \$1;
#X obj 424 46 r /ev/vid/\$1/length;
#X text 393 22 set range of faders and nbx;
#X obj 424 66 f;
#X msg 384 150 set 0;
#X obj 281 375 outlet stopbang;
#X obj 269 232 t f f;
#X obj 234 101 r /ev/vid/\$1/end_time;
#X obj 29 141 int;
#X obj 234 148 int;
#X obj 66 141 r /ev/vid/\$1/length;
#X msg 66 193 0;
#X msg 93 193 \$1;
#X obj 66 172 t b f;
#X obj 29 92 r /ev/vid/\$1/start_time;
#X obj 230 286 moses 1;
#X obj 139 376 s /ev/vid/\$1/elapsed;
#X obj 269 255 + 1;
#X obj 281 310 >=;
#X obj 281 355 sel 1;
#X obj 281 334 change;
#X obj 389 235 s /ev/vid/\$1/lengthNEW;
#N canvas 97 326 450 300 newtime 0;
#X obj 190 24 inlet start;
#X obj 108 24 inlet end;
#X obj 138 199 outlet;
#X obj 138 163 -;
#X obj 190 56 t b f;
#X obj 108 57 t f b;
#X obj 108 100 f;
#X obj 217 97 f;
#X connect 0 0 4 0;
#X connect 1 0 5 0;
#X connect 3 0 2 0;
#X connect 4 0 6 0;
#X connect 4 1 7 0;
#X connect 5 0 6 0;
#X connect 5 1 7 0;
#X connect 6 0 3 0;
#X connect 7 0 3 1;
#X restore 389 210 pd newtime;
#X obj 29 114 route float;
#X obj 424 88 t f f b;
#X obj 473 313 r /ev/vid/\$1/end_time;
#X obj 437 372 print slider;
#X msg 495 129 set \$1;
#X obj 234 123 route float set;
#X connect 0 0 5 0;
#X connect 0 0 27 0;
#X connect 1 0 2 0;
#X connect 2 0 7 0;
#X connect 5 0 26 0;
#X connect 5 0 4 0;
#X connect 11 0 9 0;
#X connect 11 0 10 0;
#X connect 12 0 14 0;
#X connect 14 0 35 0;
#X connect 15 0 9 0;
#X connect 17 0 28 0;
#X connect 17 1 29 1;
#X connect 18 0 39 0;
#X connect 19 0 5 1;
#X connect 19 0 33 1;
#X connect 20 0 17 0;
#X connect 20 0 33 0;
#X connect 21 0 24 0;
#X connect 22 0 5 1;
#X connect 23 0 17 0;
#X connect 24 0 22 0;
#X connect 24 1 23 0;
#X connect 25 0 34 0;
#X connect 26 0 29 0;
#X connect 28 0 26 1;
#X connect 29 0 31 0;
#X connect 30 0 16 0;
#X connect 31 0 30 0;
#X connect 33 0 32 0;
#X connect 34 0 19 0;
#X connect 35 0 38 0;
#X connect 35 1 11 0;
#X connect 35 2 15 0;
#X connect 38 0 10 0;
#X connect 39 0 20 0;
#X connect 39 1 20 0;
#X restore 501 268 pd length_logic2;
#X msg 425 154 auto 0;
#X obj 20 -107 cnv 15 740 18 empty empty EXTENDED_VIEW_VIDEO_PLAYBACK_MODULE
2 8 0 14 -99865 -262144 0;
#X text 25 138 video properties & end signal;
#X obj 390 62 t b a;
#X obj 660 380 loadbang;
#X text 613 350 <---Fade Logic;
#X text 623 266 <---Length Logic;
#X text 154 -8 Outlet 1: GEMlist;
#X obj 308 103 nbx 5 17 0 100 0 0 /ev/vid/\$1/gain /ev/vid/\$1/gain
LVL 43 9 0 13 -99865 -257985 -262144 100 256;
#X obj 32 103 hsl 270 17 0 100 0 0 /ev/vid/\$1/gain /ev/vid/\$1/gain
Level 15 9 0 13 -99865 -257985 -262144 26900 1;
#X text 21 501 (c)2012 Peter Venus & Marian Weger \; /part of EXTENDED
VIEW toolkit/ gpl v3;
#X text 27 -63 1st: module ID \, needs to be unique \; 2nd: storage
domain \, see [ev_storage-help] for details;
#X connect 0 0 1 1;
#X connect 1 0 61 0;
#X connect 5 0 56 0;
#X connect 5 1 15 0;
#X connect 5 2 41 0;
#X connect 6 0 5 0;
#X connect 7 0 5 0;
#X connect 8 0 17 0;
#X connect 9 0 11 0;
#X connect 10 0 9 0;
#X connect 17 0 7 0;
#X connect 19 0 5 1;
#X connect 20 0 34 1;
#X connect 21 0 58 0;
#X connect 22 0 1 0;
#X connect 33 0 34 0;
#X connect 34 0 54 0;
#X connect 35 0 34 2;
#X connect 36 0 34 3;
#X connect 37 0 34 4;
#X connect 39 0 40 0;
#X connect 41 0 57 0;
#X connect 43 0 41 1;
#X connect 44 0 52 0;
#X connect 50 0 39 0;
#X connect 54 0 53 0;
#X connect 55 0 54 0;
#X connect 56 0 33 0;
#X connect 57 0 42 0;
#X connect 57 1 16 0;
#X connect 58 0 5 0;
#X connect 61 0 41 1;
#X connect 61 1 6 0;
#X connect 62 0 37 0;
#X connect 62 0 36 0;
#X connect 62 0 35 0;
#X coords 0 -1 1 1 360 100 1 20 30;
