#N canvas 82 69 767 264 10;
#X obj 20 -86 cnv 15 360 60 empty empty creation_arguments: 5 12 0
12 -162280 -1 0;
#X obj 20 -23 cnv 15 360 45 empty empty inlets/outlets 5 12 0 12 -191407
-66577 0;
#X text 24 -7 Inlet 1: GEMlist;
#X obj 400 -83 inlet gemlist;
#X obj 400 -41 outlet gemlist;
#X obj 20 -107 cnv 15 740 18 empty empty EXTENDED_VIEW_VIDEO_PLAYBACK_MODULE
2 8 0 14 -99865 -262144 0;
#X text 154 -8 Outlet 1: GEMlist;
#X text 515 -79 (c)2012 Peter Venus & Marian Weger \; /part of EXTENDED
VIEW toolkit/ gpl v3;
#X text 27 -63 1st: module ID \, needs to be unique \; 2nd: storage
domain \, see [ev_storage-help] for details;
#X obj 20 42 abs/ev_vid_rcu \$1 \$2;
#X obj 400 -62 ev_vid_dsp \$1 \$2;
#X connect 3 0 10 0;
#X connect 10 0 4 0;
#X coords 0 -1 1 1 360 100 1 20 30;
