#N canvas 295 54 984 743 10;
#X obj 86 77 r /ev/mouse/in;
#X obj 86 267 spigot 0;
#X obj 203 346 r /ev/mouse/select_radius;
#X obj 521 566 translateXYZ 0 0 0;
#X obj 578 632 r /ev/mouse/select_radius;
#X msg 784 538 1 0 0;
#X msg 734 538 0 1 0;
#X obj 450 791 list trim;
#X obj 450 813 s /ev/mouse/selected;
#X obj 131 201 t f f;
#X obj 158 223 sel 0;
#X msg 158 245 0 0 0 0 0;
#X obj 158 267 s /ev/mouse/in;
#X obj 765 508 sel 0 1;
#X text 54 11 ev_mouseover_texture;
#X obj 242 422 s \$1/texture\$2/selected;
#X obj 125 306 r \$1/vertex\$2/x;
#X obj 164 326 r \$1/vertex\$2/y;
#X obj 450 747 r \$1/texture\$2/selected;
#X obj 450 769 list append \$1/texture \$2;
#X obj 765 486 r \$1/texture\$2/selected;
#X obj 556 521 r \$1/vertex\$2/x;
#X obj 591 541 r \$1/vertex\$2/y;
#X obj 521 658 circle 0.2;
#X obj 86 491 gil_drag&drop_map;
#X obj 135 637 + 0;
#X obj 185 637 + 0;
#X obj 269 548 f;
#X obj 269 598 f;
#X obj 135 537 * 50;
#X obj 185 537 * 50;
#X obj 135 559 * -1;
#X obj 185 559 * -1;
#X obj 135 711 i;
#X obj 185 708 i;
#X obj 269 488 r /ev/mouse/texture/sensitivity;
#X obj 284 528 r \$1/texture\$2/x;
#X obj 284 578 r \$1/texture\$2/y;
#X obj 185 731 s \$1/texture\$2/y;
#X obj 135 752 s \$1/texture\$2/x;
#X obj 203 401 t f f f;
#X obj 222 445 sel 1;
#X obj 86 369 gil_mouseover_circle;
#X text 54 34 To be used inside of [ev_pro_flat] \, [ev_pro_curved]
\, [ev_easymap22] \, [ev_easymap33].;
#X obj 131 179 &&;
#X obj 131 107 r \$1/state;
#X obj 139 152 t b f;
#X text 425 868 (c)2011 Marian Weger /part of EXTENDED VIEW TOOLKIT/
gpl v3;
#X obj 135 691 + 0.5;
#X obj 185 688 + 0.5;
#X obj 521 494 separator;
#X obj 514 276 r \$1/state;
#X obj 471 348 spigot;
#X obj 518 107 r \$1/cursor/mode;
#X obj 518 129 t f f;
#X obj 504 219 &&;
#X obj 558 219 t b f;
#X obj 504 251 ||;
#X obj 518 188 t b f;
#X obj 504 323 &&;
#X obj 514 298 t b f;
#X obj 471 50 r \$1/mouse/gemlist;
#X obj 521 608 color 0 1 0;
#X obj 504 77 r \$1/texture\$2/selected;
#X obj 518 159 == 3;
#X obj 558 158 == 4;
#X obj 405 222 ||;
#X connect 0 0 1 0;
#X connect 1 0 42 0;
#X connect 2 0 42 3;
#X connect 3 0 62 0;
#X connect 4 0 23 1;
#X connect 5 0 62 1;
#X connect 6 0 62 1;
#X connect 7 0 8 0;
#X connect 9 0 1 1;
#X connect 9 1 10 0;
#X connect 10 0 11 0;
#X connect 11 0 12 0;
#X connect 13 0 6 0;
#X connect 13 1 5 0;
#X connect 16 0 42 1;
#X connect 17 0 42 2;
#X connect 18 0 19 0;
#X connect 19 0 7 0;
#X connect 20 0 13 0;
#X connect 21 0 3 1;
#X connect 22 0 3 2;
#X connect 24 1 29 0;
#X connect 24 2 30 0;
#X connect 25 0 48 0;
#X connect 26 0 49 0;
#X connect 27 0 25 1;
#X connect 28 0 26 1;
#X connect 29 0 31 0;
#X connect 30 0 32 0;
#X connect 31 0 25 0;
#X connect 32 0 26 0;
#X connect 33 0 39 0;
#X connect 34 0 38 0;
#X connect 35 0 29 1;
#X connect 35 0 30 1;
#X connect 36 0 27 1;
#X connect 37 0 28 1;
#X connect 40 0 24 1;
#X connect 40 1 41 0;
#X connect 40 2 15 0;
#X connect 41 0 27 0;
#X connect 41 0 28 0;
#X connect 42 0 24 0;
#X connect 42 1 40 0;
#X connect 44 0 9 0;
#X connect 45 0 44 0;
#X connect 46 0 44 0;
#X connect 46 1 44 1;
#X connect 48 0 33 0;
#X connect 49 0 34 0;
#X connect 50 0 3 0;
#X connect 51 0 60 0;
#X connect 52 0 50 0;
#X connect 53 0 54 0;
#X connect 54 0 64 0;
#X connect 54 1 65 0;
#X connect 55 0 57 0;
#X connect 56 0 57 0;
#X connect 56 1 57 1;
#X connect 57 0 59 0;
#X connect 58 0 55 0;
#X connect 58 1 55 1;
#X connect 59 0 52 1;
#X connect 60 0 59 0;
#X connect 60 1 59 1;
#X connect 61 0 52 0;
#X connect 62 0 23 0;
#X connect 63 0 55 0;
#X connect 64 0 58 0;
#X connect 64 0 66 0;
#X connect 65 0 56 0;
#X connect 65 0 66 1;
#X connect 66 0 46 0;
