#N canvas 265 22 927 727 10;
#X obj 86 117 r /ev/mouse/in;
#X obj 86 307 spigot 0;
#X obj 125 346 r \$1/vertex\$2/x;
#X obj 164 366 r \$1/vertex\$2/y;
#X obj 203 386 r /ev/mouse/select_radius;
#X obj 228 496 r \$1/vertex\$2/x;
#X obj 253 516 r \$1/vertex\$2/y;
#X obj 228 586 s \$1/vertex\$2/x;
#X obj 253 566 s \$1/vertex\$2/y;
#X obj 471 536 translateXYZ 0 0 0;
#X obj 471 682 disk 0.1;
#X msg 422 630 40;
#X obj 536 622 r /ev/mouse/select_radius;
#X obj 546 236 t f f;
#X obj 495 361 sel 1 0;
#X obj 486 650 * 1.5;
#X obj 506 491 r \$1/vertex\$2/x;
#X obj 541 511 r \$1/vertex\$2/y;
#X obj 715 456 r \$1/vertex\$2/selected;
#X obj 203 441 t f f;
#X obj 230 462 s \$1/vertex\$2/selected;
#X obj 86 629 r \$1/vertex\$2/selected;
#X obj 86 651 list append \$1/vertex \$2;
#X obj 86 673 list trim;
#X obj 86 695 s /ev/mouse/selected;
#X obj 131 241 t f f;
#X obj 158 263 sel 0;
#X msg 158 285 0 0 0 0 0;
#X obj 158 307 s /ev/mouse/in;
#X obj 422 9 loadbang;
#X obj 715 478 sel 0 1;
#X obj 715 542 t b;
#X obj 178 541 gil_drag&drop;
#X obj 131 147 r \$1/state;
#X obj 546 141 r \$1/state;
#X text 396 709 (c)2011 Marian Weger /part of EXTENDED VIEW TOOLKIT/
gpl v3;
#X msg 715 566 1 1 0;
#X obj 471 598 color 1 1 0;
#X text 58 44 To be used inside of [ev_texhelper].;
#X text 61 19 ev_mouseover_texhelper;
#X text 58 64 This is a transitional abstraction \,;
#X text 58 77 to be replaced by a more universal [ev_mouseover_vertex]
;
#X text 58 91 in the future...;
#X obj 493 108 r \$1/mouse/gemlist;
#X obj 471 464 separator;
#X obj 471 419 spigot;
#X obj 673 652 loadbang;
#X msg 673 674 0.15;
#X obj 86 409 gil_mouseover_circle 0.15;
#X msg 734 508 0 1 1;
#X connect 0 0 1 0;
#X connect 1 0 48 0;
#X connect 2 0 48 1;
#X connect 3 0 48 2;
#X connect 4 0 48 3;
#X connect 5 0 32 2;
#X connect 6 0 32 3;
#X connect 9 0 37 0;
#X connect 11 0 10 2;
#X connect 12 0 15 0;
#X connect 12 0 10 3;
#X connect 13 0 14 0;
#X connect 13 1 45 1;
#X connect 14 0 31 0;
#X connect 15 0 10 1;
#X connect 16 0 9 1;
#X connect 17 0 9 2;
#X connect 18 0 30 0;
#X connect 19 0 32 1;
#X connect 19 1 20 0;
#X connect 21 0 22 0;
#X connect 22 0 23 0;
#X connect 23 0 24 0;
#X connect 25 0 1 1;
#X connect 25 1 26 0;
#X connect 26 0 27 0;
#X connect 27 0 28 0;
#X connect 29 0 11 0;
#X connect 30 0 31 0;
#X connect 30 1 49 0;
#X connect 31 0 36 0;
#X connect 32 2 7 0;
#X connect 32 3 8 0;
#X connect 33 0 25 0;
#X connect 34 0 13 0;
#X connect 36 0 37 1;
#X connect 37 0 10 0;
#X connect 43 0 45 0;
#X connect 44 0 9 0;
#X connect 45 0 44 0;
#X connect 46 0 47 0;
#X connect 47 0 15 0;
#X connect 47 0 10 3;
#X connect 48 0 32 0;
#X connect 48 1 19 0;
#X connect 49 0 37 1;
