#N canvas 401 30 925 693 10;
#X obj 86 97 r /ev/mouse/in;
#X obj 86 287 spigot 0;
#X obj 125 326 r \$1/vertex\$2/x;
#X obj 164 346 r \$1/vertex\$2/y;
#X obj 203 366 r /ev/mouse/select_radius;
#X obj 228 476 r \$1/vertex\$2/x;
#X obj 253 496 r \$1/vertex\$2/y;
#X obj 228 566 s \$1/vertex\$2/x;
#X obj 253 546 s \$1/vertex\$2/y;
#X text 61 19 ev_mouseover_vertex;
#X obj 471 476 translateXYZ 0 0 0;
#X obj 471 622 disk 0.1;
#X msg 412 569 40;
#X obj 536 562 r /ev/mouse/select_radius;
#X obj 486 590 * 1.5;
#X obj 506 431 r \$1/vertex\$2/x;
#X obj 541 451 r \$1/vertex\$2/y;
#X obj 688 76 r \$1/vertex\$2/selected;
#X obj 203 421 t f f;
#X obj 230 442 s \$1/vertex\$2/selected;
#X obj 86 609 r \$1/vertex\$2/selected;
#X obj 86 631 list append \$1/vertex \$2;
#X obj 86 653 list trim;
#X obj 86 675 s /ev/mouse/selected;
#X obj 131 221 t f f;
#X obj 158 243 sel 0;
#X msg 158 265 0 0 0 0 0;
#X obj 158 287 s /ev/mouse/in;
#X obj 412 538 loadbang;
#X obj 715 358 sel 0 1;
#X obj 178 521 gil_drag&drop;
#X obj 131 199 &&;
#X obj 131 127 r \$1/state;
#X obj 139 172 t b f;
#X obj 514 276 r \$1/state;
#X text 390 674 (c)2011 Marian Weger /part of EXTENDED VIEW TOOLKIT/
gpl v3;
#X obj 471 348 spigot;
#X obj 518 159 == 1;
#X obj 558 158 == 2;
#X obj 518 129 t f f;
#X obj 504 219 &&;
#X obj 558 219 t b f;
#X obj 504 251 ||;
#X obj 518 188 t b f;
#X obj 504 323 &&;
#X obj 514 298 t b f;
#X obj 471 538 color 0 1 0;
#X obj 625 599 loadbang;
#X obj 222 179 ||;
#X obj 471 50 r \$1/mouse/gemlist;
#X obj 471 370 separator;
#X obj 688 98 t f f;
#X msg 734 388 1 0 0;
#X msg 715 446 0 1 0;
#X obj 518 105 r \$1/cursor/mode;
#X text 58 54 To be used inside of [ev_pro_22] \, [ev_pro_33] \, [ev_pro_22easy]
\, [ev_pro_33easy].;
#X msg 625 621 0.15;
#X obj 86 389 gil_mouseover_circle 0.15;
#X connect 0 0 1 0;
#X connect 1 0 57 0;
#X connect 2 0 57 1;
#X connect 3 0 57 2;
#X connect 4 0 57 3;
#X connect 5 0 30 2;
#X connect 6 0 30 3;
#X connect 10 0 46 0;
#X connect 12 0 11 2;
#X connect 13 0 14 0;
#X connect 13 0 11 3;
#X connect 14 0 11 1;
#X connect 15 0 10 1;
#X connect 16 0 10 2;
#X connect 17 0 51 0;
#X connect 18 0 30 1;
#X connect 18 1 19 0;
#X connect 20 0 21 0;
#X connect 21 0 22 0;
#X connect 22 0 23 0;
#X connect 24 0 1 1;
#X connect 24 1 25 0;
#X connect 25 0 26 0;
#X connect 26 0 27 0;
#X connect 28 0 12 0;
#X connect 29 0 53 0;
#X connect 29 1 52 0;
#X connect 30 2 7 0;
#X connect 30 3 8 0;
#X connect 31 0 24 0;
#X connect 32 0 31 0;
#X connect 33 0 31 0;
#X connect 33 1 31 1;
#X connect 34 0 45 0;
#X connect 36 0 50 0;
#X connect 37 0 43 0;
#X connect 37 0 48 0;
#X connect 38 0 41 0;
#X connect 38 0 48 1;
#X connect 39 0 37 0;
#X connect 39 1 38 0;
#X connect 40 0 42 0;
#X connect 41 0 42 0;
#X connect 41 1 42 1;
#X connect 42 0 44 0;
#X connect 43 0 40 0;
#X connect 43 1 40 1;
#X connect 44 0 36 1;
#X connect 45 0 44 0;
#X connect 45 1 44 1;
#X connect 46 0 11 0;
#X connect 47 0 56 0;
#X connect 48 0 33 0;
#X connect 49 0 36 0;
#X connect 50 0 10 0;
#X connect 51 0 40 0;
#X connect 51 1 29 0;
#X connect 52 0 46 1;
#X connect 53 0 46 1;
#X connect 54 0 39 0;
#X connect 56 0 11 3;
#X connect 56 0 14 0;
#X connect 57 0 30 0;
#X connect 57 1 18 0;
