#N canvas 96 146 668 567 10;
#N canvas 0 22 824 616 coords 0;
#X obj 55 350 pack f f;
#X obj 73 324 t b f;
#X obj 546 349 pack f f;
#X obj 564 323 t b f;
#X obj 533 98 pack f f;
#X obj 551 72 t b f;
#X obj 48 98 pack f f;
#X obj 66 72 t b f;
#X msg 48 120 0 0 \$1 \$2 0;
#X obj 264 511 list prepend set;
#X obj 264 533 list trim;
#X obj 264 563 s \$0-curve3d;
#X obj 48 32 r /ev/pro/\$1/vertex/top/left/x;
#X obj 66 53 r /ev/pro/\$1/vertex/top/left/y;
#X obj 55 284 r /ev/pro/\$1/vertex/bottom/left/x;
#X obj 73 305 r /ev/pro/\$1/vertex/bottom/left/y;
#X obj 533 32 r /ev/pro/\$1/vertex/top/right/x;
#X obj 551 52 r /ev/pro/\$1/vertex/top/right/y;
#X obj 546 283 r /ev/pro/\$1/vertex/bottom/right/x;
#X obj 564 303 r /ev/pro/\$1/vertex/bottom/right/y;
#X obj 45 220 pack f f;
#X obj 63 194 t b f;
#X obj 536 219 pack f f;
#X obj 554 193 t b f;
#X msg 45 242 1 0 \$1 \$2 0;
#X msg 533 120 0 2 \$1 \$2 0;
#X msg 55 372 2 0 \$1 \$2 0;
#X msg 546 371 2 2 \$1 \$2 0;
#X msg 536 241 1 2 \$1 \$2 0;
#X obj 45 154 r /ev/pro/\$1/vertex/center/left/x;
#X obj 63 175 r /ev/pro/\$1/vertex/center/left/y;
#X obj 535 153 r /ev/pro/\$1/vertex/center/right/x;
#X obj 554 173 r /ev/pro/\$1/vertex/center/right/y;
#X obj 305 350 pack f f;
#X obj 323 324 t b f;
#X obj 298 98 pack f f;
#X obj 316 72 t b f;
#X obj 295 220 pack f f;
#X obj 313 194 t b f;
#X obj 264 479 t a;
#X obj 298 32 r /ev/pro/\$1/vertex/top/center/x;
#X obj 316 53 r /ev/pro/\$1/vertex/top/center/y;
#X obj 295 154 r /ev/pro/\$1/vertex/center/center/x;
#X obj 313 175 r /ev/pro/\$1/vertex/center/center/y;
#X obj 305 284 r /ev/pro/\$1/vertex/bottom/center/x;
#X obj 323 305 r /ev/pro/\$1/vertex/bottom/center/y;
#X msg 298 120 0 1 \$1 \$2 0;
#X msg 295 242 1 1 \$1 \$2 0;
#X msg 305 372 2 1 \$1 \$2 0;
#X connect 0 0 26 0;
#X connect 1 0 0 0;
#X connect 1 1 0 1;
#X connect 2 0 27 0;
#X connect 3 0 2 0;
#X connect 3 1 2 1;
#X connect 4 0 25 0;
#X connect 5 0 4 0;
#X connect 5 1 4 1;
#X connect 6 0 8 0;
#X connect 7 0 6 0;
#X connect 7 1 6 1;
#X connect 8 0 39 0;
#X connect 9 0 10 0;
#X connect 10 0 11 0;
#X connect 12 0 6 0;
#X connect 13 0 7 0;
#X connect 14 0 0 0;
#X connect 15 0 1 0;
#X connect 16 0 4 0;
#X connect 17 0 5 0;
#X connect 18 0 2 0;
#X connect 19 0 3 0;
#X connect 20 0 24 0;
#X connect 21 0 20 0;
#X connect 21 1 20 1;
#X connect 22 0 28 0;
#X connect 23 0 22 0;
#X connect 23 1 22 1;
#X connect 24 0 39 0;
#X connect 25 0 39 0;
#X connect 26 0 39 0;
#X connect 27 0 39 0;
#X connect 28 0 39 0;
#X connect 29 0 20 0;
#X connect 30 0 21 0;
#X connect 31 0 22 0;
#X connect 32 0 23 0;
#X connect 33 0 48 0;
#X connect 34 0 33 0;
#X connect 34 1 33 1;
#X connect 35 0 46 0;
#X connect 36 0 35 0;
#X connect 36 1 35 1;
#X connect 37 0 47 0;
#X connect 38 0 37 0;
#X connect 38 1 37 1;
#X connect 39 0 9 0;
#X connect 40 0 35 0;
#X connect 41 0 36 0;
#X connect 42 0 37 0;
#X connect 43 0 38 0;
#X connect 44 0 33 0;
#X connect 45 0 34 0;
#X connect 46 0 39 0;
#X connect 47 0 39 0;
#X connect 48 0 39 0;
#X restore 428 410 pd coords;
#N canvas 205 100 410 356 ctl 0;
#X msg 55 256 draw line;
#X obj 127 310 s \$0-curve3d;
#X msg 155 257 width \$1;
#X obj 155 232 r /ev/pro/\$1/grid/width;
#X obj 55 230 loadbang;
#X obj 127 179 list prepend grid;
#X obj 127 201 list trim;
#X obj 127 55 r /ev/pro/\$1/grid/res/x;
#X obj 172 75 r /ev/pro/\$1/grid/res/y;
#X obj 127 147 pack 1 1;
#X obj 172 119 t b f;
#X obj 127 77 max 1;
#X obj 172 97 max 1;
#X connect 0 0 1 0;
#X connect 2 0 1 0;
#X connect 3 0 2 0;
#X connect 4 0 0 0;
#X connect 5 0 6 0;
#X connect 6 0 1 0;
#X connect 7 0 11 0;
#X connect 8 0 12 0;
#X connect 9 0 5 0;
#X connect 10 0 9 0;
#X connect 10 1 9 1;
#X connect 11 0 9 0;
#X connect 12 0 10 0;
#X restore 428 387 pd ctl;
#X obj 192 117 separator;
#X obj 209 406 r \$0-curve3d;
#X obj 267 282 unpack 0 0 0;
#X obj 267 344 pack 0 0 0 1;
#X obj 359 282 t b f;
#X obj 267 233 pack 0 0 0;
#X obj 267 141 r /ev/pro/\$1/grid/color/h;
#X obj 277 183 t b f;
#X obj 317 203 t b f;
#X obj 277 161 r /ev/pro/\$1/grid/color/s;
#X obj 317 181 r /ev/pro/\$1/grid/color/v;
#X obj 192 139 alpha;
#X obj 192 370 color 1 1 1 1;
#X obj 359 260 r /ev/pro/\$1/grid/color/a;
#N canvas 439 384 739 229 storage_&_osc 0;
#X obj 384 45 osc_bi \$2 /ev/pro/\$1/grid/state;
#X obj 384 65 osc_bi \$2 /ev/pro/\$1/grid/color/h;
#X obj 384 85 osc_bi \$2 /ev/pro/\$1/grid/color/s;
#X obj 384 105 osc_bi \$2 /ev/pro/\$1/grid/color/v;
#X obj 384 125 osc_bi \$2 /ev/pro/\$1/grid/color/a;
#X obj 384 145 osc_bi \$2 /ev/pro/\$1/grid/width;
#X obj 384 165 osc_bi \$2 /ev/pro/\$1/grid/res/x;
#X obj 384 185 osc_bi \$2 /ev/pro/\$1/grid/res/y;
#X obj 94 45 ds_reg \$2 /ev/pro/\$1/grid/state nomorph;
#X obj 94 165 ds_reg \$2 /ev/pro/\$1/grid/res/x nomorph;
#X obj 94 185 ds_reg \$2 /ev/pro/\$1/grid/res/y nomorph;
#X obj 94 65 ds_reg \$2 /ev/pro/\$1/grid/color/h nomorph;
#X obj 94 85 ds_reg \$2 /ev/pro/\$1/grid/color/s nomorph;
#X obj 94 105 ds_reg \$2 /ev/pro/\$1/grid/color/v nomorph;
#X obj 94 125 ds_reg \$2 /ev/pro/\$1/grid/color/a nomorph;
#X obj 94 145 ds_reg \$2 /ev/pro/\$1/grid/width nomorph;
#X restore 428 436 pd storage_&_osc;
#X obj 192 97 spigot;
#X obj 225 72 r /ev/pro/\$1/grid/state;
#X obj 192 433 curve3d 3 3;
#N canvas 629 325 454 361 init 0;
#X obj 107 52 loadbang;
#X obj 107 96 t a b;
#X obj 107 178 list append 0;
#X obj 134 118 random 256;
#X obj 134 140 / 255;
#X msg 107 204 \; /ev/pro/\$1/grid/width 2 \; /ev/pro/\$1/grid/color/h
\$2 \; /ev/pro/\$1/grid/color/s 0.6 \; /ev/pro/\$1/grid/color/v 1 \;
/ev/pro/\$1/grid/color/a 0.6 \; /ev/pro/\$1/grid/res/x 16 \; /ev/pro/\$1/grid/res/y
16 \; /ev/pro/\$1/grid/state 0 \;;
#X obj 107 74 list prepend \$1;
#X connect 0 0 6 0;
#X connect 1 0 2 0;
#X connect 1 1 3 0;
#X connect 2 0 5 0;
#X connect 3 0 4 0;
#X connect 4 0 2 1;
#X connect 6 0 1 0;
#X restore 428 364 pd init;
#X obj 192 45 inlet gemlist;
#X text 202 507 (c)2012 Marian Weger / part of EXTENDED VIEW toolkit
;
#X text 73 13 ev_pro_grid33 <id> <domain>;
#N canvas 0 22 450 300 hsv2rgb 0;
#X obj 187 84 route 0;
#X msg 187 56 \$2 \$3 \$1;
#X obj 187 409 f;
#X obj 231 111 unpack 0 0 0;
#X text 250 71 svh;
#X obj 187 28 inlet hsv;
#X obj 187 520 outlet rgb;
#X obj 401 149 * 6;
#X obj 380 196 % 6;
#X obj 350 173 t f f;
#X msg 350 149 0;
#X text 406 196 i;
#X obj 350 219 -;
#X obj 231 217 *;
#X obj 231 178 - 1;
#X obj 231 198 * -1;
#X obj 263 330 *;
#X obj 263 291 - 1;
#X obj 263 311 * -1;
#X obj 263 269 *;
#X obj 350 240 t f f;
#X obj 380 262 - 1;
#X obj 380 283 * -1;
#X obj 302 356 *;
#X obj 302 317 - 1;
#X obj 302 337 * -1;
#X obj 302 295 *;
#X obj 231 151 t f f f;
#X obj 241 392 pack 0 0 0 0;
#N canvas 387 255 646 315 select 0;
#X obj 290 37 inlet;
#X obj 16 247 outlet;
#X obj 92 104 t b l;
#X obj 125 128 unpack 0 0 0 0;
#X obj 89 43 inlet p q t v;
#X obj 92 128 i;
#X obj 92 151 select 0 1 2 3 4 5;
#X obj 16 223 pack 0 0 0;
#X obj 16 203 f;
#X obj 96 223 pack 0 0 0;
#X obj 96 203 f;
#X obj 176 223 pack 0 0 0;
#X obj 176 203 f;
#X obj 256 223 pack 0 0 0;
#X obj 256 203 f;
#X obj 336 223 pack 0 0 0;
#X obj 336 203 f;
#X obj 416 223 pack 0 0 0;
#X obj 416 203 f;
#X connect 0 0 5 1;
#X connect 2 0 5 0;
#X connect 2 1 3 0;
#X connect 3 0 7 2;
#X connect 3 0 9 2;
#X connect 3 0 12 1;
#X connect 3 0 14 1;
#X connect 3 0 15 1;
#X connect 3 0 17 1;
#X connect 3 1 10 1;
#X connect 3 1 13 1;
#X connect 3 1 17 2;
#X connect 3 2 7 1;
#X connect 3 2 11 2;
#X connect 3 2 16 1;
#X connect 3 3 8 1;
#X connect 3 3 9 1;
#X connect 3 3 11 1;
#X connect 3 3 13 2;
#X connect 3 3 15 2;
#X connect 3 3 18 1;
#X connect 4 0 2 0;
#X connect 5 0 6 0;
#X connect 6 0 8 0;
#X connect 6 1 10 0;
#X connect 6 2 12 0;
#X connect 6 3 14 0;
#X connect 6 4 16 0;
#X connect 6 5 18 0;
#X connect 7 0 1 0;
#X connect 8 0 7 0;
#X connect 9 0 1 0;
#X connect 10 0 9 0;
#X connect 11 0 1 0;
#X connect 12 0 11 0;
#X connect 13 0 1 0;
#X connect 14 0 13 0;
#X connect 15 0 1 0;
#X connect 16 0 15 0;
#X connect 17 0 1 0;
#X connect 18 0 17 0;
#X restore 241 416 pd select;
#X msg 187 478 \$1 \$1 \$1;
#X obj 187 450 clip 0 1;
#X obj 231 131 clip 0 1;
#X obj 270 173 clip 0 1;
#X obj 350 109 clip 0 1;
#X obj 350 129 select 1;
#X connect 0 0 2 0;
#X connect 0 1 3 0;
#X connect 1 0 0 0;
#X connect 2 0 31 0;
#X connect 3 0 32 0;
#X connect 3 1 33 0;
#X connect 3 2 34 0;
#X connect 5 0 1 0;
#X connect 7 0 9 0;
#X connect 8 0 12 1;
#X connect 8 0 29 1;
#X connect 9 0 12 0;
#X connect 9 1 8 0;
#X connect 10 0 9 0;
#X connect 12 0 20 0;
#X connect 13 0 28 0;
#X connect 14 0 15 0;
#X connect 15 0 13 0;
#X connect 16 0 28 1;
#X connect 17 0 18 0;
#X connect 18 0 16 0;
#X connect 19 0 17 0;
#X connect 20 0 19 1;
#X connect 20 1 21 0;
#X connect 21 0 22 0;
#X connect 22 0 26 1;
#X connect 23 0 28 2;
#X connect 24 0 25 0;
#X connect 25 0 23 0;
#X connect 26 0 24 0;
#X connect 27 0 14 0;
#X connect 27 1 19 0;
#X connect 27 2 26 0;
#X connect 28 0 29 0;
#X connect 29 0 6 0;
#X connect 30 0 6 0;
#X connect 31 0 30 0;
#X connect 32 0 27 0;
#X connect 33 0 13 1;
#X connect 33 0 28 3;
#X connect 33 0 16 1;
#X connect 33 0 23 1;
#X connect 34 0 35 0;
#X connect 35 0 10 0;
#X connect 35 1 7 0;
#X restore 267 257 pd hsv2rgb;
#X connect 2 0 13 0;
#X connect 3 0 19 0;
#X connect 4 0 5 0;
#X connect 4 1 5 1;
#X connect 4 2 5 2;
#X connect 5 0 14 1;
#X connect 6 0 5 0;
#X connect 6 1 5 3;
#X connect 7 0 24 0;
#X connect 8 0 7 0;
#X connect 9 0 7 0;
#X connect 9 1 7 1;
#X connect 10 0 7 0;
#X connect 10 1 7 2;
#X connect 11 0 9 0;
#X connect 12 0 10 0;
#X connect 13 0 14 0;
#X connect 14 0 19 0;
#X connect 15 0 6 0;
#X connect 17 0 2 0;
#X connect 18 0 17 1;
#X connect 21 0 17 0;
#X connect 24 0 4 0;
