#N canvas 59 232 928 679 10;
#X obj 364 282 pix_image;
#X obj 364 464 pix_texture;
#X obj 122 365 openpanel;
#X obj 122 396 t b a;
#X obj 364 70 gemhead;
#N canvas 184 414 739 229 storage_&_osc 0;
#X obj 434 45 osc_bi \$2 /ev/pro/\$1/grid/tex/state;
#X obj 434 65 osc_bi \$2 /ev/pro/\$1/grid/tex/filename;
#X obj 434 85 osc_bi \$2 /ev/pro/\$1/grid/tex/flip/horizontal;
#X obj 434 105 osc_bi \$2 /ev/pro/\$1/grid/tex/flip/vertical;
#X obj 434 135 osc_bi \$2 /ev/pro/\$1/grid/tex/load;
#X obj 434 155 osc_bi \$2 /ev/pro/\$1/grid/tex/open;
#X obj 94 45 ds_reg \$2 /ev/pro/\$1/grid/tex/state nomorph;
#X obj 94 65 ds_reg \$2 /ev/pro/\$1/grid/tex/filename nomorph;
#X obj 94 85 ds_reg \$2 /ev/pro/\$1/grid/tex/flip/horizontal nomorph
;
#X obj 94 105 ds_reg \$2 /ev/pro/\$1/grid/tex/flip/vertical nomorph
;
#X restore 132 76 pd storage_&_osc;
#N canvas 68 473 446 212 init 0;
#X obj 105 24 loadbang;
#X obj 105 66 list prepend \$1;
#X msg 105 96 \; /ev/pro/\$1/grid/tex/state 0 \; /ev/pro/\$1/grid/tex/filename
../../media/grid.png \; /ev/pro/\$1/grid/tex/flip/horizontal 0 \; /ev/pro/\$1/grid/tex/flip/vertical
0 \;;
#X connect 0 0 1 0;
#X connect 1 0 2 0;
#X restore 133 100 pd init;
#X obj 364 346 pix_flip;
#N canvas 339 365 470 286 flip_logic 0;
#X obj 93 109 t b f;
#X msg 73 201 both;
#X obj 244 237 outlet;
#X obj 194 109 t b f;
#X obj 174 131 <;
#X obj 174 153 sel 1;
#X msg 174 175 vertical;
#X obj 264 109 t b f;
#X obj 244 153 sel 1;
#X obj 244 131 >;
#X msg 244 175 horizontal;
#X obj 73 131 +;
#X obj 73 153 sel 2 0;
#X msg 92 176 none;
#X obj 73 47 r /ev/pro/\$1/grid/tex/flip/horizontal;
#X obj 194 73 r /ev/pro/\$1/grid/tex/flip/vertical;
#X connect 0 0 11 0;
#X connect 0 1 11 1;
#X connect 1 0 2 0;
#X connect 3 0 4 0;
#X connect 3 1 4 1;
#X connect 4 0 5 0;
#X connect 5 0 6 0;
#X connect 6 0 2 0;
#X connect 7 0 9 0;
#X connect 7 1 9 1;
#X connect 8 0 10 0;
#X connect 9 0 8 0;
#X connect 10 0 2 0;
#X connect 11 0 12 0;
#X connect 12 0 1 0;
#X connect 12 1 13 0;
#X connect 13 0 2 0;
#X connect 14 0 11 0;
#X connect 14 0 4 0;
#X connect 14 0 9 0;
#X connect 15 0 0 0;
#X connect 15 0 3 0;
#X connect 15 0 7 0;
#X restore 380 313 pd flip_logic;
#X obj 535 60 t b;
#X obj 535 168 list trim;
#X text 289 598 (c)2012 Marian Weger /part of EXTENDED VIEW toolkit/
gpl v3;
#X obj 122 343 r /ev/pro/\$1/grid/tex/open;
#X obj 149 418 s /ev/pro/\$1/grid/tex/filename;
#X obj 122 440 s /ev/pro/\$1/grid/tex/load;
#X obj 427 493 s /ev/pro/\$1/grid/tex/texture_id;
#X obj 535 38 r /ev/pro/\$1/grid/tex/load;
#X obj 697 38 r /ev/pro/\$1/grid/tex/filename;
#X obj 364 38 r /ev/pro/\$1/grid/tex/state;
#X obj 202 222 s /ev/pro/\$1/grid/tex/load;
#X obj 202 197 t b b;
#X msg 279 183 0;
#X obj 202 163 spigot 1;
#X text 74 18 ev_pro_grid <id> <domain>;
#X obj 535 116 list append ../../media/grid.png;
#X obj 535 138 list prepend open;
#X obj 697 60 t b a;
#X msg 279 137 1;
#X obj 385 412 loadbang;
#X msg 385 434 rectangle 1;
#X connect 0 0 7 0;
#X connect 1 1 15 0;
#X connect 2 0 3 0;
#X connect 3 0 14 0;
#X connect 3 1 13 0;
#X connect 4 0 0 0;
#X connect 4 0 22 0;
#X connect 7 0 1 0;
#X connect 8 0 7 0;
#X connect 9 0 24 0;
#X connect 10 0 0 0;
#X connect 12 0 2 0;
#X connect 16 0 9 0;
#X connect 17 0 26 0;
#X connect 18 0 4 0;
#X connect 20 0 19 0;
#X connect 20 1 21 0;
#X connect 21 0 22 1;
#X connect 22 0 20 0;
#X connect 24 0 25 0;
#X connect 25 0 10 0;
#X connect 26 0 27 0;
#X connect 26 1 24 1;
#X connect 27 0 22 1;
#X connect 28 0 29 0;
#X connect 29 0 1 0;
#X coords 0 679 1 678 100 99 0;
