#N canvas 242 138 668 567 10;
#N canvas 0 22 620 547 coords 0;
#X obj 55 250 pack f f;
#X obj 73 224 t b f;
#X obj 336 249 pack f f;
#X obj 354 223 t b f;
#X obj 323 98 pack f f;
#X obj 341 72 t b f;
#X obj 48 98 pack f f;
#X obj 66 72 t b f;
#X msg 48 120 0 0 \$1 \$2 0;
#X msg 323 120 0 1 \$1 \$2 0;
#X msg 55 272 1 0 \$1 \$2 0;
#X msg 336 271 1 1 \$1 \$2 0;
#X obj 127 411 list prepend set;
#X obj 127 433 list trim;
#X obj 127 379 t a a;
#X obj 127 463 s \$0-curve3d;
#X obj 48 32 r /ev/pro/\$1/vertex/top/left/x;
#X obj 66 53 r /ev/pro/\$1/vertex/top/left/y;
#X obj 55 184 r /ev/pro/\$1/vertex/bottom/left/x;
#X obj 73 205 r /ev/pro/\$1/vertex/bottom/left/y;
#X obj 323 32 r /ev/pro/\$1/vertex/top/right/x;
#X obj 341 52 r /ev/pro/\$1/vertex/top/right/y;
#X obj 336 183 r /ev/pro/\$1/vertex/bottom/right/x;
#X obj 354 203 r /ev/pro/\$1/vertex/bottom/right/y;
#X connect 0 0 10 0;
#X connect 1 0 0 0;
#X connect 1 1 0 1;
#X connect 2 0 11 0;
#X connect 3 0 2 0;
#X connect 3 1 2 1;
#X connect 4 0 9 0;
#X connect 5 0 4 0;
#X connect 5 1 4 1;
#X connect 6 0 8 0;
#X connect 7 0 6 0;
#X connect 7 1 6 1;
#X connect 8 0 14 0;
#X connect 9 0 14 0;
#X connect 10 0 14 0;
#X connect 11 0 14 0;
#X connect 12 0 13 0;
#X connect 13 0 15 0;
#X connect 14 0 12 0;
#X connect 16 0 6 0;
#X connect 17 0 7 0;
#X connect 18 0 0 0;
#X connect 19 0 1 0;
#X connect 20 0 4 0;
#X connect 21 0 5 0;
#X connect 22 0 2 0;
#X connect 23 0 3 0;
#X restore 72 82 pd coords;
#X obj 192 473 curve3d 2 2;
#N canvas 205 100 680 556 ctl 0;
#X msg 63 155 draw line;
#X msg 271 112 draw control_line;
#X msg 271 133 draw control_line1;
#X msg 271 154 draw control_line2;
#X msg 271 175 draw control_fill;
#X msg 271 196 draw control_point;
#X obj 104 287 s \$0-curve3d;
#X obj 238 286 s \$0-curve3d;
#X obj 461 369 s \$0-curve3d;
#X msg 102 230 width \$1;
#X obj 102 205 r /ev/pro/\$1/grid/width;
#N canvas 629 325 454 361 init 0;
#X obj 107 52 loadbang;
#X obj 107 96 t a b;
#X obj 107 178 list append 0;
#X obj 134 118 random 256;
#X obj 134 140 / 255;
#X obj 107 74 list prepend \$1;
#X msg 107 204 \; /ev/pro/\$1/grid/width 2 \; /ev/pro/\$1/grid/color/h
\$2 \; /ev/pro/\$1/grid/color/s 0.6 \; /ev/pro/\$1/grid/color/v 1 \;
/ev/pro/\$1/grid/color/a 0.6 \; /ev/pro/\$1/grid/res/x 16 \; /ev/pro/\$1/grid/res/y
16 \; /ev/pro/\$1/grid/state 0 \;;
#X connect 0 0 5 0;
#X connect 1 0 2 0;
#X connect 1 1 3 0;
#X connect 2 0 6 0;
#X connect 3 0 4 0;
#X connect 4 0 2 1;
#X connect 5 0 1 0;
#X restore 281 439 pd init;
#X obj 63 129 loadbang;
#X obj 461 268 list prepend grid;
#X obj 461 290 list trim;
#X obj 461 144 r /ev/pro/\$1/grid/res/x;
#X obj 506 164 r /ev/pro/\$1/grid/res/y;
#X obj 461 236 pack 1 1;
#X obj 506 208 t b f;
#X obj 461 166 max 1;
#X obj 506 186 max 1;
#X connect 0 0 6 0;
#X connect 1 0 7 0;
#X connect 2 0 7 0;
#X connect 3 0 7 0;
#X connect 4 0 7 0;
#X connect 5 0 7 0;
#X connect 9 0 6 0;
#X connect 10 0 9 0;
#X connect 12 0 0 0;
#X connect 13 0 14 0;
#X connect 14 0 8 0;
#X connect 15 0 19 0;
#X connect 16 0 20 0;
#X connect 17 0 13 0;
#X connect 18 0 17 0;
#X connect 18 1 17 1;
#X connect 19 0 17 0;
#X connect 20 0 18 0;
#X restore 365 130 pd ctl;
#X obj 192 45 inlet;
#X obj 192 117 separator;
#X obj 211 443 r \$0-curve3d;
#X obj 255 309 unpack 0 0 0;
#X obj 255 371 pack 0 0 0 1;
#X obj 347 309 t b f;
#X obj 255 260 pack 0 0 0;
#X obj 255 168 r /ev/pro/\$1/grid/color/h;
#X obj 265 210 t b f;
#X obj 305 230 t b f;
#X obj 265 188 r /ev/pro/\$1/grid/color/s;
#X obj 305 208 r /ev/pro/\$1/grid/color/v;
#X obj 192 139 alpha;
#X obj 192 400 color 1 1 1 1;
#X obj 347 287 r /ev/pro/\$1/grid/color/a;
#N canvas 439 384 739 229 storage_&_osc 0;
#X obj 384 45 osc_bi \$2 /ev/pro/\$1/grid/state;
#X obj 384 65 osc_bi \$2 /ev/pro/\$1/grid/color/h;
#X obj 384 85 osc_bi \$2 /ev/pro/\$1/grid/color/s;
#X obj 384 105 osc_bi \$2 /ev/pro/\$1/grid/color/v;
#X obj 384 125 osc_bi \$2 /ev/pro/\$1/grid/color/a;
#X obj 384 145 osc_bi \$2 /ev/pro/\$1/grid/width;
#X obj 384 165 osc_bi \$2 /ev/pro/\$1/grid/res/x;
#X obj 384 185 osc_bi \$2 /ev/pro/\$1/grid/res/y;
#X obj 94 45 ds_reg \$2 /ev/pro/\$1/grid/state nomorph;
#X obj 94 65 ds_reg \$2 /ev/pro/\$1/grid/color/h nomorph;
#X obj 94 85 ds_reg \$2 /ev/pro/\$1/grid/color/s nomorph;
#X obj 94 105 ds_reg \$2 /ev/pro/\$1/grid/color/v nomorph;
#X obj 94 125 ds_reg \$2 /ev/pro/\$1/grid/color/a nomorph;
#X obj 94 145 ds_reg \$2 /ev/pro/\$1/grid/width nomorph;
#X obj 94 165 ds_reg \$2 /ev/pro/\$1/grid/res/x nomorph;
#X obj 94 185 ds_reg \$2 /ev/pro/\$1/grid/res/y nomorph;
#X restore 394 416 pd storage_&_osc;
#X obj 192 97 spigot;
#X obj 225 72 r /ev/pro/\$1/grid/state;
#N canvas 0 22 450 300 hsv2rgb 0;
#X obj 187 84 route 0;
#X msg 187 56 \$2 \$3 \$1;
#X obj 187 409 f;
#X obj 231 111 unpack 0 0 0;
#X text 250 71 svh;
#X obj 187 28 inlet hsv;
#X obj 187 520 outlet rgb;
#X obj 401 149 * 6;
#X obj 380 196 % 6;
#X obj 350 173 t f f;
#X msg 350 149 0;
#X text 406 196 i;
#X obj 350 219 -;
#X obj 231 217 *;
#X obj 231 178 - 1;
#X obj 231 198 * -1;
#X obj 263 330 *;
#X obj 263 291 - 1;
#X obj 263 311 * -1;
#X obj 263 269 *;
#X obj 350 240 t f f;
#X obj 380 262 - 1;
#X obj 380 283 * -1;
#X obj 302 356 *;
#X obj 302 317 - 1;
#X obj 302 337 * -1;
#X obj 302 295 *;
#X obj 231 151 t f f f;
#X obj 241 392 pack 0 0 0 0;
#N canvas 387 255 646 315 select 0;
#X obj 290 37 inlet;
#X obj 16 247 outlet;
#X obj 92 104 t b l;
#X obj 125 128 unpack 0 0 0 0;
#X obj 89 43 inlet p q t v;
#X obj 92 128 i;
#X obj 92 151 select 0 1 2 3 4 5;
#X obj 16 223 pack 0 0 0;
#X obj 16 203 f;
#X obj 96 223 pack 0 0 0;
#X obj 96 203 f;
#X obj 176 223 pack 0 0 0;
#X obj 176 203 f;
#X obj 256 223 pack 0 0 0;
#X obj 256 203 f;
#X obj 336 223 pack 0 0 0;
#X obj 336 203 f;
#X obj 416 223 pack 0 0 0;
#X obj 416 203 f;
#X connect 0 0 5 1;
#X connect 2 0 5 0;
#X connect 2 1 3 0;
#X connect 3 0 7 2;
#X connect 3 0 9 2;
#X connect 3 0 12 1;
#X connect 3 0 14 1;
#X connect 3 0 15 1;
#X connect 3 0 17 1;
#X connect 3 1 10 1;
#X connect 3 1 13 1;
#X connect 3 1 17 2;
#X connect 3 2 7 1;
#X connect 3 2 11 2;
#X connect 3 2 16 1;
#X connect 3 3 8 1;
#X connect 3 3 9 1;
#X connect 3 3 11 1;
#X connect 3 3 13 2;
#X connect 3 3 15 2;
#X connect 3 3 18 1;
#X connect 4 0 2 0;
#X connect 5 0 6 0;
#X connect 6 0 8 0;
#X connect 6 1 10 0;
#X connect 6 2 12 0;
#X connect 6 3 14 0;
#X connect 6 4 16 0;
#X connect 6 5 18 0;
#X connect 7 0 1 0;
#X connect 8 0 7 0;
#X connect 9 0 1 0;
#X connect 10 0 9 0;
#X connect 11 0 1 0;
#X connect 12 0 11 0;
#X connect 13 0 1 0;
#X connect 14 0 13 0;
#X connect 15 0 1 0;
#X connect 16 0 15 0;
#X connect 17 0 1 0;
#X connect 18 0 17 0;
#X restore 241 416 pd select;
#X msg 187 478 \$1 \$1 \$1;
#X obj 187 450 clip 0 1;
#X obj 231 131 clip 0 1;
#X obj 270 173 clip 0 1;
#X obj 350 109 clip 0 1;
#X obj 350 129 select 1;
#X connect 0 0 2 0;
#X connect 0 1 3 0;
#X connect 1 0 0 0;
#X connect 2 0 31 0;
#X connect 3 0 32 0;
#X connect 3 1 33 0;
#X connect 3 2 34 0;
#X connect 5 0 1 0;
#X connect 7 0 9 0;
#X connect 8 0 12 1;
#X connect 8 0 29 1;
#X connect 9 0 12 0;
#X connect 9 1 8 0;
#X connect 10 0 9 0;
#X connect 12 0 20 0;
#X connect 13 0 28 0;
#X connect 14 0 15 0;
#X connect 15 0 13 0;
#X connect 16 0 28 1;
#X connect 17 0 18 0;
#X connect 18 0 16 0;
#X connect 19 0 17 0;
#X connect 20 0 19 1;
#X connect 20 1 21 0;
#X connect 21 0 22 0;
#X connect 22 0 26 1;
#X connect 23 0 28 2;
#X connect 24 0 25 0;
#X connect 25 0 23 0;
#X connect 26 0 24 0;
#X connect 27 0 14 0;
#X connect 27 1 19 0;
#X connect 27 2 26 0;
#X connect 28 0 29 0;
#X connect 29 0 6 0;
#X connect 30 0 6 0;
#X connect 31 0 30 0;
#X connect 32 0 27 0;
#X connect 33 0 13 1;
#X connect 33 0 28 3;
#X connect 33 0 16 1;
#X connect 33 0 23 1;
#X connect 34 0 35 0;
#X connect 35 0 10 0;
#X connect 35 1 7 0;
#X restore 255 287 pd hsv2rgb;
#X connect 3 0 19 0;
#X connect 4 0 15 0;
#X connect 5 0 1 0;
#X connect 6 0 7 0;
#X connect 6 1 7 1;
#X connect 6 2 7 2;
#X connect 7 0 16 1;
#X connect 8 0 7 0;
#X connect 8 1 7 3;
#X connect 9 0 21 0;
#X connect 10 0 9 0;
#X connect 11 0 9 0;
#X connect 11 1 9 1;
#X connect 12 0 9 0;
#X connect 12 1 9 2;
#X connect 13 0 11 0;
#X connect 14 0 12 0;
#X connect 15 0 16 0;
#X connect 16 0 1 0;
#X connect 17 0 8 0;
#X connect 19 0 4 0;
#X connect 20 0 19 1;
#X connect 21 0 6 0;
