#N canvas 409 22 512 706 10;
#X obj 160 323 &&;
#X obj 127 514 spigot;
#X obj 184 514 spigot;
#X obj 227 564 + 0;
#X obj 284 564 + 0;
#X text 127 293 click;
#X text 90 258 x;
#X text 126 259 y;
#X text 66 25 gil_drag&drop;
#X obj 64 208 t l l;
#X obj 91 233 unpack f f f;
#X obj 280 187 inlet x;
#X obj 360 187 inlet y;
#X text 282 160 current object position;
#X text 300 686 new object position;
#X obj 297 661 outlet x;
#X obj 354 661 outlet y;
#X obj 64 661 outlet cursor-list;
#X text 160 745 (c)2011 Marian Weger /part of GIL/;
#X obj 64 187 inlet cursor-list;
#X obj 175 187 inlet mouseover;
#X obj 160 253 change;
#X obj 199 396 sel 1;
#X obj 227 439 t f f;
#X obj 307 439 t f f;
#X obj 265 439 f;
#X obj 345 439 f;
#X obj 265 524 -;
#X obj 345 524 -;
#X text 66 45 [gil_drag&drop] takes the outlets of a [gil_mouseover_...]
function and enables drag&drop functionality to that particular object.
;
#X obj 160 355 t f f f;
#X obj 67 98 cnv 15 220 50 empty empty HELP? 20 12 0 14 -261234 -258113
0;
#X text 68 125 for further help: see [gil_example];
#X obj 175 209 t f f;
#X obj 189 661 outlet mouseover;
#X connect 0 0 30 0;
#X connect 1 0 3 0;
#X connect 2 0 4 0;
#X connect 3 0 15 0;
#X connect 4 0 16 0;
#X connect 9 0 17 0;
#X connect 9 1 10 0;
#X connect 10 0 23 0;
#X connect 10 1 24 0;
#X connect 10 2 21 0;
#X connect 11 0 25 1;
#X connect 12 0 26 1;
#X connect 19 0 9 0;
#X connect 20 0 33 0;
#X connect 21 0 0 0;
#X connect 22 0 26 0;
#X connect 22 0 25 0;
#X connect 23 0 1 0;
#X connect 23 1 27 1;
#X connect 24 0 2 0;
#X connect 24 1 28 1;
#X connect 25 0 27 0;
#X connect 26 0 28 0;
#X connect 27 0 3 1;
#X connect 28 0 4 1;
#X connect 30 0 1 1;
#X connect 30 1 2 1;
#X connect 30 2 22 0;
#X connect 33 0 34 0;
#X connect 33 1 0 1;
