#N canvas 611 131 450 300 10;
#X text 222 238 (c)2012 Marian Weger;
#X obj 125 150 inlet x0;
#X text 37 30 gil_normalize;
#X obj 196 150 inlet x1;
#X obj 55 182 expr ($f1-$f2)/($f3-$f2);
#X obj 55 224 outlet x_normalised;
#X obj 55 150 inlet x;
#X text 121 76 x - x0;
#X text 119 98 x1 - x0;
#X text 92 87 x = --------;
#X connect 1 0 4 1;
#X connect 3 0 4 2;
#X connect 4 0 5 0;
#X connect 6 0 4 0;
