#N canvas 156 122 466 409 10;
#X obj 38 241 - 512;
#X obj 38 283 / 512;
#X obj 38 305 * 4;
#X obj 98 241 - 512;
#X obj 98 283 / 512;
#X obj 98 305 * -4;
#X obj 241 131 route dimen;
#X obj 241 163 unpack f f;
#X obj 175 241 / 2;
#X obj 65 220 / 2;
#X obj 148 109 loadbang;
#X obj 48 166 \$1;
#X obj 48 188 sel 0;
#X obj 148 158 sel 0;
#X obj 148 136 \$2;
#X text 231 292 (c)2011 Marian Weger /part of GIL/;
#X text 32 20 gil_px2gu <gemwin dimen x> <gemwin dimen y>;
#X obj 38 89 inlet x;
#X obj 98 89 inlet y;
#X obj 38 327 outlet x;
#X obj 98 327 outlet y;
#X obj 241 89 inlet gemwin-dimen;
#X text 239 70 inlet 3: gemwin dimen (x y);
#X text 33 68 cursor position in pixels;
#X text 37 348 cursor position in gem units;
#X connect 0 0 1 0;
#X connect 1 0 2 0;
#X connect 2 0 19 0;
#X connect 3 0 4 0;
#X connect 4 0 5 0;
#X connect 5 0 20 0;
#X connect 6 0 7 0;
#X connect 6 1 7 0;
#X connect 7 0 9 0;
#X connect 7 1 8 0;
#X connect 8 0 3 1;
#X connect 8 0 4 1;
#X connect 8 0 1 1;
#X connect 9 0 0 1;
#X connect 10 0 11 0;
#X connect 10 0 14 0;
#X connect 11 0 12 0;
#X connect 12 1 9 0;
#X connect 13 1 8 0;
#X connect 14 0 13 0;
#X connect 17 0 0 0;
#X connect 18 0 3 0;
#X connect 21 0 6 0;
