#N canvas 726 57 430 494 10;
#X obj 117 103 gemmouse;
#X text 149 74 inlet: gemwin dimen <x> <y>;
#X obj 99 250 pack f f f f f;
#X obj 32 147 gil_px2gu \$1 \$2;
#X obj 32 73 inlet gemwin-dimen;
#X obj 99 272 outlet cursor-list;
#X text 53 332 (x pos \, y pos \, left button \, middle button \, right
button);
#X text 98 297 outlet: cursor-list;
#X obj 78 389 loadbang;
#X obj 78 433 print GIL;
#X msg 78 411 (c)2011 Marian Weger;
#X text 251 407 /part of GIL/;
#X obj 109 203 t b f;
#X obj 139 173 t b f;
#X obj 189 195 t b f;
#X text 44 26 gil_gemmouse <gemwin dimen x> <gemwin dimen y>;
#X connect 0 0 3 0;
#X connect 0 1 3 1;
#X connect 0 2 12 0;
#X connect 0 3 13 0;
#X connect 0 4 14 0;
#X connect 2 0 5 0;
#X connect 3 0 2 0;
#X connect 3 1 2 1;
#X connect 4 0 3 2;
#X connect 8 0 10 0;
#X connect 10 0 9 0;
#X connect 12 0 2 0;
#X connect 12 1 2 2;
#X connect 13 0 2 0;
#X connect 13 1 2 3;
#X connect 14 0 2 0;
#X connect 14 1 2 4;
