#N canvas 754 109 449 411 10;
#X obj 241 141 route dimen;
#X obj 241 173 unpack f f;
#X obj 205 251 / 2;
#X obj 65 290 / 2;
#X obj 178 129 loadbang;
#X obj 48 236 \$1;
#X obj 48 258 sel 0;
#X obj 178 178 sel 0;
#X obj 178 156 \$2;
#X obj 38 125 / 4;
#X obj 98 125 / -4;
#X obj 38 153 * 512;
#X obj 98 153 * 512;
#X obj 38 311 + 512;
#X obj 98 311 + 512;
#X text 31 21 gil_gu2px <gemwin dimen x> <gemwin dimen y>;
#X text 232 81 inlet 3: gemwin dimen (x y);
#X obj 241 99 inlet gemwin-dimen;
#X obj 38 99 inlet x;
#X obj 98 99 inlet y;
#X obj 38 337 outlet x;
#X obj 98 337 outlet y;
#X text 218 299 (c)2011 Marian Weger /part of GIL/;
#X text 34 70 cursor position in gem units;
#X text 42 366 cursor position in pixels;
#X connect 0 0 1 0;
#X connect 0 1 1 0;
#X connect 1 0 3 0;
#X connect 1 1 2 0;
#X connect 2 0 11 1;
#X connect 2 0 12 1;
#X connect 2 0 14 1;
#X connect 3 0 13 1;
#X connect 4 0 5 0;
#X connect 4 0 8 0;
#X connect 5 0 6 0;
#X connect 6 1 3 0;
#X connect 7 1 2 0;
#X connect 8 0 7 0;
#X connect 9 0 11 0;
#X connect 10 0 12 0;
#X connect 11 0 13 0;
#X connect 12 0 14 0;
#X connect 13 0 20 0;
#X connect 14 0 21 0;
#X connect 17 0 0 0;
#X connect 18 0 9 0;
#X connect 19 0 10 0;
