#N canvas 334 22 991 739 10;
#X msg 80 100 dimen 800 600 \, create \, 1;
#X msg 9 153 0 \, destroy;
#X obj 80 192 gemwin;
#X obj 154 140 route dimen;
#X obj 154 248 gil_mouseover_circle 1;
#X obj 197 201 r \$0-circle_position_x;
#X obj 240 221 r \$0-circle_position_y;
#X obj 154 390 gil_drag&drop;
#X obj 204 346 r \$0-circle_position_x;
#X obj 229 368 r \$0-circle_position_y;
#X obj 204 446 s \$0-circle_position_x;
#X obj 229 426 s \$0-circle_position_y;
#X obj 582 303 translateXYZ 0 0 0;
#X obj 582 405 color 0 1 0;
#X obj 582 427 circle 1;
#X obj 666 352 sel 1 0;
#X msg 645 378 1 0 0;
#X msg 685 378 0 1 0;
#X obj 617 257 r \$0-circle_position_x;
#X obj 652 279 r \$0-circle_position_y;
#X text 679 158 (c)2011 Marian Weger /part of GIL/;
#X text 59 74 click here to create GEM window;
#X obj 446 208 hsl 128 15 0.1 4 0 0 empty empty size_of_circle -2 -8
0 10 -262144 -1 -1 3231 1;
#X obj 40 13 cnv 15 600 25 empty empty GIL_example_&_help_patch 20
12 0 14 -261234 -258113 0;
#X obj 270 42 cnv 15 370 100 empty empty description 20 12 0 14 -233017
-66577 0;
#X text 274 68 This example shows how to create simple drag&drop interaction
with GIL.;
#X obj 154 612 gil_mouseover_rectangle;
#X obj 154 721 gil_drag&drop;
#X obj 199 548 r \$0-rectangle_position_x;
#X obj 244 568 r \$0-rectangle_position_y;
#X obj 204 676 r \$0-rectangle_position_x;
#X obj 229 698 r \$0-rectangle_position_y;
#X obj 229 746 s \$0-rectangle_position_y;
#X obj 204 766 s \$0-rectangle_position_x;
#X obj 289 635 t f f;
#X obj 675 702 sel 1 0;
#X obj 505 508 hsl 128 15 0.1 4 0 0 empty empty size_of_rectangle -2
-8 0 10 -262144 -1 -1 2931 1;
#X msg 654 728 1 1 0;
#X msg 694 728 0 1 1;
#X obj 591 755 color 0 1 1;
#X obj 502 528 t f f;
#X obj 502 549 * 2;
#X obj 502 571 pack f f;
#X obj 591 777 rectangle 2 1;
#X obj 582 231 gemhead 51;
#X obj 591 581 gemhead 50;
#X obj 626 607 r \$0-rectangle_position_x;
#X obj 661 629 r \$0-rectangle_position_y;
#X obj 591 653 translateXYZ 0 0 0;
#X obj 502 593 unpack f f;
#X obj 283 272 t f f;
#X obj 502 444 loadbang;
#X msg 502 466 1;
#X obj 443 148 loadbang;
#X msg 443 170 1;
#X obj 154 166 gil_gemmouse 800 600;
#X text 274 108 Create the GEM window for some drag&drop action.;
#X connect 0 0 2 0;
#X connect 0 0 3 0;
#X connect 1 0 2 0;
#X connect 3 0 55 0;
#X connect 4 0 7 0;
#X connect 4 1 50 0;
#X connect 5 0 4 1;
#X connect 6 0 4 2;
#X connect 7 0 26 0;
#X connect 7 2 10 0;
#X connect 7 3 11 0;
#X connect 8 0 7 2;
#X connect 9 0 7 3;
#X connect 12 0 13 0;
#X connect 13 0 14 0;
#X connect 15 0 16 0;
#X connect 15 1 17 0;
#X connect 16 0 13 1;
#X connect 17 0 13 1;
#X connect 18 0 12 1;
#X connect 19 0 12 2;
#X connect 22 0 4 3;
#X connect 22 0 14 1;
#X connect 26 0 27 0;
#X connect 26 1 34 0;
#X connect 27 2 33 0;
#X connect 27 3 32 0;
#X connect 28 0 26 1;
#X connect 29 0 26 2;
#X connect 30 0 27 2;
#X connect 31 0 27 3;
#X connect 34 0 27 1;
#X connect 34 1 35 0;
#X connect 35 0 37 0;
#X connect 35 1 38 0;
#X connect 36 0 40 0;
#X connect 37 0 39 1;
#X connect 38 0 39 1;
#X connect 39 0 43 0;
#X connect 40 0 41 0;
#X connect 40 1 42 1;
#X connect 41 0 42 0;
#X connect 42 0 26 3;
#X connect 42 0 49 0;
#X connect 44 0 12 0;
#X connect 45 0 48 0;
#X connect 46 0 48 1;
#X connect 47 0 48 2;
#X connect 48 0 39 0;
#X connect 49 0 43 1;
#X connect 49 1 43 2;
#X connect 50 0 7 1;
#X connect 50 1 15 0;
#X connect 51 0 52 0;
#X connect 52 0 36 0;
#X connect 53 0 54 0;
#X connect 54 0 22 0;
#X connect 55 0 4 0;
