#N canvas 129 88 963 499 10;
#X obj 30 65 t b;
#X obj 30 43 inlet shader_init;
#X obj 152 378 outlet shader_data;
#X obj 152 43 inlet shader_control;
#X obj 152 233 f 1;
#X obj 272 233 f 1;
#X obj 382 233 f 1;
#X msg 506 279 AvgLumR \$1;
#X msg 616 277 AvgLumG \$1;
#X msg 731 278 AvgLumB \$1;
#X obj 506 257 f 0.5;
#X obj 616 255 f 0.5;
#X obj 731 256 f 0.5;
#X text 325 363 (c)2013 Marian Weger;
#X msg 155 273 con \$1;
#X msg 265 271 sat \$1;
#X msg 380 272 brt \$1;
#X obj 595 43 r /ev/glsl/\$1/contrast;
#X obj 605 63 r /ev/glsl/\$1/saturation;
#X obj 615 83 r /ev/glsl/\$1/brightness;
#X obj 625 103 r /ev/glsl/\$1/AvgLumR;
#X obj 635 123 r /ev/glsl/\$1/AvgLumG;
#X obj 645 143 r /ev/glsl/\$1/AvgLumB;
#X obj 152 65 route contrast saturation brightness AvgLumR AvgLumG
AvgLumB tex0;
#X obj 685 163 r /ev/glsl/\$1/tex0;
#X obj 831 276 int 0;
#X msg 831 298 tex0 \$1;
#X connect 0 0 4 0;
#X connect 0 0 5 0;
#X connect 0 0 6 0;
#X connect 0 0 10 0;
#X connect 0 0 11 0;
#X connect 0 0 12 0;
#X connect 0 0 25 0;
#X connect 1 0 0 0;
#X connect 3 0 23 0;
#X connect 4 0 14 0;
#X connect 5 0 15 0;
#X connect 6 0 16 0;
#X connect 7 0 2 0;
#X connect 8 0 2 0;
#X connect 9 0 2 0;
#X connect 10 0 7 0;
#X connect 11 0 8 0;
#X connect 12 0 9 0;
#X connect 14 0 2 0;
#X connect 15 0 2 0;
#X connect 16 0 2 0;
#X connect 17 0 4 0;
#X connect 18 0 5 0;
#X connect 19 0 6 0;
#X connect 20 0 10 0;
#X connect 21 0 11 0;
#X connect 22 0 12 0;
#X connect 23 0 4 0;
#X connect 23 1 5 0;
#X connect 23 2 6 0;
#X connect 23 3 10 0;
#X connect 23 4 11 0;
#X connect 23 5 12 0;
#X connect 23 6 25 0;
#X connect 24 0 25 0;
#X connect 25 0 26 0;
#X connect 26 0 2 0;
