#N canvas 211 87 450 300 10;
#X obj 121 148 loadbang;
#X obj 121 170 list prepend \$1 \$2;
#X obj 214 145 bng 15 250 50 0 empty empty empty 17 7 0 10 -262144
-1 -1;
#X obj 118 67 ds_reg \$2 /ev/glsl/\$1/blur;
#X obj 118 97 osc_bi \$2 /ev/glsl/\$1/blur;
#X msg 121 192 \; /ev/glsl/\$1/blur 0.5 \;;
#X connect 0 0 1 0;
#X connect 1 0 5 0;
#X connect 2 0 1 0;
