#N canvas 44 22 662 363 10;
#X obj 30 65 t b;
#X obj 30 43 inlet shader_init;
#X obj 152 298 outlet shader_data;
#X obj 152 192 f 0.001;
#X obj 152 43 inlet shader_control;
#X text 325 303 (c)2011 Marian Weger;
#X msg 152 252 blur_size \$1;
#X obj 152 224 * 7.5;
#X obj 152 118 route blur;
#X obj 167 147 r /ev/glsl/\$1/blur;
#X connect 0 0 3 0;
#X connect 1 0 0 0;
#X connect 3 0 7 0;
#X connect 4 0 8 0;
#X connect 6 0 2 0;
#X connect 7 0 6 0;
#X connect 8 0 3 0;
#X connect 9 0 3 0;
