#N canvas 360 217 685 451 10;
#X obj 30 65 t b;
#X obj 30 43 inlet shader_init;
#X obj 152 278 outlet shader_data;
#X obj 152 43 inlet shader_control;
#X obj 152 236 list trim;
#X obj 152 97 t b a;
#X obj 152 65 route invert;
#X obj 152 133 list 1 1 1;
#X obj 152 164 list prepend invert;
#X text 325 263 (c)2013 Marian Weger;
#X obj 271 75 r /ev/glsl/\$1/invert;
#X connect 0 0 7 0;
#X connect 1 0 0 0;
#X connect 3 0 6 0;
#X connect 4 0 2 0;
#X connect 5 0 7 0;
#X connect 5 1 7 1;
#X connect 6 0 5 0;
#X connect 7 0 8 0;
#X connect 8 0 4 0;
#X connect 10 0 5 0;
