#N canvas 360 217 685 451 10;
#X obj 30 65 t b;
#X obj 30 43 inlet shader_init;
#X obj 152 428 outlet shader_data;
#X obj 152 43 inlet shader_control;
#X obj 152 65 route invert;
#X text 325 413 (c)2013 Marian Weger;
#X obj 152 283 pack 1 1 1 0;
#X obj 190 112 r /ev/glsl/\$1/invert/r;
#X obj 200 132 r /ev/glsl/\$1/invert/g;
#X obj 240 154 r /ev/glsl/\$1/invert/b;
#X obj 280 176 r /ev/glsl/\$1/invert/a;
#X obj 200 154 t b f;
#X obj 240 176 t b f;
#X obj 280 198 t b f;
#X msg 152 305 invert \$1 \$2 \$3 \$4;
#X connect 0 0 6 0;
#X connect 1 0 0 0;
#X connect 3 0 4 0;
#X connect 4 0 6 0;
#X connect 6 0 14 0;
#X connect 7 0 6 0;
#X connect 8 0 11 0;
#X connect 9 0 12 0;
#X connect 10 0 13 0;
#X connect 11 0 6 0;
#X connect 11 1 6 1;
#X connect 12 0 6 0;
#X connect 12 1 6 2;
#X connect 13 0 6 0;
#X connect 13 1 6 3;
#X connect 14 0 2 0;
