#N canvas 129 88 963 499 10;
#X obj 30 65 t b;
#X obj 30 43 inlet shader_init;
#X obj 152 328 outlet shader_data;
#X obj 152 43 inlet shader_control;
#X text 319 454 (c)2013 Marian Weger;
#X obj 152 65 route minInput maxInput minOutput maxOutput gamma;
#X msg 731 288 gamma \$1;
#X obj 152 300 list trim;
#X obj 152 248 list prepend minInput;
#X obj 292 248 list prepend maxInput;
#X obj 432 248 list prepend minOutput;
#X obj 572 248 list prepend maxOutput;
#X obj 731 116 f 1;
#X obj 152 218 pack 0 0 0;
#X obj 292 218 pack 1 1 1;
#X obj 432 218 pack 0 0 0;
#X obj 572 218 pack 1 1 1;
#X obj 631 13 r /ev/glsl/\$1/minInput;
#X obj 651 33 r /ev/glsl/\$1/maxInput;
#X obj 671 53 r /ev/glsl/\$1/minOutput;
#X obj 691 73 r /ev/glsl/\$1/maxOutput;
#X obj 731 93 r /ev/glsl/\$1/gamma;
#X connect 0 0 12 0;
#X connect 0 0 13 0;
#X connect 0 0 14 0;
#X connect 0 0 15 0;
#X connect 0 0 16 0;
#X connect 1 0 0 0;
#X connect 3 0 5 0;
#X connect 5 0 13 0;
#X connect 5 1 14 0;
#X connect 5 2 15 0;
#X connect 5 3 16 0;
#X connect 5 4 12 0;
#X connect 6 0 2 0;
#X connect 7 0 2 0;
#X connect 8 0 7 0;
#X connect 9 0 7 0;
#X connect 10 0 7 0;
#X connect 11 0 7 0;
#X connect 12 0 6 0;
#X connect 13 0 8 0;
#X connect 14 0 9 0;
#X connect 15 0 10 0;
#X connect 16 0 11 0;
#X connect 17 0 13 0;
#X connect 18 0 14 0;
#X connect 19 0 15 0;
#X connect 20 0 16 0;
#X connect 21 0 12 0;
