#N canvas 291 187 963 499 10;
#X obj 30 65 t b;
#X obj 30 43 inlet shader_init;
#X obj 152 278 outlet shader_data;
#X obj 152 43 inlet shader_control;
#X text 290 378 (c)2013 Marian Weger;
#X obj 152 185 list prepend amount;
#X obj 152 207 list trim;
#X obj 152 127 t b a;
#X obj 152 65 route amount tex0 tex1;
#X obj 313 167 int 0;
#X obj 389 162 int 1;
#X msg 313 189 tex0 \$1;
#X msg 390 189 tex1 \$1;
#X obj 152 163 list 0.5 0.5 0.5 0.5;
#X connect 0 0 9 0;
#X connect 0 0 10 0;
#X connect 0 0 13 0;
#X connect 1 0 0 0;
#X connect 3 0 8 0;
#X connect 5 0 6 0;
#X connect 6 0 2 0;
#X connect 7 0 13 0;
#X connect 7 1 13 1;
#X connect 8 0 7 0;
#X connect 8 1 9 0;
#X connect 8 2 10 0;
#X connect 9 0 11 0;
#X connect 10 0 12 0;
#X connect 11 0 2 0;
#X connect 12 0 2 0;
#X connect 13 0 5 0;
