#N canvas 129 88 963 499 10;
#X obj 30 65 t b;
#X obj 30 43 inlet shader_init;
#X obj 152 278 outlet shader_data;
#X obj 152 43 inlet shader_control;
#X text 290 378 (c)2013 Marian Weger;
#X obj 313 167 int 0;
#X obj 389 162 int 1;
#X msg 313 189 tex0 \$1;
#X msg 390 189 tex1 \$1;
#X msg 477 189 tex2 \$1;
#X obj 476 162 int 2;
#X obj 152 65 route tex0 tex1 tex2;
#X connect 0 0 5 0;
#X connect 0 0 6 0;
#X connect 0 0 10 0;
#X connect 1 0 0 0;
#X connect 3 0 11 0;
#X connect 5 0 7 0;
#X connect 6 0 8 0;
#X connect 7 0 2 0;
#X connect 8 0 2 0;
#X connect 9 0 2 0;
#X connect 10 0 9 0;
#X connect 11 0 5 0;
#X connect 11 1 6 0;
#X connect 11 2 10 0;
